<svg width="40" height="40" viewBox="0 0 40 40" fill="none" xmlns="http://www.w3.org/2000/svg">
<rect width="40" height="40" fill="#E5E5E5"/>
<g clip-path="url(#clip0_0_1)">
<rect width="1920" height="1024" transform="translate(-1356 -173)" fill="white"/>
<rect x="-1306" y="-41" width="1820" height="50" fill="#F1F1F1"/>
<rect x="-1306" y="19" width="1820" height="50" fill="white"/>
<rect x="-1" y="19" width="260" height="50" fill="white"/>
<path d="M35.8066 39.1592C35.1813 39.1592 34.6196 39.2699 34.1216 39.4912C33.6291 39.707 33.2113 40.0252 32.8682 40.4458C32.5251 40.8608 32.2622 41.3617 32.0796 41.9482C31.897 42.5348 31.8057 43.1961 31.8057 43.9321C31.8057 44.9116 31.9495 45.7583 32.2373 46.4722C32.5306 47.186 32.9705 47.7367 33.5571 48.124C34.1437 48.5114 34.8825 48.7051 35.7734 48.7051C36.3047 48.7051 36.811 48.658 37.2925 48.564C37.7795 48.4644 38.2637 48.3371 38.7451 48.1821V49.6431C38.2803 49.8201 37.7988 49.9502 37.3008 50.0332C36.8083 50.1217 36.23 50.166 35.5659 50.166C34.3263 50.166 33.2943 49.9087 32.4697 49.394C31.6507 48.8794 31.0392 48.1572 30.6353 47.2275C30.2313 46.2923 30.0293 45.1911 30.0293 43.9238C30.0293 43.0052 30.1566 42.1668 30.4111 41.4087C30.6657 40.645 31.0392 39.9865 31.5317 39.4331C32.0243 38.8742 32.6274 38.4453 33.3413 38.1465C34.0607 37.8421 34.888 37.6899 35.8232 37.6899C36.432 37.6899 37.0241 37.7563 37.5996 37.8892C38.1807 38.0164 38.7147 38.1963 39.2017 38.4287L38.5708 39.8481C38.1668 39.6655 37.7324 39.505 37.2676 39.3667C36.8083 39.2284 36.3213 39.1592 35.8066 39.1592ZM48.9302 40.8525V50H47.5938L47.3613 48.7466H47.27C47.0819 49.062 46.8384 49.3249 46.5396 49.5352C46.2407 49.7454 45.9059 49.9032 45.5352 50.0083C45.1644 50.1134 44.7715 50.166 44.3564 50.166C43.6536 50.166 43.056 50.0498 42.5635 49.8174C42.0765 49.585 41.7057 49.2253 41.4512 48.7383C41.2021 48.2458 41.0776 47.6121 41.0776 46.8374V40.8525H42.7544V46.605C42.7544 47.341 42.9121 47.8916 43.2275 48.2568C43.5485 48.6221 44.0355 48.8047 44.6885 48.8047C45.3249 48.8047 45.8285 48.6802 46.1992 48.4312C46.5755 48.1766 46.8439 47.8086 47.0044 47.3271C47.1704 46.8402 47.2534 46.2453 47.2534 45.5425V40.8525H48.9302ZM57.8203 47.4434C57.8203 48.0355 57.6737 48.5363 57.3804 48.9458C57.0926 49.3498 56.672 49.6541 56.1187 49.8589C55.5653 50.0636 54.9012 50.166 54.1265 50.166C53.4845 50.166 52.9312 50.1162 52.4663 50.0166C52.0015 49.9225 51.5809 49.7842 51.2046 49.6016V48.124C51.6086 48.3177 52.0762 48.4893 52.6074 48.6387C53.1387 48.7881 53.6589 48.8628 54.168 48.8628C54.8818 48.8628 55.3965 48.7493 55.7119 48.5225C56.0329 48.2956 56.1934 47.9884 56.1934 47.6011C56.1934 47.3742 56.1297 47.175 56.0024 47.0034C55.8752 46.8263 55.651 46.652 55.3301 46.4805C55.0146 46.3034 54.5609 46.1014 53.9688 45.8745C53.3877 45.6476 52.8896 45.4207 52.4746 45.1938C52.0651 44.967 51.7524 44.693 51.5366 44.3721C51.3208 44.0511 51.2129 43.6361 51.2129 43.127C51.2129 42.3356 51.5283 41.7324 52.1592 41.3174C52.7956 40.8968 53.634 40.6865 54.6743 40.6865C55.2277 40.6865 55.7479 40.7419 56.2349 40.8525C56.7274 40.9632 57.1978 41.1182 57.646 41.3174L57.1064 42.604C56.708 42.4325 56.2985 42.2913 55.8779 42.1807C55.4574 42.0645 55.0285 42.0063 54.5913 42.0063C54.0213 42.0063 53.5841 42.0977 53.2798 42.2803C52.981 42.4629 52.8315 42.7147 52.8315 43.0356C52.8315 43.2847 52.9007 43.4922 53.0391 43.6582C53.1829 43.8242 53.4209 43.9875 53.7529 44.1479C54.085 44.3029 54.5332 44.4883 55.0977 44.7041C55.6566 44.9144 56.138 45.133 56.542 45.3599C56.9515 45.5868 57.2669 45.8634 57.4883 46.1899C57.7096 46.5164 57.8203 46.9342 57.8203 47.4434ZM63.1743 48.813C63.4123 48.813 63.653 48.7936 63.8965 48.7549C64.14 48.7106 64.3503 48.6553 64.5273 48.5889V49.8672C64.3392 49.9502 64.0874 50.0194 63.772 50.0747C63.4621 50.1356 63.1439 50.166 62.8174 50.166C62.3193 50.166 61.8683 50.0802 61.4644 49.9087C61.0604 49.7371 60.7367 49.4438 60.4932 49.0288C60.2552 48.6138 60.1362 48.0382 60.1362 47.3022V42.1392H58.8662V41.3672L60.1943 40.7529L60.7837 38.7773H61.813V40.8525H64.4609V42.1392H61.813V47.2773C61.813 47.792 61.9347 48.1766 62.1782 48.4312C62.4272 48.6857 62.7593 48.813 63.1743 48.813ZM74.3721 45.4097C74.3721 46.1623 74.2725 46.8346 74.0732 47.4268C73.8796 48.0133 73.5946 48.5114 73.2183 48.9209C72.8475 49.3249 72.3993 49.6348 71.8735 49.8506C71.3478 50.0609 70.7529 50.166 70.0889 50.166C69.4691 50.166 68.8991 50.0609 68.3789 49.8506C67.8643 49.6348 67.4188 49.3249 67.0425 48.9209C66.6662 48.5114 66.3757 48.0133 66.1709 47.4268C65.9661 46.8346 65.8638 46.1623 65.8638 45.4097C65.8638 44.408 66.0353 43.5558 66.3784 42.853C66.7215 42.1447 67.2113 41.6079 67.8477 41.2427C68.4896 40.8719 69.2533 40.6865 70.1387 40.6865C70.9798 40.6865 71.7186 40.8719 72.355 41.2427C72.9914 41.6134 73.4867 42.1502 73.8408 42.853C74.195 43.5558 74.3721 44.408 74.3721 45.4097ZM67.5737 45.4097C67.5737 46.1125 67.6623 46.7184 67.8394 47.2275C68.022 47.7311 68.2987 48.1185 68.6694 48.3896C69.0457 48.6608 69.5299 48.7964 70.1221 48.7964C70.7031 48.7964 71.1818 48.6608 71.5581 48.3896C71.9344 48.1185 72.2111 47.7311 72.3882 47.2275C72.5653 46.7184 72.6538 46.1125 72.6538 45.4097C72.6538 44.7124 72.5653 44.1147 72.3882 43.6167C72.2111 43.1187 71.9344 42.7368 71.5581 42.4712C71.1873 42.2056 70.7031 42.0728 70.1055 42.0728C69.2311 42.0728 68.5892 42.366 68.1797 42.9526C67.7757 43.5337 67.5737 44.3527 67.5737 45.4097ZM86.8232 40.6865C87.8359 40.6865 88.5996 40.9521 89.1143 41.4834C89.6344 42.0091 89.8945 42.853 89.8945 44.0151V50H88.2427V44.2227C88.2427 43.5033 88.0933 42.9637 87.7944 42.604C87.5011 42.2443 87.0612 42.0645 86.4746 42.0645C85.6445 42.0645 85.0441 42.3162 84.6733 42.8198C84.3081 43.3179 84.1255 44.0511 84.1255 45.0195V50H82.4653V44.2227C82.4653 43.7412 82.3989 43.3428 82.2661 43.0273C82.1333 42.7064 81.9368 42.4657 81.6768 42.3052C81.4167 42.1447 81.0874 42.0645 80.689 42.0645C80.119 42.0645 79.6624 42.189 79.3193 42.438C78.9818 42.6815 78.7355 43.0439 78.5806 43.5254C78.4312 44.0068 78.3564 44.5962 78.3564 45.2935V50H76.688V40.8525H78.0078L78.2485 42.1143H78.3398C78.5225 41.7988 78.7521 41.536 79.0288 41.3257C79.311 41.1154 79.6237 40.9577 79.9668 40.8525C80.3099 40.7419 80.6724 40.6865 81.0542 40.6865C81.7404 40.6865 82.3187 40.811 82.7891 41.0601C83.2594 41.3091 83.6053 41.6882 83.8267 42.1973H83.9346C84.2279 41.6826 84.6318 41.3035 85.1465 41.0601C85.6667 40.811 86.2256 40.6865 86.8232 40.6865ZM96.2612 40.6865C97.0581 40.6865 97.7415 40.8581 98.3115 41.2012C98.8815 41.5387 99.3187 42.0174 99.623 42.6372C99.9274 43.257 100.08 43.9875 100.08 44.8286V45.7749H93.8706C93.8872 46.7544 94.139 47.507 94.626 48.0327C95.113 48.5529 95.7964 48.813 96.6763 48.813C97.2573 48.813 97.7747 48.7576 98.2285 48.647C98.6823 48.5363 99.1527 48.373 99.6396 48.1572V49.5601C99.1803 49.7703 98.7183 49.9225 98.2534 50.0166C97.7941 50.1162 97.2435 50.166 96.6016 50.166C95.7161 50.166 94.9386 49.9889 94.269 49.6348C93.605 49.2806 93.0876 48.7576 92.7168 48.0659C92.346 47.3687 92.1606 46.5109 92.1606 45.4927C92.1606 44.4855 92.3294 43.625 92.667 42.9111C93.0046 42.1917 93.4805 41.6411 94.0947 41.2593C94.709 40.8774 95.4312 40.6865 96.2612 40.6865ZM96.2529 41.9814C95.5778 41.9814 95.0355 42.2028 94.626 42.6455C94.2165 43.0827 93.9757 43.7108 93.9038 44.5298H98.4028C98.3973 44.0262 98.3171 43.5835 98.1621 43.2017C98.0072 42.8198 97.772 42.521 97.4565 42.3052C97.1466 42.0894 96.7454 41.9814 96.2529 41.9814ZM106.753 40.6865C106.919 40.6865 107.099 40.6976 107.293 40.7197C107.487 40.7363 107.653 40.7585 107.791 40.7861L107.617 42.3384C107.484 42.3052 107.329 42.2775 107.152 42.2554C106.98 42.2332 106.82 42.2222 106.67 42.2222C106.316 42.2222 105.979 42.2886 105.658 42.4214C105.337 42.5542 105.055 42.7479 104.811 43.0024C104.568 43.2515 104.377 43.5586 104.238 43.9238C104.1 44.2835 104.031 44.6958 104.031 45.1606V50H102.354V40.8525H103.699L103.898 42.5044H103.973C104.161 42.1724 104.388 41.868 104.653 41.5913C104.924 41.3146 105.234 41.096 105.583 40.9355C105.937 40.7695 106.327 40.6865 106.753 40.6865ZM119.163 43.5254H123.546V49.5103C122.91 49.7261 122.254 49.8893 121.579 50C120.903 50.1107 120.145 50.166 119.304 50.166C118.054 50.166 116.999 49.917 116.142 49.4189C115.284 48.9209 114.631 48.207 114.183 47.2773C113.74 46.3477 113.519 45.2298 113.519 43.9238C113.519 42.6676 113.765 41.5719 114.257 40.6367C114.75 39.7015 115.466 38.9766 116.407 38.4619C117.348 37.9473 118.482 37.6899 119.811 37.6899C120.475 37.6899 121.111 37.7536 121.72 37.8809C122.334 38.0081 122.898 38.1852 123.413 38.4121L122.799 39.8481C122.367 39.6545 121.889 39.4912 121.363 39.3584C120.843 39.2201 120.303 39.1509 119.744 39.1509C118.814 39.1509 118.015 39.3473 117.345 39.7402C116.681 40.1331 116.169 40.6865 115.81 41.4004C115.455 42.1143 115.278 42.9609 115.278 43.9404C115.278 44.8978 115.428 45.7334 115.727 46.4473C116.025 47.1611 116.493 47.7173 117.129 48.1157C117.766 48.5142 118.585 48.7134 119.586 48.7134C120.09 48.7134 120.519 48.6857 120.873 48.6304C121.233 48.575 121.562 48.5086 121.861 48.4312V45.0112H119.163V43.5254ZM133.399 46.7378C133.399 47.4572 133.219 48.0742 132.859 48.5889C132.505 49.098 132.004 49.4881 131.357 49.7593C130.709 50.0304 129.94 50.166 129.049 50.166C128.601 50.166 128.172 50.1411 127.763 50.0913C127.359 50.047 126.982 49.9806 126.634 49.8921C126.285 49.8035 125.97 49.6929 125.688 49.5601V47.9497C126.147 48.1379 126.678 48.3149 127.281 48.481C127.884 48.6414 128.507 48.7217 129.149 48.7217C129.708 48.7217 130.175 48.647 130.552 48.4976C130.934 48.3426 131.221 48.1268 131.415 47.8501C131.609 47.5734 131.706 47.2414 131.706 46.854C131.706 46.4666 131.611 46.1429 131.423 45.8828C131.235 45.6172 130.936 45.3737 130.527 45.1523C130.123 44.931 129.592 44.6958 128.933 44.4468C128.474 44.2808 128.056 44.0926 127.68 43.8823C127.303 43.6665 126.977 43.4202 126.7 43.1436C126.429 42.8669 126.219 42.5431 126.069 42.1724C125.92 41.7961 125.845 41.3644 125.845 40.8774C125.845 40.2078 126.008 39.6351 126.335 39.1592C126.667 38.6833 127.129 38.3208 127.721 38.0718C128.313 37.8172 129 37.6899 129.78 37.6899C130.422 37.6899 131.019 37.7536 131.573 37.8809C132.132 38.0081 132.663 38.1825 133.167 38.4038L132.627 39.8149C132.157 39.6213 131.683 39.4635 131.208 39.3418C130.732 39.2201 130.239 39.1592 129.73 39.1592C129.26 39.1592 128.861 39.2284 128.535 39.3667C128.214 39.505 127.967 39.7015 127.796 39.9561C127.63 40.2106 127.547 40.5122 127.547 40.8608C127.547 41.2537 127.635 41.5802 127.812 41.8403C127.99 42.1004 128.269 42.3356 128.651 42.5459C129.033 42.7562 129.531 42.9803 130.145 43.2183C130.837 43.4839 131.423 43.7661 131.905 44.0649C132.392 44.3638 132.763 44.7235 133.017 45.144C133.272 45.5646 133.399 46.0959 133.399 46.7378ZM139.766 50H138.056V39.3335H134.37V37.8643H143.443V39.3335H139.766V50ZM145.294 50V37.8643H146.996V50H145.294ZM160.086 50H158.044L151.76 40.0557H151.694C151.71 40.3545 151.73 40.6838 151.752 41.0435C151.774 41.3976 151.791 41.7712 151.802 42.1641C151.818 42.5514 151.829 42.9443 151.835 43.3428V50H150.274V37.8643H152.3L158.559 47.7588H158.617C158.606 47.5153 158.592 47.2137 158.575 46.854C158.559 46.4943 158.542 46.1152 158.525 45.7168C158.514 45.3128 158.509 44.931 158.509 44.5713V37.8643H160.086V50ZM166.768 46.1567V44.7124H170.968V46.1567H166.768ZM177.65 50V37.8643H179.352V50H177.65ZM186.972 40.6865C188.029 40.6865 188.84 40.9521 189.404 41.4834C189.974 42.0146 190.259 42.8669 190.259 44.04V50H188.607V44.2642C188.607 43.5337 188.447 42.9858 188.126 42.6206C187.805 42.2498 187.312 42.0645 186.648 42.0645C185.702 42.0645 185.038 42.3439 184.656 42.9028C184.28 43.4618 184.092 44.2725 184.092 45.335V50H182.423V40.8525H183.743L183.984 42.1392H184.075C184.269 41.8182 184.515 41.5498 184.814 41.334C185.113 41.1182 185.445 40.9577 185.81 40.8525C186.181 40.7419 186.568 40.6865 186.972 40.6865ZM195.107 50L191.629 40.8525H193.397L195.348 46.3062C195.475 46.6659 195.599 47.0588 195.721 47.4849C195.848 47.911 195.934 48.2624 195.979 48.5391H196.037C196.092 48.2568 196.186 47.9027 196.319 47.4766C196.452 47.0505 196.579 46.6603 196.701 46.3062L198.643 40.8525H200.419L196.933 50H195.107ZM209.841 45.4097C209.841 46.1623 209.741 46.8346 209.542 47.4268C209.348 48.0133 209.063 48.5114 208.687 48.9209C208.316 49.3249 207.868 49.6348 207.342 49.8506C206.817 50.0609 206.222 50.166 205.558 50.166C204.938 50.166 204.368 50.0609 203.848 49.8506C203.333 49.6348 202.888 49.3249 202.511 48.9209C202.135 48.5114 201.844 48.0133 201.64 47.4268C201.435 46.8346 201.333 46.1623 201.333 45.4097C201.333 44.408 201.504 43.5558 201.847 42.853C202.19 42.1447 202.68 41.6079 203.316 41.2427C203.958 40.8719 204.722 40.6865 205.607 40.6865C206.449 40.6865 207.187 40.8719 207.824 41.2427C208.46 41.6134 208.955 42.1502 209.31 42.853C209.664 43.5558 209.841 44.408 209.841 45.4097ZM203.042 45.4097C203.042 46.1125 203.131 46.7184 203.308 47.2275C203.491 47.7311 203.767 48.1185 204.138 48.3896C204.514 48.6608 204.999 48.7964 205.591 48.7964C206.172 48.7964 206.651 48.6608 207.027 48.3896C207.403 48.1185 207.68 47.7311 207.857 47.2275C208.034 46.7184 208.123 46.1125 208.123 45.4097C208.123 44.7124 208.034 44.1147 207.857 43.6167C207.68 43.1187 207.403 42.7368 207.027 42.4712C206.656 42.2056 206.172 42.0728 205.574 42.0728C204.7 42.0728 204.058 42.366 203.648 42.9526C203.244 43.5337 203.042 44.3527 203.042 45.4097ZM211.916 49.0537C211.916 48.6331 212.021 48.3371 212.231 48.1655C212.447 47.9884 212.707 47.8999 213.012 47.8999C213.322 47.8999 213.584 47.9884 213.8 48.1655C214.016 48.3371 214.124 48.6331 214.124 49.0537C214.124 49.4632 214.016 49.762 213.8 49.9502C213.584 50.1383 213.322 50.2324 213.012 50.2324C212.707 50.2324 212.447 50.1383 212.231 49.9502C212.021 49.762 211.916 49.4632 211.916 49.0537ZM216.481 49.0537C216.481 48.6331 216.587 48.3371 216.797 48.1655C217.013 47.9884 217.273 47.8999 217.577 47.8999C217.887 47.8999 218.15 47.9884 218.366 48.1655C218.582 48.3371 218.689 48.6331 218.689 49.0537C218.689 49.4632 218.582 49.762 218.366 49.9502C218.15 50.1383 217.887 50.2324 217.577 50.2324C217.273 50.2324 217.013 50.1383 216.797 49.9502C216.587 49.762 216.481 49.4632 216.481 49.0537ZM221.047 49.0537C221.047 48.6331 221.152 48.3371 221.362 48.1655C221.578 47.9884 221.838 47.8999 222.143 47.8999C222.452 47.8999 222.715 47.9884 222.931 48.1655C223.147 48.3371 223.255 48.6331 223.255 49.0537C223.255 49.4632 223.147 49.762 222.931 49.9502C222.715 50.1383 222.452 50.2324 222.143 50.2324C221.838 50.2324 221.578 50.1383 221.362 49.9502C221.152 49.762 221.047 49.4632 221.047 49.0537Z" fill="black"/>
<g filter="url(#filter0_d_0_1)">
<path d="M20 -37C20 -39.2091 21.7909 -41 24 -41H564V851H24C21.7909 851 20 849.209 20 847V-37Z" fill="#F8F8F8"/>
<path d="M24 -40.5H563.5V850.5H24C22.067 850.5 20.5 848.933 20.5 847V-37C20.5 -38.933 22.067 -40.5 24 -40.5Z" stroke="black" stroke-opacity="0.12"/>
</g>
<circle cx="20" cy="20" r="20" fill="#2196F3"/>
<circle cx="20" cy="20" r="19.5" stroke="white" stroke-opacity="0.07"/>
<path d="M16.0051 14.9081L16.0051 14.908C15.878 14.7867 15.8044 14.6206 15.8061 14.4446C15.8077 14.2687 15.8844 14.104 16.0136 13.9849C16.1423 13.8662 16.3132 13.8014 16.4888 13.8C16.6644 13.7986 16.8364 13.8607 16.9671 13.9771L16.9697 13.9794L16.9697 13.9794L22.9925 19.5318L22.9925 19.5318C23.1232 19.6523 23.2 19.8193 23.2 19.9973C23.2 20.1753 23.1232 20.3423 22.9925 20.4628L22.9925 20.4628L16.9697 26.0152L16.9696 26.0153C16.905 26.0748 16.8292 26.1212 16.7468 26.1526C16.6645 26.1841 16.5767 26.2 16.4885 26.2L16.0051 14.9081ZM16.0051 14.9081L16.0077 14.9104L21.5254 19.9972L16.0077 25.0839L16.0051 14.9081ZM16.0371 25.7218L15.8547 25.8037C15.8004 25.6829 15.7859 25.5488 15.8139 25.4193C15.8419 25.29 15.9103 25.1736 16.0077 25.0839L16.0371 25.7218ZM16.0371 25.7218L15.8547 25.8037C15.9088 25.9243 15.9993 26.0248 16.1121 26.0943C16.2248 26.1637 16.3557 26.2 16.4884 26.2L16.0371 25.7218Z" fill="white" stroke="white" stroke-width="0.4"/>
</g>
<defs>
<filter id="filter0_d_0_1" x="0" y="-53" width="584" height="932" filterUnits="userSpaceOnUse" color-interpolation-filters="sRGB">
<feFlood flood-opacity="0" result="BackgroundImageFix"/>
<feColorMatrix in="SourceAlpha" type="matrix" values="0 0 0 0 0 0 0 0 0 0 0 0 0 0 0 0 0 0 127 0" result="hardAlpha"/>
<feOffset dy="8"/>
<feGaussianBlur stdDeviation="10"/>
<feColorMatrix type="matrix" values="0 0 0 0 0 0 0 0 0 0 0 0 0 0 0 0 0 0 0.15 0"/>
<feBlend mode="normal" in2="BackgroundImageFix" result="effect1_dropShadow_0_1"/>
<feBlend mode="normal" in="SourceGraphic" in2="effect1_dropShadow_0_1" result="shape"/>
</filter>
<clipPath id="clip0_0_1">
<rect width="1920" height="1024" fill="white" transform="translate(-1356 -173)"/>
</clipPath>
</defs>
</svg>
