<svg width="102" height="43" viewBox="0 0 102 43" fill="none" xmlns="http://www.w3.org/2000/svg">
<rect width="102" height="43" fill="#E5E5E5"/>
<g clip-path="url(#clip0_0_1)">
<rect width="1920" height="1024" transform="translate(-1416 -172)" fill="white"/>
<rect x="-1366" y="-40" width="1820" height="50" fill="#F1F1F1"/>
<rect x="-1366" y="20" width="1820" height="50" fill="white"/>
<rect x="-61" y="20" width="260" height="50" fill="white"/>
<path d="M-24.1934 40.1592C-24.8187 40.1592 -25.3804 40.2699 -25.8784 40.4912C-26.3709 40.707 -26.7887 41.0252 -27.1318 41.4458C-27.4749 41.8608 -27.7378 42.3617 -27.9204 42.9482C-28.103 43.5348 -28.1943 44.1961 -28.1943 44.9321C-28.1943 45.9116 -28.0505 46.7583 -27.7627 47.4722C-27.4694 48.186 -27.0295 48.7367 -26.4429 49.124C-25.8563 49.5114 -25.1175 49.7051 -24.2266 49.7051C-23.6953 49.7051 -23.189 49.658 -22.7075 49.564C-22.2205 49.4644 -21.7363 49.3371 -21.2549 49.1821V50.6431C-21.7197 50.8201 -22.2012 50.9502 -22.6992 51.0332C-23.1917 51.1217 -23.77 51.166 -24.4341 51.166C-25.6737 51.166 -26.7057 50.9087 -27.5303 50.394C-28.3493 49.8794 -28.9608 49.1572 -29.3647 48.2275C-29.7687 47.2923 -29.9707 46.1911 -29.9707 44.9238C-29.9707 44.0052 -29.8434 43.1668 -29.5889 42.4087C-29.3343 41.645 -28.9608 40.9865 -28.4683 40.4331C-27.9757 39.8742 -27.3726 39.4453 -26.6587 39.1465C-25.9393 38.8421 -25.112 38.6899 -24.1768 38.6899C-23.568 38.6899 -22.9759 38.7563 -22.4004 38.8892C-21.8193 39.0164 -21.2853 39.1963 -20.7983 39.4287L-21.4292 40.8481C-21.8332 40.6655 -22.2676 40.505 -22.7324 40.3667C-23.1917 40.2284 -23.6787 40.1592 -24.1934 40.1592ZM-11.0698 41.8525V51H-12.4062L-12.6387 49.7466H-12.73C-12.9181 50.062 -13.1616 50.3249 -13.4604 50.5352C-13.7593 50.7454 -14.0941 50.9032 -14.4648 51.0083C-14.8356 51.1134 -15.2285 51.166 -15.6436 51.166C-16.3464 51.166 -16.944 51.0498 -17.4365 50.8174C-17.9235 50.585 -18.2943 50.2253 -18.5488 49.7383C-18.7979 49.2458 -18.9224 48.6121 -18.9224 47.8374V41.8525H-17.2456V47.605C-17.2456 48.341 -17.0879 48.8916 -16.7725 49.2568C-16.4515 49.6221 -15.9645 49.8047 -15.3115 49.8047C-14.6751 49.8047 -14.1715 49.6802 -13.8008 49.4312C-13.4245 49.1766 -13.1561 48.8086 -12.9956 48.3271C-12.8296 47.8402 -12.7466 47.2453 -12.7466 46.5425V41.8525H-11.0698ZM-2.17969 48.4434C-2.17969 49.0355 -2.32633 49.5363 -2.61963 49.9458C-2.90739 50.3498 -3.32796 50.6541 -3.88135 50.8589C-4.43473 51.0636 -5.0988 51.166 -5.87354 51.166C-6.51546 51.166 -7.06885 51.1162 -7.53369 51.0166C-7.99854 50.9225 -8.41911 50.7842 -8.79541 50.6016V49.124C-8.39144 49.3177 -7.92383 49.4893 -7.39258 49.6387C-6.86133 49.7881 -6.34115 49.8628 -5.83203 49.8628C-5.11816 49.8628 -4.60352 49.7493 -4.28809 49.5225C-3.96712 49.2956 -3.80664 48.9884 -3.80664 48.6011C-3.80664 48.3742 -3.87028 48.175 -3.99756 48.0034C-4.12484 47.8263 -4.34896 47.652 -4.66992 47.4805C-4.98535 47.3034 -5.43913 47.1014 -6.03125 46.8745C-6.6123 46.6476 -7.11035 46.4207 -7.52539 46.1938C-7.9349 45.967 -8.24756 45.693 -8.46338 45.3721C-8.6792 45.0511 -8.78711 44.6361 -8.78711 44.127C-8.78711 43.3356 -8.47168 42.7324 -7.84082 42.3174C-7.20443 41.8968 -6.36605 41.6865 -5.32568 41.6865C-4.7723 41.6865 -4.25212 41.7419 -3.76514 41.8525C-3.27262 41.9632 -2.80225 42.1182 -2.354 42.3174L-2.89355 43.604C-3.29199 43.4325 -3.7015 43.2913 -4.12207 43.1807C-4.54264 43.0645 -4.97152 43.0063 -5.40869 43.0063C-5.97868 43.0063 -6.41585 43.0977 -6.72021 43.2803C-7.01904 43.4629 -7.16846 43.7147 -7.16846 44.0356C-7.16846 44.2847 -7.09928 44.4922 -6.96094 44.6582C-6.81706 44.8242 -6.5791 44.9875 -6.24707 45.1479C-5.91504 45.3029 -5.4668 45.4883 -4.90234 45.7041C-4.34342 45.9144 -3.86198 46.133 -3.45801 46.3599C-3.0485 46.5868 -2.73307 46.8634 -2.51172 47.1899C-2.29036 47.5164 -2.17969 47.9342 -2.17969 48.4434ZM3.17432 49.813C3.41227 49.813 3.65299 49.7936 3.89648 49.7549C4.13997 49.7106 4.35026 49.6553 4.52734 49.5889V50.8672C4.33919 50.9502 4.0874 51.0194 3.77197 51.0747C3.46208 51.1356 3.14388 51.166 2.81738 51.166C2.31934 51.166 1.86833 51.0802 1.46436 50.9087C1.06038 50.7371 0.736654 50.4438 0.493164 50.0288C0.255208 49.6138 0.13623 49.0382 0.13623 48.3022V43.1392H-1.13379V42.3672L0.194336 41.7529L0.783691 39.7773H1.81299V41.8525H4.46094V43.1392H1.81299V48.2773C1.81299 48.792 1.93473 49.1766 2.17822 49.4312C2.42725 49.6857 2.75928 49.813 3.17432 49.813ZM14.3721 46.4097C14.3721 47.1623 14.2725 47.8346 14.0732 48.4268C13.8796 49.0133 13.5946 49.5114 13.2183 49.9209C12.8475 50.3249 12.3993 50.6348 11.8735 50.8506C11.3478 51.0609 10.7529 51.166 10.0889 51.166C9.46908 51.166 8.89909 51.0609 8.37891 50.8506C7.86426 50.6348 7.41878 50.3249 7.04248 49.9209C6.66618 49.5114 6.37565 49.0133 6.1709 48.4268C5.96615 47.8346 5.86377 47.1623 5.86377 46.4097C5.86377 45.408 6.03532 44.5558 6.37842 43.853C6.72152 43.1447 7.21126 42.6079 7.84766 42.2427C8.48958 41.8719 9.25326 41.6865 10.1387 41.6865C10.9798 41.6865 11.7186 41.8719 12.355 42.2427C12.9914 42.6134 13.4867 43.1502 13.8408 43.853C14.195 44.5558 14.3721 45.408 14.3721 46.4097ZM7.57373 46.4097C7.57373 47.1125 7.66227 47.7184 7.83936 48.2275C8.02197 48.7311 8.29867 49.1185 8.66943 49.3896C9.04574 49.6608 9.52995 49.7964 10.1221 49.7964C10.7031 49.7964 11.1818 49.6608 11.5581 49.3896C11.9344 49.1185 12.2111 48.7311 12.3882 48.2275C12.5653 47.7184 12.6538 47.1125 12.6538 46.4097C12.6538 45.7124 12.5653 45.1147 12.3882 44.6167C12.2111 44.1187 11.9344 43.7368 11.5581 43.4712C11.1873 43.2056 10.7031 43.0728 10.1055 43.0728C9.23112 43.0728 8.58919 43.366 8.17969 43.9526C7.77572 44.5337 7.57373 45.3527 7.57373 46.4097ZM26.8232 41.6865C27.8359 41.6865 28.5996 41.9521 29.1143 42.4834C29.6344 43.0091 29.8945 43.853 29.8945 45.0151V51H28.2427V45.2227C28.2427 44.5033 28.0933 43.9637 27.7944 43.604C27.5011 43.2443 27.0612 43.0645 26.4746 43.0645C25.6445 43.0645 25.0441 43.3162 24.6733 43.8198C24.3081 44.3179 24.1255 45.0511 24.1255 46.0195V51H22.4653V45.2227C22.4653 44.7412 22.3989 44.3428 22.2661 44.0273C22.1333 43.7064 21.9368 43.4657 21.6768 43.3052C21.4167 43.1447 21.0874 43.0645 20.689 43.0645C20.119 43.0645 19.6624 43.189 19.3193 43.438C18.9818 43.6815 18.7355 44.0439 18.5806 44.5254C18.4312 45.0068 18.3564 45.5962 18.3564 46.2935V51H16.688V41.8525H18.0078L18.2485 43.1143H18.3398C18.5225 42.7988 18.7521 42.536 19.0288 42.3257C19.311 42.1154 19.6237 41.9577 19.9668 41.8525C20.3099 41.7419 20.6724 41.6865 21.0542 41.6865C21.7404 41.6865 22.3187 41.811 22.7891 42.0601C23.2594 42.3091 23.6053 42.6882 23.8267 43.1973H23.9346C24.2279 42.6826 24.6318 42.3035 25.1465 42.0601C25.6667 41.811 26.2256 41.6865 26.8232 41.6865ZM36.2612 41.6865C37.0581 41.6865 37.7415 41.8581 38.3115 42.2012C38.8815 42.5387 39.3187 43.0174 39.623 43.6372C39.9274 44.257 40.0796 44.9875 40.0796 45.8286V46.7749H33.8706C33.8872 47.7544 34.139 48.507 34.626 49.0327C35.113 49.5529 35.7964 49.813 36.6763 49.813C37.2573 49.813 37.7747 49.7576 38.2285 49.647C38.6823 49.5363 39.1527 49.373 39.6396 49.1572V50.5601C39.1803 50.7703 38.7183 50.9225 38.2534 51.0166C37.7941 51.1162 37.2435 51.166 36.6016 51.166C35.7161 51.166 34.9386 50.9889 34.269 50.6348C33.605 50.2806 33.0876 49.7576 32.7168 49.0659C32.346 48.3687 32.1606 47.5109 32.1606 46.4927C32.1606 45.4855 32.3294 44.625 32.667 43.9111C33.0046 43.1917 33.4805 42.6411 34.0947 42.2593C34.709 41.8774 35.4312 41.6865 36.2612 41.6865ZM36.2529 42.9814C35.5778 42.9814 35.0355 43.2028 34.626 43.6455C34.2165 44.0827 33.9757 44.7108 33.9038 45.5298H38.4028C38.3973 45.0262 38.3171 44.5835 38.1621 44.2017C38.0072 43.8198 37.772 43.521 37.4565 43.3052C37.1466 43.0894 36.7454 42.9814 36.2529 42.9814ZM46.7534 41.6865C46.9194 41.6865 47.0993 41.6976 47.293 41.7197C47.4867 41.7363 47.6527 41.7585 47.791 41.7861L47.6167 43.3384C47.4839 43.3052 47.3289 43.2775 47.1519 43.2554C46.9803 43.2332 46.8198 43.2222 46.6704 43.2222C46.3162 43.2222 45.9787 43.2886 45.6577 43.4214C45.3368 43.5542 45.0545 43.7479 44.811 44.0024C44.5675 44.2515 44.3766 44.5586 44.2383 44.9238C44.0999 45.2835 44.0308 45.6958 44.0308 46.1606V51H42.354V41.8525H43.6987L43.8979 43.5044H43.9727C44.1608 43.1724 44.3877 42.868 44.6533 42.5913C44.9245 42.3146 45.2344 42.096 45.583 41.9355C45.9372 41.7695 46.3273 41.6865 46.7534 41.6865ZM59.1631 44.5254H63.5459V50.5103C62.9095 50.7261 62.2537 50.8893 61.5786 51C60.9035 51.1107 60.1453 51.166 59.3042 51.166C58.0535 51.166 56.9993 50.917 56.1416 50.4189C55.2839 49.9209 54.6309 49.207 54.1826 48.2773C53.7399 47.3477 53.5186 46.2298 53.5186 44.9238C53.5186 43.6676 53.7648 42.5719 54.2573 41.6367C54.7498 40.7015 55.4665 39.9766 56.4072 39.4619C57.348 38.9473 58.4824 38.6899 59.8105 38.6899C60.4746 38.6899 61.111 38.7536 61.7197 38.8809C62.334 39.0081 62.8984 39.1852 63.4131 39.4121L62.7988 40.8481C62.3672 40.6545 61.8885 40.4912 61.3628 40.3584C60.8426 40.2201 60.3031 40.1509 59.7441 40.1509C58.8145 40.1509 58.0148 40.3473 57.3452 40.7402C56.6812 41.1331 56.1693 41.6865 55.8096 42.4004C55.4554 43.1143 55.2783 43.9609 55.2783 44.9404C55.2783 45.8978 55.4277 46.7334 55.7266 47.4473C56.0254 48.1611 56.493 48.7173 57.1294 49.1157C57.7658 49.5142 58.5848 49.7134 59.5864 49.7134C60.09 49.7134 60.5189 49.6857 60.873 49.6304C61.2327 49.575 61.562 49.5086 61.8608 49.4312V46.0112H59.1631V44.5254ZM73.3989 47.7378C73.3989 48.4572 73.2191 49.0742 72.8594 49.5889C72.5052 50.098 72.0044 50.4881 71.3569 50.7593C70.7095 51.0304 69.9403 51.166 69.0493 51.166C68.6011 51.166 68.1722 51.1411 67.7627 51.0913C67.3587 51.047 66.9824 50.9806 66.6338 50.8921C66.2852 50.8035 65.9697 50.6929 65.6875 50.5601V48.9497C66.1468 49.1379 66.6781 49.3149 67.2812 49.481C67.8844 49.6414 68.507 49.7217 69.1489 49.7217C69.7078 49.7217 70.1755 49.647 70.5518 49.4976C70.9336 49.3426 71.2214 49.1268 71.415 48.8501C71.6087 48.5734 71.7056 48.2414 71.7056 47.854C71.7056 47.4666 71.6115 47.1429 71.4233 46.8828C71.2352 46.6172 70.9364 46.3737 70.5269 46.1523C70.1229 45.931 69.5916 45.6958 68.9331 45.4468C68.4738 45.2808 68.056 45.0926 67.6797 44.8823C67.3034 44.6665 66.9769 44.4202 66.7002 44.1436C66.429 43.8669 66.2188 43.5431 66.0693 43.1724C65.9199 42.7961 65.8452 42.3644 65.8452 41.8774C65.8452 41.2078 66.0085 40.6351 66.335 40.1592C66.667 39.6833 67.1291 39.3208 67.7212 39.0718C68.3133 38.8172 68.9995 38.6899 69.7798 38.6899C70.4217 38.6899 71.0194 38.7536 71.5728 38.8809C72.1317 39.0081 72.6629 39.1825 73.1665 39.4038L72.627 40.8149C72.1566 40.6213 71.6834 40.4635 71.2075 40.3418C70.7316 40.2201 70.2391 40.1592 69.73 40.1592C69.2596 40.1592 68.8612 40.2284 68.5347 40.3667C68.2137 40.505 67.9674 40.7015 67.7959 40.9561C67.6299 41.2106 67.5469 41.5122 67.5469 41.8608C67.5469 42.2537 67.6354 42.5802 67.8125 42.8403C67.9896 43.1004 68.269 43.3356 68.6509 43.5459C69.0327 43.7562 69.5308 43.9803 70.145 44.2183C70.8368 44.4839 71.4233 44.7661 71.9048 45.0649C72.3918 45.3638 72.7625 45.7235 73.0171 46.144C73.2716 46.5646 73.3989 47.0959 73.3989 47.7378ZM79.7656 51H78.0557V40.3335H74.3701V38.8643H83.4429V40.3335H79.7656V51ZM85.2939 51V38.8643H86.9956V51H85.2939ZM100.086 51H98.0439L91.7603 41.0557H91.6938C91.7104 41.3545 91.7298 41.6838 91.752 42.0435C91.7741 42.3976 91.7907 42.7712 91.8018 43.1641C91.8184 43.5514 91.8294 43.9443 91.835 44.3428V51H90.2744V38.8643H92.2998L98.5586 48.7588H98.6167C98.6056 48.5153 98.5918 48.2137 98.5752 47.854C98.5586 47.4943 98.542 47.1152 98.5254 46.7168C98.5143 46.3128 98.5088 45.931 98.5088 45.5713V38.8643H100.086V51ZM106.768 47.1567V45.7124H110.968V47.1567H106.768ZM117.65 51V38.8643H119.352V51H117.65ZM126.972 41.6865C128.029 41.6865 128.84 41.9521 129.404 42.4834C129.974 43.0146 130.259 43.8669 130.259 45.04V51H128.607V45.2642C128.607 44.5337 128.447 43.9858 128.126 43.6206C127.805 43.2498 127.312 43.0645 126.648 43.0645C125.702 43.0645 125.038 43.3439 124.656 43.9028C124.28 44.4618 124.092 45.2725 124.092 46.335V51H122.423V41.8525H123.743L123.984 43.1392H124.075C124.269 42.8182 124.515 42.5498 124.814 42.334C125.113 42.1182 125.445 41.9577 125.81 41.8525C126.181 41.7419 126.568 41.6865 126.972 41.6865ZM135.107 51L131.629 41.8525H133.397L135.348 47.3062C135.475 47.6659 135.599 48.0588 135.721 48.4849C135.848 48.911 135.934 49.2624 135.979 49.5391H136.037C136.092 49.2568 136.186 48.9027 136.319 48.4766C136.452 48.0505 136.579 47.6603 136.701 47.3062L138.643 41.8525H140.419L136.933 51H135.107ZM149.841 46.4097C149.841 47.1623 149.741 47.8346 149.542 48.4268C149.348 49.0133 149.063 49.5114 148.687 49.9209C148.316 50.3249 147.868 50.6348 147.342 50.8506C146.817 51.0609 146.222 51.166 145.558 51.166C144.938 51.166 144.368 51.0609 143.848 50.8506C143.333 50.6348 142.888 50.3249 142.511 49.9209C142.135 49.5114 141.844 49.0133 141.64 48.4268C141.435 47.8346 141.333 47.1623 141.333 46.4097C141.333 45.408 141.504 44.5558 141.847 43.853C142.19 43.1447 142.68 42.6079 143.316 42.2427C143.958 41.8719 144.722 41.6865 145.607 41.6865C146.449 41.6865 147.187 41.8719 147.824 42.2427C148.46 42.6134 148.955 43.1502 149.31 43.853C149.664 44.5558 149.841 45.408 149.841 46.4097ZM143.042 46.4097C143.042 47.1125 143.131 47.7184 143.308 48.2275C143.491 48.7311 143.767 49.1185 144.138 49.3896C144.514 49.6608 144.999 49.7964 145.591 49.7964C146.172 49.7964 146.651 49.6608 147.027 49.3896C147.403 49.1185 147.68 48.7311 147.857 48.2275C148.034 47.7184 148.123 47.1125 148.123 46.4097C148.123 45.7124 148.034 45.1147 147.857 44.6167C147.68 44.1187 147.403 43.7368 147.027 43.4712C146.656 43.2056 146.172 43.0728 145.574 43.0728C144.7 43.0728 144.058 43.366 143.648 43.9526C143.244 44.5337 143.042 45.3527 143.042 46.4097ZM151.916 50.0537C151.916 49.6331 152.021 49.3371 152.231 49.1655C152.447 48.9884 152.707 48.8999 153.012 48.8999C153.322 48.8999 153.584 48.9884 153.8 49.1655C154.016 49.3371 154.124 49.6331 154.124 50.0537C154.124 50.4632 154.016 50.762 153.8 50.9502C153.584 51.1383 153.322 51.2324 153.012 51.2324C152.707 51.2324 152.447 51.1383 152.231 50.9502C152.021 50.762 151.916 50.4632 151.916 50.0537ZM156.481 50.0537C156.481 49.6331 156.587 49.3371 156.797 49.1655C157.013 48.9884 157.273 48.8999 157.577 48.8999C157.887 48.8999 158.15 48.9884 158.366 49.1655C158.582 49.3371 158.689 49.6331 158.689 50.0537C158.689 50.4632 158.582 50.762 158.366 50.9502C158.15 51.1383 157.887 51.2324 157.577 51.2324C157.273 51.2324 157.013 51.1383 156.797 50.9502C156.587 50.762 156.481 50.4632 156.481 50.0537ZM161.047 50.0537C161.047 49.6331 161.152 49.3371 161.362 49.1655C161.578 48.9884 161.838 48.8999 162.143 48.8999C162.452 48.8999 162.715 48.9884 162.931 49.1655C163.147 49.3371 163.255 49.6331 163.255 50.0537C163.255 50.4632 163.147 50.762 162.931 50.9502C162.715 51.1383 162.452 51.2324 162.143 51.2324C161.838 51.2324 161.578 51.1383 161.362 50.9502C161.152 50.762 161.047 50.4632 161.047 50.0537Z" fill="black"/>
<g filter="url(#filter0_d_0_1)">
<path d="M-40 -36C-40 -38.2091 -38.2091 -40 -36 -40H504V852H-36C-38.2091 852 -40 850.209 -40 848V-36Z" fill="#F8F8F8"/>
<path d="M-39.5 -36C-39.5 -37.933 -37.933 -39.5 -36 -39.5H503.5V851.5H-36C-37.933 851.5 -39.5 849.933 -39.5 848V-36Z" stroke="black" stroke-opacity="0.12"/>
</g>
<rect width="102" height="43" rx="21.5" fill="#E7E6E6"/>
<path opacity="0.6" d="M47.8066 17.1592C47.1813 17.1592 46.6196 17.2699 46.1216 17.4912C45.6291 17.707 45.2113 18.0252 44.8682 18.4458C44.5251 18.8608 44.2622 19.3617 44.0796 19.9482C43.897 20.5348 43.8057 21.1961 43.8057 21.9321C43.8057 22.9116 43.9495 23.7583 44.2373 24.4722C44.5306 25.186 44.9705 25.7367 45.5571 26.124C46.1437 26.5114 46.8825 26.7051 47.7734 26.7051C48.3047 26.7051 48.811 26.658 49.2925 26.564C49.7795 26.4644 50.2637 26.3371 50.7451 26.1821V27.6431C50.2803 27.8201 49.7988 27.9502 49.3008 28.0332C48.8083 28.1217 48.23 28.166 47.5659 28.166C46.3263 28.166 45.2943 27.9087 44.4697 27.394C43.6507 26.8794 43.0392 26.1572 42.6353 25.2275C42.2313 24.2923 42.0293 23.1911 42.0293 21.9238C42.0293 21.0052 42.1566 20.1668 42.4111 19.4087C42.6657 18.645 43.0392 17.9865 43.5317 17.4331C44.0243 16.8742 44.6274 16.4453 45.3413 16.1465C46.0607 15.8421 46.888 15.6899 47.8232 15.6899C48.432 15.6899 49.0241 15.7563 49.5996 15.8892C50.1807 16.0164 50.7147 16.1963 51.2017 16.4287L50.5708 17.8481C50.1668 17.6655 49.7324 17.505 49.2676 17.3667C48.8083 17.2284 48.3213 17.1592 47.8066 17.1592ZM54.8291 15.084V18.6367C54.8291 18.9189 54.8208 19.1956 54.8042 19.4668C54.7876 19.738 54.7682 19.9648 54.7461 20.1475H54.8457C55.0394 19.8265 55.2773 19.5609 55.5596 19.3506C55.8473 19.1348 56.1711 18.9743 56.5308 18.8691C56.896 18.7585 57.2806 18.7031 57.6846 18.7031C58.3984 18.7031 59.0016 18.8193 59.4941 19.0518C59.9867 19.2842 60.3602 19.6466 60.6147 20.1392C60.8693 20.6261 60.9966 21.2598 60.9966 22.04V28H59.3447V22.2642C59.3447 21.5337 59.1842 20.9858 58.8633 20.6206C58.5423 20.2498 58.0498 20.0645 57.3857 20.0645C56.7549 20.0645 56.2513 20.1917 55.875 20.4463C55.4987 20.6953 55.2303 21.0633 55.0698 21.5503C54.9093 22.0373 54.8291 22.6349 54.8291 23.3433V28H53.1606V15.084H54.8291ZM67.2886 18.6948C68.4175 18.6948 69.2614 18.9466 69.8203 19.4502C70.3792 19.9482 70.6587 20.7368 70.6587 21.8159V28H69.4634L69.1396 26.6719H69.0732C68.8187 27.0039 68.5531 27.2806 68.2764 27.502C67.9997 27.7233 67.6787 27.8893 67.3135 28C66.9538 28.1107 66.5138 28.166 65.9937 28.166C65.4403 28.166 64.9478 28.0664 64.5161 27.8672C64.0845 27.668 63.7441 27.3691 63.4951 26.9707C63.2516 26.5667 63.1299 26.0549 63.1299 25.4351C63.1299 24.5054 63.4868 23.7998 64.2007 23.3184C64.9146 22.8369 65.9964 22.5741 67.4463 22.5298L69.0234 22.4634V21.9487C69.0234 21.2349 68.863 20.7313 68.542 20.438C68.2266 20.1447 67.7839 19.998 67.2139 19.998C66.7435 19.998 66.2925 20.0672 65.8608 20.2056C65.4292 20.3384 65.0142 20.4989 64.6157 20.687L64.0845 19.4751C64.5161 19.2537 65.0059 19.0684 65.5537 18.9189C66.1071 18.7695 66.6854 18.6948 67.2886 18.6948ZM69.0068 23.5591L67.7285 23.6172C66.6715 23.6559 65.9272 23.833 65.4956 24.1484C65.0695 24.4583 64.8564 24.8927 64.8564 25.4517C64.8564 25.9386 65.0031 26.2956 65.2964 26.5225C65.5897 26.7493 65.9771 26.8628 66.4585 26.8628C67.2 26.8628 67.8088 26.6553 68.2847 26.2402C68.7661 25.8197 69.0068 25.1999 69.0068 24.3809V23.5591ZM76.6353 26.813C76.8732 26.813 77.1139 26.7936 77.3574 26.7549C77.6009 26.7106 77.8112 26.6553 77.9883 26.5889V27.8672C77.8001 27.9502 77.5483 28.0194 77.2329 28.0747C76.923 28.1356 76.6048 28.166 76.2783 28.166C75.7803 28.166 75.3293 28.0802 74.9253 27.9087C74.5213 27.7371 74.1976 27.4438 73.9541 27.0288C73.7161 26.6138 73.5972 26.0382 73.5972 25.3022V20.1392H72.3271V19.3672L73.6553 18.7529L74.2446 16.7773H75.2739V18.8525H77.9219V20.1392H75.2739V25.2773C75.2739 25.792 75.3957 26.1766 75.6392 26.4312C75.8882 26.6857 76.2202 26.813 76.6353 26.813ZM85.874 25.4434C85.874 26.0355 85.7274 26.5363 85.4341 26.9458C85.1463 27.3498 84.7257 27.6541 84.1724 27.8589C83.619 28.0636 82.9549 28.166 82.1802 28.166C81.5382 28.166 80.9849 28.1162 80.52 28.0166C80.0552 27.9225 79.6346 27.7842 79.2583 27.6016V26.124C79.6623 26.3177 80.1299 26.4893 80.6611 26.6387C81.1924 26.7881 81.7126 26.8628 82.2217 26.8628C82.9355 26.8628 83.4502 26.7493 83.7656 26.5225C84.0866 26.2956 84.2471 25.9884 84.2471 25.6011C84.2471 25.3742 84.1834 25.175 84.0562 25.0034C83.9289 24.8263 83.7048 24.652 83.3838 24.4805C83.0684 24.3034 82.6146 24.1014 82.0225 23.8745C81.4414 23.6476 80.9434 23.4207 80.5283 23.1938C80.1188 22.967 79.8062 22.693 79.5903 22.3721C79.3745 22.0511 79.2666 21.6361 79.2666 21.127C79.2666 20.3356 79.582 19.7324 80.2129 19.3174C80.8493 18.8968 81.6877 18.6865 82.728 18.6865C83.2814 18.6865 83.8016 18.7419 84.2886 18.8525C84.7811 18.9632 85.2515 19.1182 85.6997 19.3174L85.1602 20.604C84.7617 20.4325 84.3522 20.2913 83.9316 20.1807C83.5111 20.0645 83.0822 20.0063 82.645 20.0063C82.075 20.0063 81.6379 20.0977 81.3335 20.2803C81.0347 20.4629 80.8853 20.7147 80.8853 21.0356C80.8853 21.2847 80.9544 21.4922 81.0928 21.6582C81.2367 21.8242 81.4746 21.9875 81.8066 22.1479C82.1387 22.3029 82.5869 22.4883 83.1514 22.7041C83.7103 22.9144 84.1917 23.133 84.5957 23.3599C85.0052 23.5868 85.3206 23.8634 85.542 24.1899C85.7633 24.5164 85.874 24.9342 85.874 25.4434Z" fill="black"/>
<path d="M33 21C33 25.4183 28.9706 29 24 29C22.4607 29 21.0117 28.6565 19.7447 28.0511L15 29L16.395 25.28C15.5116 24.0423 15 22.5743 15 21C15 16.5817 19.0294 13 24 13C28.9706 13 33 16.5817 33 21Z" stroke="#5C5C5C" stroke-width="1.94" stroke-linecap="round" stroke-linejoin="round"/>
</g>
<defs>
<filter id="filter0_d_0_1" x="-60" y="-52" width="584" height="932" filterUnits="userSpaceOnUse" color-interpolation-filters="sRGB">
<feFlood flood-opacity="0" result="BackgroundImageFix"/>
<feColorMatrix in="SourceAlpha" type="matrix" values="0 0 0 0 0 0 0 0 0 0 0 0 0 0 0 0 0 0 127 0" result="hardAlpha"/>
<feOffset dy="8"/>
<feGaussianBlur stdDeviation="10"/>
<feColorMatrix type="matrix" values="0 0 0 0 0 0 0 0 0 0 0 0 0 0 0 0 0 0 0.15 0"/>
<feBlend mode="normal" in2="BackgroundImageFix" result="effect1_dropShadow_0_1"/>
<feBlend mode="normal" in="SourceGraphic" in2="effect1_dropShadow_0_1" result="shape"/>
</filter>
<clipPath id="clip0_0_1">
<rect width="1920" height="1024" fill="white" transform="translate(-1416 -172)"/>
</clipPath>
</defs>
</svg>
