<svg width="130" height="43" viewBox="0 0 130 43" fill="none" xmlns="http://www.w3.org/2000/svg">
<rect width="130" height="43" fill="#E5E5E5"/>
<g clip-path="url(#clip0_0_1)">
<rect width="1920" height="1024" transform="translate(-1760 -172)" fill="white"/>
<rect x="-1710" y="-40" width="1820" height="50" fill="#F1F1F1"/>
<rect x="-1710" y="20" width="1820" height="50" fill="white"/>
<rect x="-144" y="20" width="260" height="50" fill="white"/>
<path d="M-102.562 51H-104.604L-110.887 41.0557H-110.954C-110.937 41.3545 -110.918 41.6838 -110.896 42.0435C-110.873 42.3976 -110.857 42.7712 -110.846 43.1641C-110.829 43.5514 -110.818 43.9443 -110.812 44.3428V51H-112.373V38.8643H-110.348L-104.089 48.7588H-104.031C-104.042 48.5153 -104.056 48.2137 -104.072 47.854C-104.089 47.4943 -104.105 47.1152 -104.122 46.7168C-104.133 46.3128 -104.139 45.931 -104.139 45.5713V38.8643H-102.562V51ZM-96.0122 41.6948C-94.8833 41.6948 -94.0394 41.9466 -93.4805 42.4502C-92.9215 42.9482 -92.6421 43.7368 -92.6421 44.8159V51H-93.8374L-94.1611 49.6719H-94.2275C-94.4821 50.0039 -94.7477 50.2806 -95.0244 50.502C-95.3011 50.7233 -95.6221 50.8893 -95.9873 51C-96.347 51.1107 -96.7869 51.166 -97.3071 51.166C-97.8605 51.166 -98.353 51.0664 -98.7847 50.8672C-99.2163 50.668 -99.5566 50.3691 -99.8057 49.9707C-100.049 49.5667 -100.171 49.0549 -100.171 48.4351C-100.171 47.5054 -99.814 46.7998 -99.1001 46.3184C-98.3862 45.8369 -97.3044 45.5741 -95.8545 45.5298L-94.2773 45.4634V44.9487C-94.2773 44.2349 -94.4378 43.7313 -94.7588 43.438C-95.0742 43.1447 -95.5169 42.998 -96.0869 42.998C-96.5573 42.998 -97.0083 43.0672 -97.4399 43.2056C-97.8716 43.3384 -98.2866 43.4989 -98.6851 43.687L-99.2163 42.4751C-98.7847 42.2537 -98.2949 42.0684 -97.7471 41.9189C-97.1937 41.7695 -96.6154 41.6948 -96.0122 41.6948ZM-94.2939 46.5591L-95.5723 46.6172C-96.6292 46.6559 -97.3735 46.833 -97.8052 47.1484C-98.2313 47.4583 -98.4443 47.8927 -98.4443 48.4517C-98.4443 48.9386 -98.2977 49.2956 -98.0044 49.5225C-97.7111 49.7493 -97.3237 49.8628 -96.8423 49.8628C-96.1007 49.8628 -95.492 49.6553 -95.0161 49.2402C-94.5347 48.8197 -94.2939 48.1999 -94.2939 47.3809V46.5591ZM-79.7178 41.6865C-78.7051 41.6865 -77.9414 41.9521 -77.4268 42.4834C-76.9066 43.0091 -76.6465 43.853 -76.6465 45.0151V51H-78.2983V45.2227C-78.2983 44.5033 -78.4478 43.9637 -78.7466 43.604C-79.0399 43.2443 -79.4798 43.0645 -80.0664 43.0645C-80.8965 43.0645 -81.4969 43.3162 -81.8677 43.8198C-82.2329 44.3179 -82.4155 45.0511 -82.4155 46.0195V51H-84.0757V45.2227C-84.0757 44.7412 -84.1421 44.3428 -84.2749 44.0273C-84.4077 43.7064 -84.6042 43.4657 -84.8643 43.3052C-85.1243 43.1447 -85.4536 43.0645 -85.8521 43.0645C-86.422 43.0645 -86.8786 43.189 -87.2217 43.438C-87.5592 43.6815 -87.8055 44.0439 -87.9604 44.5254C-88.1099 45.0068 -88.1846 45.5962 -88.1846 46.2935V51H-89.853V41.8525H-88.5332L-88.2925 43.1143H-88.2012C-88.0186 42.7988 -87.7889 42.536 -87.5122 42.3257C-87.23 42.1154 -86.9173 41.9577 -86.5742 41.8525C-86.2311 41.7419 -85.8687 41.6865 -85.4868 41.6865C-84.8006 41.6865 -84.2223 41.811 -83.752 42.0601C-83.2816 42.3091 -82.9357 42.6882 -82.7144 43.1973H-82.6064C-82.3132 42.6826 -81.9092 42.3035 -81.3945 42.0601C-80.8743 41.811 -80.3154 41.6865 -79.7178 41.6865ZM-70.2798 41.6865C-69.4829 41.6865 -68.7995 41.8581 -68.2295 42.2012C-67.6595 42.5387 -67.2223 43.0174 -66.918 43.6372C-66.6136 44.257 -66.4614 44.9875 -66.4614 45.8286V46.7749H-72.6704C-72.6538 47.7544 -72.402 48.507 -71.915 49.0327C-71.4281 49.5529 -70.7446 49.813 -69.8647 49.813C-69.2837 49.813 -68.7663 49.7576 -68.3125 49.647C-67.8587 49.5363 -67.3883 49.373 -66.9014 49.1572V50.5601C-67.3607 50.7703 -67.8228 50.9225 -68.2876 51.0166C-68.7469 51.1162 -69.2975 51.166 -69.9395 51.166C-70.8249 51.166 -71.6024 50.9889 -72.272 50.6348C-72.936 50.2806 -73.4535 49.7576 -73.8242 49.0659C-74.195 48.3687 -74.3804 47.5109 -74.3804 46.4927C-74.3804 45.4855 -74.2116 44.625 -73.874 43.9111C-73.5365 43.1917 -73.0605 42.6411 -72.4463 42.2593C-71.832 41.8774 -71.1099 41.6865 -70.2798 41.6865ZM-70.2881 42.9814C-70.9632 42.9814 -71.5055 43.2028 -71.915 43.6455C-72.3245 44.0827 -72.5653 44.7108 -72.6372 45.5298H-68.1382C-68.1437 45.0262 -68.224 44.5835 -68.3789 44.2017C-68.5339 43.8198 -68.769 43.521 -69.0845 43.3052C-69.3944 43.0894 -69.7956 42.9814 -70.2881 42.9814ZM-51.9932 51L-53.3379 47.3892H-58.0942L-59.4224 51H-61.1904L-56.5586 38.8145H-54.8154L-50.2085 51H-51.9932ZM-53.811 45.9116L-55.0894 42.334C-55.1281 42.2122 -55.189 42.0296 -55.272 41.7861C-55.3494 41.5426 -55.4297 41.2909 -55.5127 41.0308C-55.5902 40.7707 -55.6538 40.5549 -55.7036 40.3833C-55.759 40.6102 -55.8226 40.8509 -55.8945 41.1055C-55.9665 41.3545 -56.0384 41.5897 -56.1104 41.811C-56.1768 42.0269 -56.2321 42.2012 -56.2764 42.334L-57.5713 45.9116H-53.811ZM-42.7295 48.4434C-42.7295 49.0355 -42.8761 49.5363 -43.1694 49.9458C-43.4572 50.3498 -43.8778 50.6541 -44.4312 50.8589C-44.9845 51.0636 -45.6486 51.166 -46.4233 51.166C-47.0653 51.166 -47.6187 51.1162 -48.0835 51.0166C-48.5483 50.9225 -48.9689 50.7842 -49.3452 50.6016V49.124C-48.9412 49.3177 -48.4736 49.4893 -47.9424 49.6387C-47.4111 49.7881 -46.891 49.8628 -46.3818 49.8628C-45.668 49.8628 -45.1533 49.7493 -44.8379 49.5225C-44.5169 49.2956 -44.3564 48.9884 -44.3564 48.6011C-44.3564 48.3742 -44.4201 48.175 -44.5474 48.0034C-44.6746 47.8263 -44.8988 47.652 -45.2197 47.4805C-45.5352 47.3034 -45.9889 47.1014 -46.5811 46.8745C-47.1621 46.6476 -47.6602 46.4207 -48.0752 46.1938C-48.4847 45.967 -48.7974 45.693 -49.0132 45.3721C-49.229 45.0511 -49.3369 44.6361 -49.3369 44.127C-49.3369 43.3356 -49.0215 42.7324 -48.3906 42.3174C-47.7542 41.8968 -46.9159 41.6865 -45.8755 41.6865C-45.3221 41.6865 -44.8019 41.7419 -44.3149 41.8525C-43.8224 41.9632 -43.3521 42.1182 -42.9038 42.3174L-43.4434 43.604C-43.8418 43.4325 -44.2513 43.2913 -44.6719 43.1807C-45.0924 43.0645 -45.5213 43.0063 -45.9585 43.0063C-46.5285 43.0063 -46.9657 43.0977 -47.27 43.2803C-47.5688 43.4629 -47.7183 43.7147 -47.7183 44.0356C-47.7183 44.2847 -47.6491 44.4922 -47.5107 44.6582C-47.3669 44.8242 -47.1289 44.9875 -46.7969 45.1479C-46.4648 45.3029 -46.0166 45.4883 -45.4521 45.7041C-44.8932 45.9144 -44.4118 46.133 -44.0078 46.3599C-43.5983 46.5868 -43.2829 46.8634 -43.0615 47.1899C-42.8402 47.5164 -42.7295 47.9342 -42.7295 48.4434ZM-32.5942 38.8643C-31.0282 38.8643 -29.8854 39.1769 -29.166 39.8022C-28.4411 40.4276 -28.0786 41.3158 -28.0786 42.4668C-28.0786 42.987 -28.1616 43.4823 -28.3276 43.9526C-28.4937 44.4175 -28.7648 44.8298 -29.1411 45.1895C-29.5119 45.5436 -30.0016 45.8258 -30.6104 46.0361C-31.2191 46.2409 -31.9661 46.3433 -32.8516 46.3433H-34.2378V51H-35.9395V38.8643H-32.5942ZM-32.7271 40.292H-34.2378V44.9072H-33.0342C-32.3314 44.9072 -31.742 44.8298 -31.2661 44.6748C-30.7902 44.5143 -30.4305 44.2598 -30.187 43.9111C-29.9435 43.5625 -29.8218 43.1032 -29.8218 42.5332C-29.8218 41.7806 -30.057 41.2189 -30.5273 40.8481C-30.9977 40.4774 -31.731 40.292 -32.7271 40.292ZM-22.2183 41.6865C-21.4214 41.6865 -20.738 41.8581 -20.168 42.2012C-19.598 42.5387 -19.1608 43.0174 -18.8564 43.6372C-18.5521 44.257 -18.3999 44.9875 -18.3999 45.8286V46.7749H-24.6089C-24.5923 47.7544 -24.3405 48.507 -23.8535 49.0327C-23.3665 49.5529 -22.6831 49.813 -21.8032 49.813C-21.2222 49.813 -20.7048 49.7576 -20.251 49.647C-19.7972 49.5363 -19.3268 49.373 -18.8398 49.1572V50.5601C-19.2992 50.7703 -19.7612 50.9225 -20.2261 51.0166C-20.6854 51.1162 -21.236 51.166 -21.8779 51.166C-22.7633 51.166 -23.5409 50.9889 -24.2104 50.6348C-24.8745 50.2806 -25.3919 49.7576 -25.7627 49.0659C-26.1335 48.3687 -26.3188 47.5109 -26.3188 46.4927C-26.3188 45.4855 -26.1501 44.625 -25.8125 43.9111C-25.4749 43.1917 -24.999 42.6411 -24.3848 42.2593C-23.7705 41.8774 -23.0483 41.6865 -22.2183 41.6865ZM-22.2266 42.9814C-22.9017 42.9814 -23.444 43.2028 -23.8535 43.6455C-24.263 44.0827 -24.5037 44.7108 -24.5757 45.5298H-20.0767C-20.0822 45.0262 -20.1624 44.5835 -20.3174 44.2017C-20.4723 43.8198 -20.7075 43.521 -21.0229 43.3052C-21.3328 43.0894 -21.734 42.9814 -22.2266 42.9814ZM-11.7261 41.6865C-11.5601 41.6865 -11.3802 41.6976 -11.1865 41.7197C-10.9928 41.7363 -10.8268 41.7585 -10.6885 41.7861L-10.8628 43.3384C-10.9956 43.3052 -11.1506 43.2775 -11.3276 43.2554C-11.4992 43.2332 -11.6597 43.2222 -11.8091 43.2222C-12.1632 43.2222 -12.5008 43.2886 -12.8218 43.4214C-13.1427 43.5542 -13.425 43.7479 -13.6685 44.0024C-13.9119 44.2515 -14.1029 44.5586 -14.2412 44.9238C-14.3796 45.2835 -14.4487 45.6958 -14.4487 46.1606V51H-16.1255V41.8525H-14.7808L-14.5815 43.5044H-14.5068C-14.3187 43.1724 -14.0918 42.868 -13.8262 42.5913C-13.555 42.3146 -13.2451 42.096 -12.8965 41.9355C-12.5423 41.7695 -12.1522 41.6865 -11.7261 41.6865ZM0.683594 44.5254H5.06641V50.5103C4.43001 50.7261 3.77425 50.8893 3.09912 51C2.42399 51.1107 1.66585 51.166 0.824707 51.166C-0.425944 51.166 -1.48014 50.917 -2.33789 50.4189C-3.19564 49.9209 -3.84863 49.207 -4.29688 48.2773C-4.73958 47.3477 -4.96094 46.2298 -4.96094 44.9238C-4.96094 43.6676 -4.71468 42.5719 -4.22217 41.6367C-3.72965 40.7015 -3.01302 39.9766 -2.07227 39.4619C-1.13151 38.9473 0.00292969 38.6899 1.33105 38.6899C1.99512 38.6899 2.63151 38.7536 3.24023 38.8809C3.85449 39.0081 4.41895 39.1852 4.93359 39.4121L4.31934 40.8481C3.8877 40.6545 3.40902 40.4912 2.8833 40.3584C2.36312 40.2201 1.82357 40.1509 1.26465 40.1509C0.334961 40.1509 -0.464681 40.3473 -1.13428 40.7402C-1.79834 41.1331 -2.31022 41.6865 -2.66992 42.4004C-3.02409 43.1143 -3.20117 43.9609 -3.20117 44.9404C-3.20117 45.8978 -3.05176 46.7334 -2.75293 47.4473C-2.4541 48.1611 -1.98649 48.7173 -1.3501 49.1157C-0.713704 49.5142 0.105306 49.7134 1.10693 49.7134C1.61051 49.7134 2.03939 49.6857 2.39355 49.6304C2.75326 49.575 3.08252 49.5086 3.38135 49.4312V46.0112H0.683594V44.5254ZM14.9194 47.7378C14.9194 48.4572 14.7396 49.0742 14.3799 49.5889C14.0257 50.098 13.5249 50.4881 12.8774 50.7593C12.23 51.0304 11.4608 51.166 10.5698 51.166C10.1216 51.166 9.69271 51.1411 9.2832 51.0913C8.87923 51.047 8.50293 50.9806 8.1543 50.8921C7.80566 50.8035 7.49023 50.6929 7.20801 50.5601V48.9497C7.66732 49.1379 8.19857 49.3149 8.80176 49.481C9.40495 49.6414 10.0275 49.7217 10.6694 49.7217C11.2284 49.7217 11.696 49.647 12.0723 49.4976C12.4541 49.3426 12.7419 49.1268 12.9355 48.8501C13.1292 48.5734 13.2261 48.2414 13.2261 47.854C13.2261 47.4666 13.132 47.1429 12.9438 46.8828C12.7557 46.6172 12.4569 46.3737 12.0474 46.1523C11.6434 45.931 11.1121 45.6958 10.4536 45.4468C9.9943 45.2808 9.5765 45.0926 9.2002 44.8823C8.82389 44.6665 8.4974 44.4202 8.2207 44.1436C7.94954 43.8669 7.73926 43.5431 7.58984 43.1724C7.44043 42.7961 7.36572 42.3644 7.36572 41.8774C7.36572 41.2078 7.52897 40.6351 7.85547 40.1592C8.1875 39.6833 8.64958 39.3208 9.2417 39.0718C9.83382 38.8172 10.52 38.6899 11.3003 38.6899C11.9422 38.6899 12.5399 38.7536 13.0933 38.8809C13.6522 39.0081 14.1834 39.1825 14.687 39.4038L14.1475 40.8149C13.6771 40.6213 13.2039 40.4635 12.728 40.3418C12.2521 40.2201 11.7596 40.1592 11.2505 40.1592C10.7801 40.1592 10.3817 40.2284 10.0552 40.3667C9.73421 40.505 9.48796 40.7015 9.31641 40.9561C9.15039 41.2106 9.06738 41.5122 9.06738 41.8608C9.06738 42.2537 9.15592 42.5802 9.33301 42.8403C9.51009 43.1004 9.78955 43.3356 10.1714 43.5459C10.5532 43.7562 11.0513 43.9803 11.6655 44.2183C12.3573 44.4839 12.9438 44.7661 13.4253 45.0649C13.9123 45.3638 14.283 45.7235 14.5376 46.144C14.7922 46.5646 14.9194 47.0959 14.9194 47.7378ZM21.2861 51H19.5762V40.3335H15.8906V38.8643H24.9634V40.3335H21.2861V51ZM34.5757 38.8643C36.1418 38.8643 37.2845 39.1769 38.0039 39.8022C38.7288 40.4276 39.0913 41.3158 39.0913 42.4668C39.0913 42.987 39.0083 43.4823 38.8423 43.9526C38.6763 44.4175 38.4051 44.8298 38.0288 45.1895C37.658 45.5436 37.1683 45.8258 36.5596 46.0361C35.9508 46.2409 35.2038 46.3433 34.3184 46.3433H32.9321V51H31.2305V38.8643H34.5757ZM34.4429 40.292H32.9321V44.9072H34.1357C34.8385 44.9072 35.4279 44.8298 35.9038 44.6748C36.3797 44.5143 36.7394 44.2598 36.9829 43.9111C37.2264 43.5625 37.3481 43.1032 37.3481 42.5332C37.3481 41.7806 37.113 41.2189 36.6426 40.8481C36.1722 40.4774 35.439 40.292 34.4429 40.292ZM49.3594 46.4097C49.3594 47.1623 49.2598 47.8346 49.0605 48.4268C48.8669 49.0133 48.5819 49.5114 48.2056 49.9209C47.8348 50.3249 47.3866 50.6348 46.8608 50.8506C46.3351 51.0609 45.7402 51.166 45.0762 51.166C44.4564 51.166 43.8864 51.0609 43.3662 50.8506C42.8516 50.6348 42.4061 50.3249 42.0298 49.9209C41.6535 49.5114 41.363 49.0133 41.1582 48.4268C40.9535 47.8346 40.8511 47.1623 40.8511 46.4097C40.8511 45.408 41.0226 44.5558 41.3657 43.853C41.7088 43.1447 42.1986 42.6079 42.835 42.2427C43.4769 41.8719 44.2406 41.6865 45.126 41.6865C45.9671 41.6865 46.7059 41.8719 47.3423 42.2427C47.9787 42.6134 48.474 43.1502 48.8281 43.853C49.1823 44.5558 49.3594 45.408 49.3594 46.4097ZM42.561 46.4097C42.561 47.1125 42.6496 47.7184 42.8267 48.2275C43.0093 48.7311 43.286 49.1185 43.6567 49.3896C44.033 49.6608 44.5173 49.7964 45.1094 49.7964C45.6904 49.7964 46.1691 49.6608 46.5454 49.3896C46.9217 49.1185 47.1984 48.7311 47.3755 48.2275C47.5526 47.7184 47.6411 47.1125 47.6411 46.4097C47.6411 45.7124 47.5526 45.1147 47.3755 44.6167C47.1984 44.1187 46.9217 43.7368 46.5454 43.4712C46.1746 43.2056 45.6904 43.0728 45.0928 43.0728C44.2184 43.0728 43.5765 43.366 43.167 43.9526C42.763 44.5337 42.561 45.3527 42.561 46.4097ZM56.0747 41.6865C56.2407 41.6865 56.4206 41.6976 56.6143 41.7197C56.8079 41.7363 56.974 41.7585 57.1123 41.7861L56.938 43.3384C56.8052 43.3052 56.6502 43.2775 56.4731 43.2554C56.3016 43.2332 56.1411 43.2222 55.9917 43.2222C55.6375 43.2222 55.3 43.2886 54.979 43.4214C54.658 43.5542 54.3758 43.7479 54.1323 44.0024C53.8888 44.2515 53.6979 44.5586 53.5596 44.9238C53.4212 45.2835 53.3521 45.6958 53.3521 46.1606V51H51.6753V41.8525H53.02L53.2192 43.5044H53.2939C53.4821 43.1724 53.709 42.868 53.9746 42.5913C54.2458 42.3146 54.5557 42.096 54.9043 41.9355C55.2585 41.7695 55.6486 41.6865 56.0747 41.6865ZM62.0015 49.813C62.2394 49.813 62.4801 49.7936 62.7236 49.7549C62.9671 49.7106 63.1774 49.6553 63.3545 49.5889V50.8672C63.1663 50.9502 62.9146 51.0194 62.5991 51.0747C62.2892 51.1356 61.971 51.166 61.6445 51.166C61.1465 51.166 60.6955 51.0802 60.2915 50.9087C59.8875 50.7371 59.5638 50.4438 59.3203 50.0288C59.0824 49.6138 58.9634 49.0382 58.9634 48.3022V43.1392H57.6934V42.3672L59.0215 41.7529L59.6108 39.7773H60.6401V41.8525H63.2881V43.1392H60.6401V48.2773C60.6401 48.792 60.7619 49.1766 61.0054 49.4312C61.2544 49.6857 61.5864 49.813 62.0015 49.813ZM64.9648 50.0537C64.9648 49.6331 65.07 49.3371 65.2803 49.1655C65.4961 48.9884 65.7562 48.8999 66.0605 48.8999C66.3704 48.8999 66.6333 48.9884 66.8491 49.1655C67.0649 49.3371 67.1729 49.6331 67.1729 50.0537C67.1729 50.4632 67.0649 50.762 66.8491 50.9502C66.6333 51.1383 66.3704 51.2324 66.0605 51.2324C65.7562 51.2324 65.4961 51.1383 65.2803 50.9502C65.07 50.762 64.9648 50.4632 64.9648 50.0537ZM69.5303 50.0537C69.5303 49.6331 69.6354 49.3371 69.8457 49.1655C70.0615 48.9884 70.3216 48.8999 70.626 48.8999C70.9359 48.8999 71.1987 48.9884 71.4146 49.1655C71.6304 49.3371 71.7383 49.6331 71.7383 50.0537C71.7383 50.4632 71.6304 50.762 71.4146 50.9502C71.1987 51.1383 70.9359 51.2324 70.626 51.2324C70.3216 51.2324 70.0615 51.1383 69.8457 50.9502C69.6354 50.762 69.5303 50.4632 69.5303 50.0537ZM74.0957 50.0537C74.0957 49.6331 74.2008 49.3371 74.4111 49.1655C74.627 48.9884 74.887 48.8999 75.1914 48.8999C75.5013 48.8999 75.7642 48.9884 75.98 49.1655C76.1958 49.3371 76.3037 49.6331 76.3037 50.0537C76.3037 50.4632 76.1958 50.762 75.98 50.9502C75.7642 51.1383 75.5013 51.2324 75.1914 51.2324C74.887 51.2324 74.627 51.1383 74.4111 50.9502C74.2008 50.762 74.0957 50.4632 74.0957 50.0537Z" fill="black"/>
<line x1="116.5" y1="32" x2="116.5" y2="58" stroke="black" stroke-opacity="0.3"/>
<g filter="url(#filter0_d_0_1)">
<path d="M-384 -36C-384 -38.2091 -382.209 -40 -380 -40H160V852H-380C-382.209 852 -384 850.209 -384 848V-36Z" fill="#F8F8F8"/>
<path d="M-380 -39.5H159.5V851.5H-380C-381.933 851.5 -383.5 849.933 -383.5 848V-36C-383.5 -37.933 -381.933 -39.5 -380 -39.5Z" stroke="black" stroke-opacity="0.12"/>
</g>
<rect width="130" height="43" rx="21.5" fill="#F8F8F8"/>
<rect x="0.5" y="0.5" width="129" height="42" rx="21" stroke="black" stroke-opacity="0.2"/>
<path opacity="0.6" d="M49.8066 17.1592C49.1813 17.1592 48.6196 17.2699 48.1216 17.4912C47.6291 17.707 47.2113 18.0252 46.8682 18.4458C46.5251 18.8608 46.2622 19.3617 46.0796 19.9482C45.897 20.5348 45.8057 21.1961 45.8057 21.9321C45.8057 22.9116 45.9495 23.7583 46.2373 24.4722C46.5306 25.186 46.9705 25.7367 47.5571 26.124C48.1437 26.5114 48.8825 26.7051 49.7734 26.7051C50.3047 26.7051 50.811 26.658 51.2925 26.564C51.7795 26.4644 52.2637 26.3371 52.7451 26.1821V27.6431C52.2803 27.8201 51.7988 27.9502 51.3008 28.0332C50.8083 28.1217 50.23 28.166 49.5659 28.166C48.3263 28.166 47.2943 27.9087 46.4697 27.394C45.6507 26.8794 45.0392 26.1572 44.6353 25.2275C44.2313 24.2923 44.0293 23.1911 44.0293 21.9238C44.0293 21.0052 44.1566 20.1668 44.4111 19.4087C44.6657 18.645 45.0392 17.9865 45.5317 17.4331C46.0243 16.8742 46.6274 16.4453 47.3413 16.1465C48.0607 15.8421 48.888 15.6899 49.8232 15.6899C50.432 15.6899 51.0241 15.7563 51.5996 15.8892C52.1807 16.0164 52.7147 16.1963 53.2017 16.4287L52.5708 17.8481C52.1668 17.6655 51.7324 17.505 51.2676 17.3667C50.8083 17.2284 50.3213 17.1592 49.8066 17.1592ZM63.1543 23.4097C63.1543 24.1623 63.0547 24.8346 62.8555 25.4268C62.6618 26.0133 62.3768 26.5114 62.0005 26.9209C61.6297 27.3249 61.1815 27.6348 60.6558 27.8506C60.13 28.0609 59.5352 28.166 58.8711 28.166C58.2513 28.166 57.6813 28.0609 57.1611 27.8506C56.6465 27.6348 56.201 27.3249 55.8247 26.9209C55.4484 26.5114 55.1579 26.0133 54.9531 25.4268C54.7484 24.8346 54.646 24.1623 54.646 23.4097C54.646 22.408 54.8175 21.5558 55.1606 20.853C55.5037 20.1447 55.9935 19.6079 56.6299 19.2427C57.2718 18.8719 58.0355 18.6865 58.9209 18.6865C59.762 18.6865 60.5008 18.8719 61.1372 19.2427C61.7736 19.6134 62.2689 20.1502 62.623 20.853C62.9772 21.5558 63.1543 22.408 63.1543 23.4097ZM56.356 23.4097C56.356 24.1125 56.4445 24.7184 56.6216 25.2275C56.8042 25.7311 57.0809 26.1185 57.4517 26.3896C57.828 26.6608 58.3122 26.7964 58.9043 26.7964C59.4854 26.7964 59.964 26.6608 60.3403 26.3896C60.7166 26.1185 60.9933 25.7311 61.1704 25.2275C61.3475 24.7184 61.436 24.1125 61.436 23.4097C61.436 22.7124 61.3475 22.1147 61.1704 21.6167C60.9933 21.1187 60.7166 20.7368 60.3403 20.4712C59.9696 20.2056 59.4854 20.0728 58.8877 20.0728C58.0133 20.0728 57.3714 20.366 56.9619 20.9526C56.5579 21.5337 56.356 22.3527 56.356 23.4097ZM67.147 28H65.4702V15.084H67.147V28ZM77.7554 18.8525V28H76.4189L76.1865 26.7466H76.0952C75.9071 27.062 75.6636 27.3249 75.3647 27.5352C75.0659 27.7454 74.7311 27.9032 74.3604 28.0083C73.9896 28.1134 73.5967 28.166 73.1816 28.166C72.4788 28.166 71.8812 28.0498 71.3887 27.8174C70.9017 27.585 70.5309 27.2253 70.2764 26.7383C70.0273 26.2458 69.9028 25.6121 69.9028 24.8374V18.8525H71.5796V24.605C71.5796 25.341 71.7373 25.8916 72.0527 26.2568C72.3737 26.6221 72.8607 26.8047 73.5137 26.8047C74.1501 26.8047 74.6536 26.6802 75.0244 26.4312C75.4007 26.1766 75.6691 25.8086 75.8296 25.3271C75.9956 24.8402 76.0786 24.2453 76.0786 23.5425V18.8525H77.7554ZM90.7461 18.6865C91.7588 18.6865 92.5225 18.9521 93.0371 19.4834C93.5573 20.0091 93.8174 20.853 93.8174 22.0151V28H92.1655V22.2227C92.1655 21.5033 92.0161 20.9637 91.7173 20.604C91.424 20.2443 90.984 20.0645 90.3975 20.0645C89.5674 20.0645 88.967 20.3162 88.5962 20.8198C88.231 21.3179 88.0483 22.0511 88.0483 23.0195V28H86.3882V22.2227C86.3882 21.7412 86.3218 21.3428 86.189 21.0273C86.0562 20.7064 85.8597 20.4657 85.5996 20.3052C85.3395 20.1447 85.0103 20.0645 84.6118 20.0645C84.0418 20.0645 83.5853 20.189 83.2422 20.438C82.9046 20.6815 82.6584 21.0439 82.5034 21.5254C82.354 22.0068 82.2793 22.5962 82.2793 23.2935V28H80.6108V18.8525H81.9307L82.1714 20.1143H82.2627C82.4453 19.7988 82.675 19.536 82.9517 19.3257C83.2339 19.1154 83.5465 18.9577 83.8896 18.8525C84.2327 18.7419 84.5952 18.6865 84.9771 18.6865C85.6632 18.6865 86.2415 18.811 86.7119 19.0601C87.1823 19.3091 87.5282 19.6882 87.7495 20.1973H87.8574C88.1507 19.6826 88.5547 19.3035 89.0693 19.0601C89.5895 18.811 90.1484 18.6865 90.7461 18.6865ZM101.147 18.6865C102.204 18.6865 103.015 18.9521 103.579 19.4834C104.149 20.0146 104.434 20.8669 104.434 22.04V28H102.782V22.2642C102.782 21.5337 102.622 20.9858 102.301 20.6206C101.98 20.2498 101.487 20.0645 100.823 20.0645C99.877 20.0645 99.2129 20.3439 98.8311 20.9028C98.4548 21.4618 98.2666 22.2725 98.2666 23.335V28H96.5981V18.8525H97.918L98.1587 20.1392H98.25C98.4437 19.8182 98.6899 19.5498 98.9888 19.334C99.2876 19.1182 99.6196 18.9577 99.9849 18.8525C100.356 18.7419 100.743 18.6865 101.147 18.6865ZM113.258 25.4434C113.258 26.0355 113.111 26.5363 112.818 26.9458C112.53 27.3498 112.11 27.6541 111.556 27.8589C111.003 28.0636 110.339 28.166 109.564 28.166C108.922 28.166 108.369 28.1162 107.904 28.0166C107.439 27.9225 107.018 27.7842 106.642 27.6016V26.124C107.046 26.3177 107.514 26.4893 108.045 26.6387C108.576 26.7881 109.096 26.8628 109.605 26.8628C110.319 26.8628 110.834 26.7493 111.149 26.5225C111.47 26.2956 111.631 25.9884 111.631 25.6011C111.631 25.3742 111.567 25.175 111.44 25.0034C111.313 24.8263 111.089 24.652 110.768 24.4805C110.452 24.3034 109.998 24.1014 109.406 23.8745C108.825 23.6476 108.327 23.4207 107.912 23.1938C107.503 22.967 107.19 22.693 106.974 22.3721C106.758 22.0511 106.65 21.6361 106.65 21.127C106.65 20.3356 106.966 19.7324 107.597 19.3174C108.233 18.8968 109.071 18.6865 110.112 18.6865C110.665 18.6865 111.185 18.7419 111.672 18.8525C112.165 18.9632 112.635 19.1182 113.083 19.3174L112.544 20.604C112.146 20.4325 111.736 20.2913 111.315 20.1807C110.895 20.0645 110.466 20.0063 110.029 20.0063C109.459 20.0063 109.022 20.0977 108.717 20.2803C108.418 20.4629 108.269 20.7147 108.269 21.0356C108.269 21.2847 108.338 21.4922 108.477 21.6582C108.62 21.8242 108.858 21.9875 109.19 22.1479C109.522 22.3029 109.971 22.4883 110.535 22.7041C111.094 22.9144 111.576 23.133 111.979 23.3599C112.389 23.5868 112.704 23.8634 112.926 24.1899C113.147 24.5164 113.258 24.9342 113.258 25.4434Z" fill="black"/>
<path d="M27 16H23V28H27V16ZM29 16V28H33V16H29ZM21 16H17V28H21V16ZM15 14H35V30H15V14Z" fill="#5C5C5C"/>
</g>
<defs>
<filter id="filter0_d_0_1" x="-404" y="-52" width="584" height="932" filterUnits="userSpaceOnUse" color-interpolation-filters="sRGB">
<feFlood flood-opacity="0" result="BackgroundImageFix"/>
<feColorMatrix in="SourceAlpha" type="matrix" values="0 0 0 0 0 0 0 0 0 0 0 0 0 0 0 0 0 0 127 0" result="hardAlpha"/>
<feOffset dy="8"/>
<feGaussianBlur stdDeviation="10"/>
<feColorMatrix type="matrix" values="0 0 0 0 0 0 0 0 0 0 0 0 0 0 0 0 0 0 0.15 0"/>
<feBlend mode="normal" in2="BackgroundImageFix" result="effect1_dropShadow_0_1"/>
<feBlend mode="normal" in="SourceGraphic" in2="effect1_dropShadow_0_1" result="shape"/>
</filter>
<clipPath id="clip0_0_1">
<rect width="1920" height="1024" fill="white" transform="translate(-1760 -172)"/>
</clipPath>
</defs>
</svg>
