<svg width="106" height="43" viewBox="0 0 106 43" fill="none" xmlns="http://www.w3.org/2000/svg">
<rect width="106" height="43" fill="#E5E5E5"/>
<g clip-path="url(#clip0_0_1)">
<rect width="1920" height="1024" transform="translate(-1644 -172)" fill="white"/>
<rect x="-1594" y="-40" width="1820" height="50" fill="#F1F1F1"/>
<rect x="-1594" y="20" width="1820" height="50" fill="white"/>
<rect x="-28" y="20" width="260" height="50" fill="white"/>
<path d="M13.4385 51H11.3965L5.11279 41.0557H5.04639C5.06299 41.3545 5.08236 41.6838 5.10449 42.0435C5.12663 42.3976 5.14323 42.7712 5.1543 43.1641C5.1709 43.5514 5.18197 43.9443 5.1875 44.3428V51H3.62695V38.8643H5.65234L11.9111 48.7588H11.9692C11.9582 48.5153 11.9443 48.2137 11.9277 47.854C11.9111 47.4943 11.8945 47.1152 11.8779 46.7168C11.8669 46.3128 11.8613 45.931 11.8613 45.5713V38.8643H13.4385V51ZM19.9878 41.6948C21.1167 41.6948 21.9606 41.9466 22.5195 42.4502C23.0785 42.9482 23.3579 43.7368 23.3579 44.8159V51H22.1626L21.8389 49.6719H21.7725C21.5179 50.0039 21.2523 50.2806 20.9756 50.502C20.6989 50.7233 20.3779 50.8893 20.0127 51C19.653 51.1107 19.2131 51.166 18.6929 51.166C18.1395 51.166 17.647 51.0664 17.2153 50.8672C16.7837 50.668 16.4434 50.3691 16.1943 49.9707C15.9508 49.5667 15.8291 49.0549 15.8291 48.4351C15.8291 47.5054 16.186 46.7998 16.8999 46.3184C17.6138 45.8369 18.6956 45.5741 20.1455 45.5298L21.7227 45.4634V44.9487C21.7227 44.2349 21.5622 43.7313 21.2412 43.438C20.9258 43.1447 20.4831 42.998 19.9131 42.998C19.4427 42.998 18.9917 43.0672 18.5601 43.2056C18.1284 43.3384 17.7134 43.4989 17.3149 43.687L16.7837 42.4751C17.2153 42.2537 17.7051 42.0684 18.2529 41.9189C18.8063 41.7695 19.3846 41.6948 19.9878 41.6948ZM21.7061 46.5591L20.4277 46.6172C19.3708 46.6559 18.6265 46.833 18.1948 47.1484C17.7687 47.4583 17.5557 47.8927 17.5557 48.4517C17.5557 48.9386 17.7023 49.2956 17.9956 49.5225C18.2889 49.7493 18.6763 49.8628 19.1577 49.8628C19.8993 49.8628 20.508 49.6553 20.9839 49.2402C21.4653 48.8197 21.7061 48.1999 21.7061 47.3809V46.5591ZM36.2822 41.6865C37.2949 41.6865 38.0586 41.9521 38.5732 42.4834C39.0934 43.0091 39.3535 43.853 39.3535 45.0151V51H37.7017V45.2227C37.7017 44.5033 37.5522 43.9637 37.2534 43.604C36.9601 43.2443 36.5202 43.0645 35.9336 43.0645C35.1035 43.0645 34.5031 43.3162 34.1323 43.8198C33.7671 44.3179 33.5845 45.0511 33.5845 46.0195V51H31.9243V45.2227C31.9243 44.7412 31.8579 44.3428 31.7251 44.0273C31.5923 43.7064 31.3958 43.4657 31.1357 43.3052C30.8757 43.1447 30.5464 43.0645 30.1479 43.0645C29.578 43.0645 29.1214 43.189 28.7783 43.438C28.4408 43.6815 28.1945 44.0439 28.0396 44.5254C27.8901 45.0068 27.8154 45.5962 27.8154 46.2935V51H26.147V41.8525H27.4668L27.7075 43.1143H27.7988C27.9814 42.7988 28.2111 42.536 28.4878 42.3257C28.77 42.1154 29.0827 41.9577 29.4258 41.8525C29.7689 41.7419 30.1313 41.6865 30.5132 41.6865C31.1994 41.6865 31.7777 41.811 32.248 42.0601C32.7184 42.3091 33.0643 42.6882 33.2856 43.1973H33.3936C33.6868 42.6826 34.0908 42.3035 34.6055 42.0601C35.1257 41.811 35.6846 41.6865 36.2822 41.6865ZM45.7202 41.6865C46.5171 41.6865 47.2005 41.8581 47.7705 42.2012C48.3405 42.5387 48.7777 43.0174 49.082 43.6372C49.3864 44.257 49.5386 44.9875 49.5386 45.8286V46.7749H43.3296C43.3462 47.7544 43.598 48.507 44.085 49.0327C44.5719 49.5529 45.2554 49.813 46.1353 49.813C46.7163 49.813 47.2337 49.7576 47.6875 49.647C48.1413 49.5363 48.6117 49.373 49.0986 49.1572V50.5601C48.6393 50.7703 48.1772 50.9225 47.7124 51.0166C47.2531 51.1162 46.7025 51.166 46.0605 51.166C45.1751 51.166 44.3976 50.9889 43.728 50.6348C43.064 50.2806 42.5465 49.7576 42.1758 49.0659C41.805 48.3687 41.6196 47.5109 41.6196 46.4927C41.6196 45.4855 41.7884 44.625 42.126 43.9111C42.4635 43.1917 42.9395 42.6411 43.5537 42.2593C44.168 41.8774 44.8901 41.6865 45.7202 41.6865ZM45.7119 42.9814C45.0368 42.9814 44.4945 43.2028 44.085 43.6455C43.6755 44.0827 43.4347 44.7108 43.3628 45.5298H47.8618C47.8563 45.0262 47.776 44.5835 47.6211 44.2017C47.4661 43.8198 47.231 43.521 46.9155 43.3052C46.6056 43.0894 46.2044 42.9814 45.7119 42.9814ZM64.0068 51L62.6621 47.3892H57.9058L56.5776 51H54.8096L59.4414 38.8145H61.1846L65.7915 51H64.0068ZM62.189 45.9116L60.9106 42.334C60.8719 42.2122 60.811 42.0296 60.728 41.7861C60.6506 41.5426 60.5703 41.2909 60.4873 41.0308C60.4098 40.7707 60.3462 40.5549 60.2964 40.3833C60.241 40.6102 60.1774 40.8509 60.1055 41.1055C60.0335 41.3545 59.9616 41.5897 59.8896 41.811C59.8232 42.0269 59.7679 42.2012 59.7236 42.334L58.4287 45.9116H62.189ZM73.2705 48.4434C73.2705 49.0355 73.1239 49.5363 72.8306 49.9458C72.5428 50.3498 72.1222 50.6541 71.5688 50.8589C71.0155 51.0636 70.3514 51.166 69.5767 51.166C68.9347 51.166 68.3813 51.1162 67.9165 51.0166C67.4517 50.9225 67.0311 50.7842 66.6548 50.6016V49.124C67.0588 49.3177 67.5264 49.4893 68.0576 49.6387C68.5889 49.7881 69.109 49.8628 69.6182 49.8628C70.332 49.8628 70.8467 49.7493 71.1621 49.5225C71.4831 49.2956 71.6436 48.9884 71.6436 48.6011C71.6436 48.3742 71.5799 48.175 71.4526 48.0034C71.3254 47.8263 71.1012 47.652 70.7803 47.4805C70.4648 47.3034 70.0111 47.1014 69.4189 46.8745C68.8379 46.6476 68.3398 46.4207 67.9248 46.1938C67.5153 45.967 67.2026 45.693 66.9868 45.3721C66.771 45.0511 66.6631 44.6361 66.6631 44.127C66.6631 43.3356 66.9785 42.7324 67.6094 42.3174C68.2458 41.8968 69.0841 41.6865 70.1245 41.6865C70.6779 41.6865 71.1981 41.7419 71.6851 41.8525C72.1776 41.9632 72.6479 42.1182 73.0962 42.3174L72.5566 43.604C72.1582 43.4325 71.7487 43.2913 71.3281 43.1807C70.9076 43.0645 70.4787 43.0063 70.0415 43.0063C69.4715 43.0063 69.0343 43.0977 68.73 43.2803C68.4312 43.4629 68.2817 43.7147 68.2817 44.0356C68.2817 44.2847 68.3509 44.4922 68.4893 44.6582C68.6331 44.8242 68.8711 44.9875 69.2031 45.1479C69.5352 45.3029 69.9834 45.4883 70.5479 45.7041C71.1068 45.9144 71.5882 46.133 71.9922 46.3599C72.4017 46.5868 72.7171 46.8634 72.9385 47.1899C73.1598 47.5164 73.2705 47.9342 73.2705 48.4434ZM83.4058 38.8643C84.9718 38.8643 86.1146 39.1769 86.834 39.8022C87.5589 40.4276 87.9214 41.3158 87.9214 42.4668C87.9214 42.987 87.8384 43.4823 87.6724 43.9526C87.5063 44.4175 87.2352 44.8298 86.8589 45.1895C86.4881 45.5436 85.9984 45.8258 85.3896 46.0361C84.7809 46.2409 84.0339 46.3433 83.1484 46.3433H81.7622V51H80.0605V38.8643H83.4058ZM83.2729 40.292H81.7622V44.9072H82.9658C83.6686 44.9072 84.258 44.8298 84.7339 44.6748C85.2098 44.5143 85.5695 44.2598 85.813 43.9111C86.0565 43.5625 86.1782 43.1032 86.1782 42.5332C86.1782 41.7806 85.943 41.2189 85.4727 40.8481C85.0023 40.4774 84.269 40.292 83.2729 40.292ZM93.7817 41.6865C94.5786 41.6865 95.262 41.8581 95.832 42.2012C96.402 42.5387 96.8392 43.0174 97.1436 43.6372C97.4479 44.257 97.6001 44.9875 97.6001 45.8286V46.7749H91.3911C91.4077 47.7544 91.6595 48.507 92.1465 49.0327C92.6335 49.5529 93.3169 49.813 94.1968 49.813C94.7778 49.813 95.2952 49.7576 95.749 49.647C96.2028 49.5363 96.6732 49.373 97.1602 49.1572V50.5601C96.7008 50.7703 96.2388 50.9225 95.7739 51.0166C95.3146 51.1162 94.764 51.166 94.1221 51.166C93.2367 51.166 92.4591 50.9889 91.7896 50.6348C91.1255 50.2806 90.6081 49.7576 90.2373 49.0659C89.8665 48.3687 89.6812 47.5109 89.6812 46.4927C89.6812 45.4855 89.8499 44.625 90.1875 43.9111C90.5251 43.1917 91.001 42.6411 91.6152 42.2593C92.2295 41.8774 92.9517 41.6865 93.7817 41.6865ZM93.7734 42.9814C93.0983 42.9814 92.556 43.2028 92.1465 43.6455C91.737 44.0827 91.4963 44.7108 91.4243 45.5298H95.9233C95.9178 45.0262 95.8376 44.5835 95.6826 44.2017C95.5277 43.8198 95.2925 43.521 94.9771 43.3052C94.6672 43.0894 94.266 42.9814 93.7734 42.9814ZM104.274 41.6865C104.44 41.6865 104.62 41.6976 104.813 41.7197C105.007 41.7363 105.173 41.7585 105.312 41.7861L105.137 43.3384C105.004 43.3052 104.849 43.2775 104.672 43.2554C104.501 43.2332 104.34 43.2222 104.191 43.2222C103.837 43.2222 103.499 43.2886 103.178 43.4214C102.857 43.5542 102.575 43.7479 102.332 44.0024C102.088 44.2515 101.897 44.5586 101.759 44.9238C101.62 45.2835 101.551 45.6958 101.551 46.1606V51H99.8745V41.8525H101.219L101.418 43.5044H101.493C101.681 43.1724 101.908 42.868 102.174 42.5913C102.445 42.3146 102.755 42.096 103.104 41.9355C103.458 41.7695 103.848 41.6865 104.274 41.6865ZM116.684 44.5254H121.066V50.5103C120.43 50.7261 119.774 50.8893 119.099 51C118.424 51.1107 117.666 51.166 116.825 51.166C115.574 51.166 114.52 50.917 113.662 50.4189C112.804 49.9209 112.151 49.207 111.703 48.2773C111.26 47.3477 111.039 46.2298 111.039 44.9238C111.039 43.6676 111.285 42.5719 111.778 41.6367C112.27 40.7015 112.987 39.9766 113.928 39.4619C114.868 38.9473 116.003 38.6899 117.331 38.6899C117.995 38.6899 118.632 38.7536 119.24 38.8809C119.854 39.0081 120.419 39.1852 120.934 39.4121L120.319 40.8481C119.888 40.6545 119.409 40.4912 118.883 40.3584C118.363 40.2201 117.824 40.1509 117.265 40.1509C116.335 40.1509 115.535 40.3473 114.866 40.7402C114.202 41.1331 113.69 41.6865 113.33 42.4004C112.976 43.1143 112.799 43.9609 112.799 44.9404C112.799 45.8978 112.948 46.7334 113.247 47.4473C113.546 48.1611 114.014 48.7173 114.65 49.1157C115.286 49.5142 116.105 49.7134 117.107 49.7134C117.611 49.7134 118.039 49.6857 118.394 49.6304C118.753 49.575 119.083 49.5086 119.381 49.4312V46.0112H116.684V44.5254ZM130.919 47.7378C130.919 48.4572 130.74 49.0742 130.38 49.5889C130.026 50.098 129.525 50.4881 128.877 50.7593C128.23 51.0304 127.461 51.166 126.57 51.166C126.122 51.166 125.693 51.1411 125.283 51.0913C124.879 51.047 124.503 50.9806 124.154 50.8921C123.806 50.8035 123.49 50.6929 123.208 50.5601V48.9497C123.667 49.1379 124.199 49.3149 124.802 49.481C125.405 49.6414 126.028 49.7217 126.669 49.7217C127.228 49.7217 127.696 49.647 128.072 49.4976C128.454 49.3426 128.742 49.1268 128.936 48.8501C129.129 48.5734 129.226 48.2414 129.226 47.854C129.226 47.4666 129.132 47.1429 128.944 46.8828C128.756 46.6172 128.457 46.3737 128.047 46.1523C127.643 45.931 127.112 45.6958 126.454 45.4468C125.994 45.2808 125.576 45.0926 125.2 44.8823C124.824 44.6665 124.497 44.4202 124.221 44.1436C123.95 43.8669 123.739 43.5431 123.59 43.1724C123.44 42.7961 123.366 42.3644 123.366 41.8774C123.366 41.2078 123.529 40.6351 123.855 40.1592C124.188 39.6833 124.65 39.3208 125.242 39.0718C125.834 38.8172 126.52 38.6899 127.3 38.6899C127.942 38.6899 128.54 38.7536 129.093 38.8809C129.652 39.0081 130.183 39.1825 130.687 39.4038L130.147 40.8149C129.677 40.6213 129.204 40.4635 128.728 40.3418C128.252 40.2201 127.76 40.1592 127.25 40.1592C126.78 40.1592 126.382 40.2284 126.055 40.3667C125.734 40.505 125.488 40.7015 125.316 40.9561C125.15 41.2106 125.067 41.5122 125.067 41.8608C125.067 42.2537 125.156 42.5802 125.333 42.8403C125.51 43.1004 125.79 43.3356 126.171 43.5459C126.553 43.7562 127.051 43.9803 127.666 44.2183C128.357 44.4839 128.944 44.7661 129.425 45.0649C129.912 45.3638 130.283 45.7235 130.538 46.144C130.792 46.5646 130.919 47.0959 130.919 47.7378ZM137.286 51H135.576V40.3335H131.891V38.8643H140.963V40.3335H137.286V51ZM150.576 38.8643C152.142 38.8643 153.285 39.1769 154.004 39.8022C154.729 40.4276 155.091 41.3158 155.091 42.4668C155.091 42.987 155.008 43.4823 154.842 43.9526C154.676 44.4175 154.405 44.8298 154.029 45.1895C153.658 45.5436 153.168 45.8258 152.56 46.0361C151.951 46.2409 151.204 46.3433 150.318 46.3433H148.932V51H147.23V38.8643H150.576ZM150.443 40.292H148.932V44.9072H150.136C150.839 44.9072 151.428 44.8298 151.904 44.6748C152.38 44.5143 152.739 44.2598 152.983 43.9111C153.226 43.5625 153.348 43.1032 153.348 42.5332C153.348 41.7806 153.113 41.2189 152.643 40.8481C152.172 40.4774 151.439 40.292 150.443 40.292ZM165.359 46.4097C165.359 47.1623 165.26 47.8346 165.061 48.4268C164.867 49.0133 164.582 49.5114 164.206 49.9209C163.835 50.3249 163.387 50.6348 162.861 50.8506C162.335 51.0609 161.74 51.166 161.076 51.166C160.456 51.166 159.886 51.0609 159.366 50.8506C158.852 50.6348 158.406 50.3249 158.03 49.9209C157.653 49.5114 157.363 49.0133 157.158 48.4268C156.953 47.8346 156.851 47.1623 156.851 46.4097C156.851 45.408 157.023 44.5558 157.366 43.853C157.709 43.1447 158.199 42.6079 158.835 42.2427C159.477 41.8719 160.241 41.6865 161.126 41.6865C161.967 41.6865 162.706 41.8719 163.342 42.2427C163.979 42.6134 164.474 43.1502 164.828 43.853C165.182 44.5558 165.359 45.408 165.359 46.4097ZM158.561 46.4097C158.561 47.1125 158.65 47.7184 158.827 48.2275C159.009 48.7311 159.286 49.1185 159.657 49.3896C160.033 49.6608 160.517 49.7964 161.109 49.7964C161.69 49.7964 162.169 49.6608 162.545 49.3896C162.922 49.1185 163.198 48.7311 163.375 48.2275C163.553 47.7184 163.641 47.1125 163.641 46.4097C163.641 45.7124 163.553 45.1147 163.375 44.6167C163.198 44.1187 162.922 43.7368 162.545 43.4712C162.175 43.2056 161.69 43.0728 161.093 43.0728C160.218 43.0728 159.576 43.366 159.167 43.9526C158.763 44.5337 158.561 45.3527 158.561 46.4097ZM172.075 41.6865C172.241 41.6865 172.421 41.6976 172.614 41.7197C172.808 41.7363 172.974 41.7585 173.112 41.7861L172.938 43.3384C172.805 43.3052 172.65 43.2775 172.473 43.2554C172.302 43.2332 172.141 43.2222 171.992 43.2222C171.638 43.2222 171.3 43.2886 170.979 43.4214C170.658 43.5542 170.376 43.7479 170.132 44.0024C169.889 44.2515 169.698 44.5586 169.56 44.9238C169.421 45.2835 169.352 45.6958 169.352 46.1606V51H167.675V41.8525H169.02L169.219 43.5044H169.294C169.482 43.1724 169.709 42.868 169.975 42.5913C170.246 42.3146 170.556 42.096 170.904 41.9355C171.258 41.7695 171.649 41.6865 172.075 41.6865ZM178.001 49.813C178.239 49.813 178.48 49.7936 178.724 49.7549C178.967 49.7106 179.177 49.6553 179.354 49.5889V50.8672C179.166 50.9502 178.915 51.0194 178.599 51.0747C178.289 51.1356 177.971 51.166 177.645 51.166C177.146 51.166 176.695 51.0802 176.292 50.9087C175.888 50.7371 175.564 50.4438 175.32 50.0288C175.082 49.6138 174.963 49.0382 174.963 48.3022V43.1392H173.693V42.3672L175.021 41.7529L175.611 39.7773H176.64V41.8525H179.288V43.1392H176.64V48.2773C176.64 48.792 176.762 49.1766 177.005 49.4312C177.254 49.6857 177.586 49.813 178.001 49.813ZM180.965 50.0537C180.965 49.6331 181.07 49.3371 181.28 49.1655C181.496 48.9884 181.756 48.8999 182.061 48.8999C182.37 48.8999 182.633 48.9884 182.849 49.1655C183.065 49.3371 183.173 49.6331 183.173 50.0537C183.173 50.4632 183.065 50.762 182.849 50.9502C182.633 51.1383 182.37 51.2324 182.061 51.2324C181.756 51.2324 181.496 51.1383 181.28 50.9502C181.07 50.762 180.965 50.4632 180.965 50.0537ZM185.53 50.0537C185.53 49.6331 185.635 49.3371 185.846 49.1655C186.062 48.9884 186.322 48.8999 186.626 48.8999C186.936 48.8999 187.199 48.9884 187.415 49.1655C187.63 49.3371 187.738 49.6331 187.738 50.0537C187.738 50.4632 187.63 50.762 187.415 50.9502C187.199 51.1383 186.936 51.2324 186.626 51.2324C186.322 51.2324 186.062 51.1383 185.846 50.9502C185.635 50.762 185.53 50.4632 185.53 50.0537ZM190.096 50.0537C190.096 49.6331 190.201 49.3371 190.411 49.1655C190.627 48.9884 190.887 48.8999 191.191 48.8999C191.501 48.8999 191.764 48.9884 191.98 49.1655C192.196 49.3371 192.304 49.6331 192.304 50.0537C192.304 50.4632 192.196 50.762 191.98 50.9502C191.764 51.1383 191.501 51.2324 191.191 51.2324C190.887 51.2324 190.627 51.1383 190.411 50.9502C190.201 50.762 190.096 50.4632 190.096 50.0537Z" fill="black"/>
<g filter="url(#filter0_d_0_1)">
<path d="M-268 -36C-268 -38.2091 -266.209 -40 -264 -40H276V852H-264C-266.209 852 -268 850.209 -268 848V-36Z" fill="#F8F8F8"/>
<path d="M-264 -39.5H275.5V851.5H-264C-265.933 851.5 -267.5 849.933 -267.5 848V-36C-267.5 -37.933 -265.933 -39.5 -264 -39.5Z" stroke="black" stroke-opacity="0.12"/>
</g>
<rect width="106" height="43" rx="21.5" fill="#F8F8F8"/>
<rect x="0.5" y="0.5" width="105" height="42" rx="21" stroke="black" stroke-opacity="0.2"/>
<path d="M21.7701 30.15L21.7697 30.15C21.6154 30.1505 21.4638 30.1083 21.3323 30.028L21.3318 30.0277C21.2127 29.9544 21.1143 29.8523 21.046 29.7307C20.9778 29.6092 20.9421 29.4724 20.9423 29.3333V29.3333H21.0923L20.9423 29.333L21.7701 30.15ZM21.7701 30.15C21.8989 30.1492 22.0259 30.1188 22.1408 30.0609L21.7701 30.15ZM20.9423 22.9783L20.9816 23.0212L21.0923 22.92H20.9423V22.9783ZM31.8442 17.3079L31.8444 17.3077L26.5077 26.5067H26.6577V26.5064V22.9783L31.8442 17.3079ZM31.0549 15.4833C30.9737 15.7532 30.8307 16.0023 30.6357 16.2109L30.6347 16.212L25.2196 22.1183C25.2196 22.1183 25.2195 22.1184 25.2195 22.1184C25.0814 22.268 25.0044 22.4632 25.0038 22.6663V22.6667L25.0038 26.5067L25.0038 26.5077C25.0045 26.6035 24.978 26.6978 24.9271 26.7798C24.8762 26.8619 24.8029 26.9286 24.7151 26.9722C24.715 26.9722 24.7149 26.9723 24.7149 26.9723L22.5962 28.0126V22.6689C22.6019 22.4699 22.5338 22.276 22.4052 22.1233L22.4053 22.1233L22.401 22.1186L16.9859 16.2123C16.9859 16.2122 16.9858 16.2122 16.9858 16.2121C16.7944 16.0022 16.655 15.7528 16.577 15.4833H31.0549ZM14.85 14.9733H15H32.6H32.75V14.9731V14.6667C32.75 14.4493 32.6623 14.2414 32.507 14.0884C32.3517 13.9355 32.1416 13.85 31.9231 13.85H15.6769C15.4583 13.85 15.2483 13.9355 15.093 14.0884C14.9377 14.2414 14.85 14.4493 14.85 14.6667V14.9732V14.9733Z" fill="#666666" stroke="#666666" stroke-width="0.3"/>
<path opacity="0.6" d="M44.3203 28H42.627V15.8643H49.4336V17.3252H44.3203V21.4424H49.1182V22.895H44.3203V28ZM53.0029 18.8525V28H51.3345V18.8525H53.0029ZM52.1812 15.3911C52.4468 15.3911 52.6737 15.4686 52.8618 15.6235C53.0555 15.7785 53.1523 16.0303 53.1523 16.3789C53.1523 16.7275 53.0555 16.9821 52.8618 17.1426C52.6737 17.2975 52.4468 17.375 52.1812 17.375C51.91 17.375 51.6803 17.2975 51.4922 17.1426C51.3096 16.9821 51.2183 16.7275 51.2183 16.3789C51.2183 16.0303 51.3096 15.7785 51.4922 15.6235C51.6803 15.4686 51.91 15.3911 52.1812 15.3911ZM57.5269 28H55.8501V15.084H57.5269V28ZM63.5532 26.813C63.7912 26.813 64.0319 26.7936 64.2754 26.7549C64.5189 26.7106 64.7292 26.6553 64.9062 26.5889V27.8672C64.7181 27.9502 64.4663 28.0194 64.1509 28.0747C63.841 28.1356 63.5228 28.166 63.1963 28.166C62.6982 28.166 62.2472 28.0802 61.8433 27.9087C61.4393 27.7371 61.1156 27.4438 60.8721 27.0288C60.6341 26.6138 60.5151 26.0382 60.5151 25.3022V20.1392H59.2451V19.3672L60.5732 18.7529L61.1626 16.7773H62.1919V18.8525H64.8398V20.1392H62.1919V25.2773C62.1919 25.792 62.3136 26.1766 62.5571 26.4312C62.8062 26.6857 63.1382 26.813 63.5532 26.813ZM70.3433 18.6865C71.1401 18.6865 71.8236 18.8581 72.3936 19.2012C72.9635 19.5387 73.4007 20.0174 73.7051 20.6372C74.0094 21.257 74.1616 21.9875 74.1616 22.8286V23.7749H67.9526C67.9692 24.7544 68.221 25.507 68.708 26.0327C69.195 26.5529 69.8784 26.813 70.7583 26.813C71.3394 26.813 71.8568 26.7576 72.3105 26.647C72.7643 26.5363 73.2347 26.373 73.7217 26.1572V27.5601C73.2624 27.7703 72.8003 27.9225 72.3354 28.0166C71.8761 28.1162 71.3255 28.166 70.6836 28.166C69.7982 28.166 69.0207 27.9889 68.3511 27.6348C67.687 27.2806 67.1696 26.7576 66.7988 26.0659C66.4281 25.3687 66.2427 24.5109 66.2427 23.4927C66.2427 22.4855 66.4115 21.625 66.749 20.9111C67.0866 20.1917 67.5625 19.6411 68.1768 19.2593C68.791 18.8774 69.5132 18.6865 70.3433 18.6865ZM70.335 19.9814C69.6598 19.9814 69.1175 20.2028 68.708 20.6455C68.2985 21.0827 68.0578 21.7108 67.9858 22.5298H72.4849C72.4793 22.0262 72.3991 21.5835 72.2441 21.2017C72.0892 20.8198 71.854 20.521 71.5386 20.3052C71.2287 20.0894 70.8275 19.9814 70.335 19.9814ZM80.8354 18.6865C81.0015 18.6865 81.1813 18.6976 81.375 18.7197C81.5687 18.7363 81.7347 18.7585 81.873 18.7861L81.6987 20.3384C81.5659 20.3052 81.411 20.2775 81.2339 20.2554C81.0623 20.2332 80.9019 20.2222 80.7524 20.2222C80.3983 20.2222 80.0607 20.2886 79.7397 20.4214C79.4188 20.5542 79.1366 20.7479 78.8931 21.0024C78.6496 21.2515 78.4587 21.5586 78.3203 21.9238C78.182 22.2835 78.1128 22.6958 78.1128 23.1606V28H76.436V18.8525H77.7808L77.98 20.5044H78.0547C78.2428 20.1724 78.4697 19.868 78.7354 19.5913C79.0065 19.3146 79.3164 19.096 79.665 18.9355C80.0192 18.7695 80.4093 18.6865 80.8354 18.6865ZM89.6094 25.4434C89.6094 26.0355 89.4627 26.5363 89.1694 26.9458C88.8817 27.3498 88.4611 27.6541 87.9077 27.8589C87.3543 28.0636 86.6903 28.166 85.9155 28.166C85.2736 28.166 84.7202 28.1162 84.2554 28.0166C83.7905 27.9225 83.37 27.7842 82.9937 27.6016V26.124C83.3976 26.3177 83.8652 26.4893 84.3965 26.6387C84.9277 26.7881 85.4479 26.8628 85.957 26.8628C86.6709 26.8628 87.1855 26.7493 87.501 26.5225C87.8219 26.2956 87.9824 25.9884 87.9824 25.6011C87.9824 25.3742 87.9188 25.175 87.7915 25.0034C87.6642 24.8263 87.4401 24.652 87.1191 24.4805C86.8037 24.3034 86.3499 24.1014 85.7578 23.8745C85.1768 23.6476 84.6787 23.4207 84.2637 23.1938C83.8542 22.967 83.5415 22.693 83.3257 22.3721C83.1099 22.0511 83.002 21.6361 83.002 21.127C83.002 20.3356 83.3174 19.7324 83.9482 19.3174C84.5846 18.8968 85.423 18.6865 86.4634 18.6865C87.0168 18.6865 87.5369 18.7419 88.0239 18.8525C88.5164 18.9632 88.9868 19.1182 89.4351 19.3174L88.8955 20.604C88.4971 20.4325 88.0876 20.2913 87.667 20.1807C87.2464 20.0645 86.8175 20.0063 86.3804 20.0063C85.8104 20.0063 85.3732 20.0977 85.0688 20.2803C84.77 20.4629 84.6206 20.7147 84.6206 21.0356C84.6206 21.2847 84.6898 21.4922 84.8281 21.6582C84.972 21.8242 85.21 21.9875 85.542 22.1479C85.874 22.3029 86.3223 22.4883 86.8867 22.7041C87.4456 22.9144 87.9271 23.133 88.3311 23.3599C88.7406 23.5868 89.056 23.8634 89.2773 24.1899C89.4987 24.5164 89.6094 24.9342 89.6094 25.4434Z" fill="black"/>
</g>
<defs>
<filter id="filter0_d_0_1" x="-288" y="-52" width="584" height="932" filterUnits="userSpaceOnUse" color-interpolation-filters="sRGB">
<feFlood flood-opacity="0" result="BackgroundImageFix"/>
<feColorMatrix in="SourceAlpha" type="matrix" values="0 0 0 0 0 0 0 0 0 0 0 0 0 0 0 0 0 0 127 0" result="hardAlpha"/>
<feOffset dy="8"/>
<feGaussianBlur stdDeviation="10"/>
<feColorMatrix type="matrix" values="0 0 0 0 0 0 0 0 0 0 0 0 0 0 0 0 0 0 0.15 0"/>
<feBlend mode="normal" in2="BackgroundImageFix" result="effect1_dropShadow_0_1"/>
<feBlend mode="normal" in="SourceGraphic" in2="effect1_dropShadow_0_1" result="shape"/>
</filter>
<clipPath id="clip0_0_1">
<rect width="1920" height="1024" fill="white" transform="translate(-1644 -172)"/>
</clipPath>
</defs>
</svg>
