<svg width="106" height="43" viewBox="0 0 106 43" fill="none" xmlns="http://www.w3.org/2000/svg">
<rect width="106" height="43" fill="#E5E5E5"/>
<g clip-path="url(#clip0_0_1)">
<rect width="1920" height="1024" transform="translate(-1528 -172)" fill="white"/>
<rect x="-1478" y="-40" width="1820" height="50" fill="#F1F1F1"/>
<rect x="-1478" y="20" width="1820" height="50" fill="white"/>
<rect x="-173" y="20" width="260" height="50" fill="white"/>
<path d="M-136.193 40.1592C-136.819 40.1592 -137.38 40.2699 -137.878 40.4912C-138.371 40.707 -138.789 41.0252 -139.132 41.4458C-139.475 41.8608 -139.738 42.3617 -139.92 42.9482C-140.103 43.5348 -140.194 44.1961 -140.194 44.9321C-140.194 45.9116 -140.05 46.7583 -139.763 47.4722C-139.469 48.186 -139.029 48.7367 -138.443 49.124C-137.856 49.5114 -137.118 49.7051 -136.227 49.7051C-135.695 49.7051 -135.189 49.658 -134.708 49.564C-134.221 49.4644 -133.736 49.3371 -133.255 49.1821V50.6431C-133.72 50.8201 -134.201 50.9502 -134.699 51.0332C-135.192 51.1217 -135.77 51.166 -136.434 51.166C-137.674 51.166 -138.706 50.9087 -139.53 50.394C-140.349 49.8794 -140.961 49.1572 -141.365 48.2275C-141.769 47.2923 -141.971 46.1911 -141.971 44.9238C-141.971 44.0052 -141.843 43.1668 -141.589 42.4087C-141.334 41.645 -140.961 40.9865 -140.468 40.4331C-139.976 39.8742 -139.373 39.4453 -138.659 39.1465C-137.939 38.8421 -137.112 38.6899 -136.177 38.6899C-135.568 38.6899 -134.976 38.7563 -134.4 38.8892C-133.819 39.0164 -133.285 39.1963 -132.798 39.4287L-133.429 40.8481C-133.833 40.6655 -134.268 40.505 -134.732 40.3667C-135.192 40.2284 -135.679 40.1592 -136.193 40.1592ZM-123.07 41.8525V51H-124.406L-124.639 49.7466H-124.73C-124.918 50.062 -125.162 50.3249 -125.46 50.5352C-125.759 50.7454 -126.094 50.9032 -126.465 51.0083C-126.836 51.1134 -127.229 51.166 -127.644 51.166C-128.346 51.166 -128.944 51.0498 -129.437 50.8174C-129.924 50.585 -130.294 50.2253 -130.549 49.7383C-130.798 49.2458 -130.922 48.6121 -130.922 47.8374V41.8525H-129.246V47.605C-129.246 48.341 -129.088 48.8916 -128.772 49.2568C-128.451 49.6221 -127.965 49.8047 -127.312 49.8047C-126.675 49.8047 -126.172 49.6802 -125.801 49.4312C-125.424 49.1766 -125.156 48.8086 -124.996 48.3271C-124.83 47.8402 -124.747 47.2453 -124.747 46.5425V41.8525H-123.07ZM-114.18 48.4434C-114.18 49.0355 -114.326 49.5363 -114.62 49.9458C-114.907 50.3498 -115.328 50.6541 -115.881 50.8589C-116.435 51.0636 -117.099 51.166 -117.874 51.166C-118.515 51.166 -119.069 51.1162 -119.534 51.0166C-119.999 50.9225 -120.419 50.7842 -120.795 50.6016V49.124C-120.391 49.3177 -119.924 49.4893 -119.393 49.6387C-118.861 49.7881 -118.341 49.8628 -117.832 49.8628C-117.118 49.8628 -116.604 49.7493 -116.288 49.5225C-115.967 49.2956 -115.807 48.9884 -115.807 48.6011C-115.807 48.3742 -115.87 48.175 -115.998 48.0034C-116.125 47.8263 -116.349 47.652 -116.67 47.4805C-116.985 47.3034 -117.439 47.1014 -118.031 46.8745C-118.612 46.6476 -119.11 46.4207 -119.525 46.1938C-119.935 45.967 -120.248 45.693 -120.463 45.3721C-120.679 45.0511 -120.787 44.6361 -120.787 44.127C-120.787 43.3356 -120.472 42.7324 -119.841 42.3174C-119.204 41.8968 -118.366 41.6865 -117.326 41.6865C-116.772 41.6865 -116.252 41.7419 -115.765 41.8525C-115.273 41.9632 -114.802 42.1182 -114.354 42.3174L-114.894 43.604C-115.292 43.4325 -115.701 43.2913 -116.122 43.1807C-116.543 43.0645 -116.972 43.0063 -117.409 43.0063C-117.979 43.0063 -118.416 43.0977 -118.72 43.2803C-119.019 43.4629 -119.168 43.7147 -119.168 44.0356C-119.168 44.2847 -119.099 44.4922 -118.961 44.6582C-118.817 44.8242 -118.579 44.9875 -118.247 45.1479C-117.915 45.3029 -117.467 45.4883 -116.902 45.7041C-116.343 45.9144 -115.862 46.133 -115.458 46.3599C-115.049 46.5868 -114.733 46.8634 -114.512 47.1899C-114.29 47.5164 -114.18 47.9342 -114.18 48.4434ZM-108.826 49.813C-108.588 49.813 -108.347 49.7936 -108.104 49.7549C-107.86 49.7106 -107.65 49.6553 -107.473 49.5889V50.8672C-107.661 50.9502 -107.913 51.0194 -108.228 51.0747C-108.538 51.1356 -108.856 51.166 -109.183 51.166C-109.681 51.166 -110.132 51.0802 -110.536 50.9087C-110.94 50.7371 -111.263 50.4438 -111.507 50.0288C-111.745 49.6138 -111.864 49.0382 -111.864 48.3022V43.1392H-113.134V42.3672L-111.806 41.7529L-111.216 39.7773H-110.187V41.8525H-107.539V43.1392H-110.187V48.2773C-110.187 48.792 -110.065 49.1766 -109.822 49.4312C-109.573 49.6857 -109.241 49.813 -108.826 49.813ZM-97.6279 46.4097C-97.6279 47.1623 -97.7275 47.8346 -97.9268 48.4268C-98.1204 49.0133 -98.4054 49.5114 -98.7817 49.9209C-99.1525 50.3249 -99.6007 50.6348 -100.126 50.8506C-100.652 51.0609 -101.247 51.166 -101.911 51.166C-102.531 51.166 -103.101 51.0609 -103.621 50.8506C-104.136 50.6348 -104.581 50.3249 -104.958 49.9209C-105.334 49.5114 -105.624 49.0133 -105.829 48.4268C-106.034 47.8346 -106.136 47.1623 -106.136 46.4097C-106.136 45.408 -105.965 44.5558 -105.622 43.853C-105.278 43.1447 -104.789 42.6079 -104.152 42.2427C-103.51 41.8719 -102.747 41.6865 -101.861 41.6865C-101.02 41.6865 -100.281 41.8719 -99.645 42.2427C-99.0086 42.6134 -98.5133 43.1502 -98.1592 43.853C-97.805 44.5558 -97.6279 45.408 -97.6279 46.4097ZM-104.426 46.4097C-104.426 47.1125 -104.338 47.7184 -104.161 48.2275C-103.978 48.7311 -103.701 49.1185 -103.331 49.3896C-102.954 49.6608 -102.47 49.7964 -101.878 49.7964C-101.297 49.7964 -100.818 49.6608 -100.442 49.3896C-100.066 49.1185 -99.7889 48.7311 -99.6118 48.2275C-99.4347 47.7184 -99.3462 47.1125 -99.3462 46.4097C-99.3462 45.7124 -99.4347 45.1147 -99.6118 44.6167C-99.7889 44.1187 -100.066 43.7368 -100.442 43.4712C-100.813 43.2056 -101.297 43.0728 -101.895 43.0728C-102.769 43.0728 -103.411 43.366 -103.82 43.9526C-104.224 44.5337 -104.426 45.3527 -104.426 46.4097ZM-85.1768 41.6865C-84.1641 41.6865 -83.4004 41.9521 -82.8857 42.4834C-82.3656 43.0091 -82.1055 43.853 -82.1055 45.0151V51H-83.7573V45.2227C-83.7573 44.5033 -83.9067 43.9637 -84.2056 43.604C-84.4989 43.2443 -84.9388 43.0645 -85.5254 43.0645C-86.3555 43.0645 -86.9559 43.3162 -87.3267 43.8198C-87.6919 44.3179 -87.8745 45.0511 -87.8745 46.0195V51H-89.5347V45.2227C-89.5347 44.7412 -89.6011 44.3428 -89.7339 44.0273C-89.8667 43.7064 -90.0632 43.4657 -90.3232 43.3052C-90.5833 43.1447 -90.9126 43.0645 -91.311 43.0645C-91.881 43.0645 -92.3376 43.189 -92.6807 43.438C-93.0182 43.6815 -93.2645 44.0439 -93.4194 44.5254C-93.5688 45.0068 -93.6436 45.5962 -93.6436 46.2935V51H-95.312V41.8525H-93.9922L-93.7515 43.1143H-93.6602C-93.4775 42.7988 -93.2479 42.536 -92.9712 42.3257C-92.689 42.1154 -92.3763 41.9577 -92.0332 41.8525C-91.6901 41.7419 -91.3276 41.6865 -90.9458 41.6865C-90.2596 41.6865 -89.6813 41.811 -89.2109 42.0601C-88.7406 42.3091 -88.3947 42.6882 -88.1733 43.1973H-88.0654C-87.7721 42.6826 -87.3682 42.3035 -86.8535 42.0601C-86.3333 41.811 -85.7744 41.6865 -85.1768 41.6865ZM-75.7388 41.6865C-74.9419 41.6865 -74.2585 41.8581 -73.6885 42.2012C-73.1185 42.5387 -72.6813 43.0174 -72.377 43.6372C-72.0726 44.257 -71.9204 44.9875 -71.9204 45.8286V46.7749H-78.1294C-78.1128 47.7544 -77.861 48.507 -77.374 49.0327C-76.887 49.5529 -76.2036 49.813 -75.3237 49.813C-74.7427 49.813 -74.2253 49.7576 -73.7715 49.647C-73.3177 49.5363 -72.8473 49.373 -72.3604 49.1572V50.5601C-72.8197 50.7703 -73.2817 50.9225 -73.7466 51.0166C-74.2059 51.1162 -74.7565 51.166 -75.3984 51.166C-76.2839 51.166 -77.0614 50.9889 -77.731 50.6348C-78.395 50.2806 -78.9124 49.7576 -79.2832 49.0659C-79.654 48.3687 -79.8394 47.5109 -79.8394 46.4927C-79.8394 45.4855 -79.6706 44.625 -79.333 43.9111C-78.9954 43.1917 -78.5195 42.6411 -77.9053 42.2593C-77.291 41.8774 -76.5688 41.6865 -75.7388 41.6865ZM-75.7471 42.9814C-76.4222 42.9814 -76.9645 43.2028 -77.374 43.6455C-77.7835 44.0827 -78.0243 44.7108 -78.0962 45.5298H-73.5972C-73.6027 45.0262 -73.6829 44.5835 -73.8379 44.2017C-73.9928 43.8198 -74.228 43.521 -74.5435 43.3052C-74.8534 43.0894 -75.2546 42.9814 -75.7471 42.9814ZM-65.2466 41.6865C-65.0806 41.6865 -64.9007 41.6976 -64.707 41.7197C-64.5133 41.7363 -64.3473 41.7585 -64.209 41.7861L-64.3833 43.3384C-64.5161 43.3052 -64.6711 43.2775 -64.8481 43.2554C-65.0197 43.2332 -65.1802 43.2222 -65.3296 43.2222C-65.6838 43.2222 -66.0213 43.2886 -66.3423 43.4214C-66.6632 43.5542 -66.9455 43.7479 -67.189 44.0024C-67.4325 44.2515 -67.6234 44.5586 -67.7617 44.9238C-67.9001 45.2835 -67.9692 45.6958 -67.9692 46.1606V51H-69.646V41.8525H-68.3013L-68.1021 43.5044H-68.0273C-67.8392 43.1724 -67.6123 42.868 -67.3467 42.5913C-67.0755 42.3146 -66.7656 42.096 -66.417 41.9355C-66.0628 41.7695 -65.6727 41.6865 -65.2466 41.6865ZM-52.8369 44.5254H-48.4541V50.5103C-49.0905 50.7261 -49.7463 50.8893 -50.4214 51C-51.0965 51.1107 -51.8547 51.166 -52.6958 51.166C-53.9465 51.166 -55.0007 50.917 -55.8584 50.4189C-56.7161 49.9209 -57.3691 49.207 -57.8174 48.2773C-58.2601 47.3477 -58.4814 46.2298 -58.4814 44.9238C-58.4814 43.6676 -58.2352 42.5719 -57.7427 41.6367C-57.2502 40.7015 -56.5335 39.9766 -55.5928 39.4619C-54.652 38.9473 -53.5176 38.6899 -52.1895 38.6899C-51.5254 38.6899 -50.889 38.7536 -50.2803 38.8809C-49.666 39.0081 -49.1016 39.1852 -48.5869 39.4121L-49.2012 40.8481C-49.6328 40.6545 -50.1115 40.4912 -50.6372 40.3584C-51.1574 40.2201 -51.6969 40.1509 -52.2559 40.1509C-53.1855 40.1509 -53.9852 40.3473 -54.6548 40.7402C-55.3188 41.1331 -55.8307 41.6865 -56.1904 42.4004C-56.5446 43.1143 -56.7217 43.9609 -56.7217 44.9404C-56.7217 45.8978 -56.5723 46.7334 -56.2734 47.4473C-55.9746 48.1611 -55.507 48.7173 -54.8706 49.1157C-54.2342 49.5142 -53.4152 49.7134 -52.4136 49.7134C-51.91 49.7134 -51.4811 49.6857 -51.127 49.6304C-50.7673 49.575 -50.438 49.5086 -50.1392 49.4312V46.0112H-52.8369V44.5254ZM-38.6011 47.7378C-38.6011 48.4572 -38.7809 49.0742 -39.1406 49.5889C-39.4948 50.098 -39.9956 50.4881 -40.6431 50.7593C-41.2905 51.0304 -42.0597 51.166 -42.9507 51.166C-43.3989 51.166 -43.8278 51.1411 -44.2373 51.0913C-44.6413 51.047 -45.0176 50.9806 -45.3662 50.8921C-45.7148 50.8035 -46.0303 50.6929 -46.3125 50.5601V48.9497C-45.8532 49.1379 -45.3219 49.3149 -44.7188 49.481C-44.1156 49.6414 -43.493 49.7217 -42.8511 49.7217C-42.2922 49.7217 -41.8245 49.647 -41.4482 49.4976C-41.0664 49.3426 -40.7786 49.1268 -40.585 48.8501C-40.3913 48.5734 -40.2944 48.2414 -40.2944 47.854C-40.2944 47.4666 -40.3885 47.1429 -40.5767 46.8828C-40.7648 46.6172 -41.0636 46.3737 -41.4731 46.1523C-41.8771 45.931 -42.4084 45.6958 -43.0669 45.4468C-43.5262 45.2808 -43.944 45.0926 -44.3203 44.8823C-44.6966 44.6665 -45.0231 44.4202 -45.2998 44.1436C-45.571 43.8669 -45.7812 43.5431 -45.9307 43.1724C-46.0801 42.7961 -46.1548 42.3644 -46.1548 41.8774C-46.1548 41.2078 -45.9915 40.6351 -45.665 40.1592C-45.333 39.6833 -44.8709 39.3208 -44.2788 39.0718C-43.6867 38.8172 -43.0005 38.6899 -42.2202 38.6899C-41.5783 38.6899 -40.9806 38.7536 -40.4272 38.8809C-39.8683 39.0081 -39.3371 39.1825 -38.8335 39.4038L-39.373 40.8149C-39.8434 40.6213 -40.3166 40.4635 -40.7925 40.3418C-41.2684 40.2201 -41.7609 40.1592 -42.27 40.1592C-42.7404 40.1592 -43.1388 40.2284 -43.4653 40.3667C-43.7863 40.505 -44.0326 40.7015 -44.2041 40.9561C-44.3701 41.2106 -44.4531 41.5122 -44.4531 41.8608C-44.4531 42.2537 -44.3646 42.5802 -44.1875 42.8403C-44.0104 43.1004 -43.731 43.3356 -43.3491 43.5459C-42.9673 43.7562 -42.4692 43.9803 -41.855 44.2183C-41.1632 44.4839 -40.5767 44.7661 -40.0952 45.0649C-39.6082 45.3638 -39.2375 45.7235 -38.9829 46.144C-38.7284 46.5646 -38.6011 47.0959 -38.6011 47.7378ZM-32.2344 51H-33.9443V40.3335H-37.6299V38.8643H-28.5571V40.3335H-32.2344V51ZM-26.7061 51V38.8643H-25.0044V51H-26.7061ZM-11.9141 51H-13.9561L-20.2397 41.0557H-20.3062C-20.2896 41.3545 -20.2702 41.6838 -20.248 42.0435C-20.2259 42.3976 -20.2093 42.7712 -20.1982 43.1641C-20.1816 43.5514 -20.1706 43.9443 -20.165 44.3428V51H-21.7256V38.8643H-19.7002L-13.4414 48.7588H-13.3833C-13.3944 48.5153 -13.4082 48.2137 -13.4248 47.854C-13.4414 47.4943 -13.458 47.1152 -13.4746 46.7168C-13.4857 46.3128 -13.4912 45.931 -13.4912 45.5713V38.8643H-11.9141V51ZM-5.23193 47.1567V45.7124H-1.03174V47.1567H-5.23193ZM5.65039 51V38.8643H7.35205V51H5.65039ZM14.9722 41.6865C16.0291 41.6865 16.8398 41.9521 17.4043 42.4834C17.9743 43.0146 18.2593 43.8669 18.2593 45.04V51H16.6074V45.2642C16.6074 44.5337 16.4469 43.9858 16.126 43.6206C15.805 43.2498 15.3125 43.0645 14.6484 43.0645C13.7021 43.0645 13.0381 43.3439 12.6562 43.9028C12.2799 44.4618 12.0918 45.2725 12.0918 46.335V51H10.4233V41.8525H11.7432L11.9839 43.1392H12.0752C12.2689 42.8182 12.5151 42.5498 12.814 42.334C13.1128 42.1182 13.4448 41.9577 13.8101 41.8525C14.1808 41.7419 14.5682 41.6865 14.9722 41.6865ZM23.1069 51L19.6289 41.8525H21.397L23.3477 47.3062C23.4749 47.6659 23.5994 48.0588 23.7212 48.4849C23.8485 48.911 23.9342 49.2624 23.9785 49.5391H24.0366C24.092 49.2568 24.186 48.9027 24.3188 48.4766C24.4517 48.0505 24.5789 47.6603 24.7007 47.3062L26.6431 41.8525H28.4194L24.9331 51H23.1069ZM37.8408 46.4097C37.8408 47.1623 37.7412 47.8346 37.542 48.4268C37.3483 49.0133 37.0633 49.5114 36.687 49.9209C36.3162 50.3249 35.868 50.6348 35.3423 50.8506C34.8166 51.0609 34.2217 51.166 33.5576 51.166C32.9378 51.166 32.3678 51.0609 31.8477 50.8506C31.333 50.6348 30.8875 50.3249 30.5112 49.9209C30.1349 49.5114 29.8444 49.0133 29.6396 48.4268C29.4349 47.8346 29.3325 47.1623 29.3325 46.4097C29.3325 45.408 29.5041 44.5558 29.8472 43.853C30.1903 43.1447 30.68 42.6079 31.3164 42.2427C31.9583 41.8719 32.722 41.6865 33.6074 41.6865C34.4486 41.6865 35.1873 41.8719 35.8237 42.2427C36.4601 42.6134 36.9554 43.1502 37.3096 43.853C37.6637 44.5558 37.8408 45.408 37.8408 46.4097ZM31.0425 46.4097C31.0425 47.1125 31.131 47.7184 31.3081 48.2275C31.4907 48.7311 31.7674 49.1185 32.1382 49.3896C32.5145 49.6608 32.9987 49.7964 33.5908 49.7964C34.1719 49.7964 34.6506 49.6608 35.0269 49.3896C35.4032 49.1185 35.6799 48.7311 35.8569 48.2275C36.034 47.7184 36.1226 47.1125 36.1226 46.4097C36.1226 45.7124 36.034 45.1147 35.8569 44.6167C35.6799 44.1187 35.4032 43.7368 35.0269 43.4712C34.6561 43.2056 34.1719 43.0728 33.5742 43.0728C32.6999 43.0728 32.0579 43.366 31.6484 43.9526C31.2445 44.5337 31.0425 45.3527 31.0425 46.4097ZM39.916 50.0537C39.916 49.6331 40.0212 49.3371 40.2314 49.1655C40.4473 48.9884 40.7074 48.8999 41.0117 48.8999C41.3216 48.8999 41.5845 48.9884 41.8003 49.1655C42.0161 49.3371 42.124 49.6331 42.124 50.0537C42.124 50.4632 42.0161 50.762 41.8003 50.9502C41.5845 51.1383 41.3216 51.2324 41.0117 51.2324C40.7074 51.2324 40.4473 51.1383 40.2314 50.9502C40.0212 50.762 39.916 50.4632 39.916 50.0537ZM44.4814 50.0537C44.4814 49.6331 44.5866 49.3371 44.7969 49.1655C45.0127 48.9884 45.2728 48.8999 45.5771 48.8999C45.887 48.8999 46.1499 48.9884 46.3657 49.1655C46.5815 49.3371 46.6895 49.6331 46.6895 50.0537C46.6895 50.4632 46.5815 50.762 46.3657 50.9502C46.1499 51.1383 45.887 51.2324 45.5771 51.2324C45.2728 51.2324 45.0127 51.1383 44.7969 50.9502C44.5866 50.762 44.4814 50.4632 44.4814 50.0537ZM49.0469 50.0537C49.0469 49.6331 49.152 49.3371 49.3623 49.1655C49.5781 48.9884 49.8382 48.8999 50.1426 48.8999C50.4525 48.8999 50.7153 48.9884 50.9312 49.1655C51.147 49.3371 51.2549 49.6331 51.2549 50.0537C51.2549 50.4632 51.147 50.762 50.9312 50.9502C50.7153 51.1383 50.4525 51.2324 50.1426 51.2324C49.8382 51.2324 49.5781 51.1383 49.3623 50.9502C49.152 50.762 49.0469 50.4632 49.0469 50.0537Z" fill="black"/>
<line x1="87.5" y1="32" x2="87.5" y2="58" stroke="black" stroke-opacity="0.3"/>
<rect x="88" y="20" width="260" height="50" fill="white"/>
<g filter="url(#filter0_d_0_1)">
<path d="M-152 -36C-152 -38.2091 -150.209 -40 -148 -40H392V852H-148C-150.209 852 -152 850.209 -152 848V-36Z" fill="#F8F8F8"/>
<path d="M-148 -39.5H391.5V851.5H-148C-149.933 851.5 -151.5 849.933 -151.5 848V-36C-151.5 -37.933 -149.933 -39.5 -148 -39.5Z" stroke="black" stroke-opacity="0.12"/>
</g>
<rect width="106" height="43" rx="21.5" fill="#F8F8F8"/>
<rect x="0.5" y="0.5" width="105" height="42" rx="21" stroke="black" stroke-opacity="0.2"/>
<path d="M32.7498 16.1L32.7499 16.1C32.901 16.0999 33.0506 16.1296 33.1901 16.1874C33.3297 16.2451 33.4565 16.3298 33.5633 16.4366C33.6702 16.5434 33.7549 16.6702 33.8126 16.8098C33.8704 16.9493 33.9001 17.0989 33.9 17.2499V17.25V22.25C33.9 22.555 33.7788 22.8475 33.5631 23.0632C33.3474 23.2788 33.0549 23.4 32.7498 23.4C32.4448 23.4 32.1522 23.2788 31.9365 23.0632C31.7208 22.8475 31.5997 22.555 31.5997 22.25V20.2676V20.0262L31.429 20.1969L26.0621 25.5631L26.0621 25.5631C25.9553 25.6699 25.8285 25.7546 25.689 25.8124C25.5495 25.8702 25.3999 25.9 25.2489 25.9C25.0978 25.9 24.9483 25.8702 24.8088 25.8124C24.6692 25.7546 24.5425 25.6699 24.4357 25.5631L24.4357 25.5631L20.3189 21.4469L20.2482 21.3762L20.1775 21.4469L16.061 25.5629C16.0609 25.5629 16.0609 25.5629 16.0609 25.563C15.845 25.7776 15.5529 25.8978 15.2484 25.8974C14.944 25.897 14.6521 25.7759 14.4368 25.5606C14.2216 25.3454 14.1004 25.0535 14.1 24.7491C14.0996 24.4448 14.2198 24.1527 14.4344 23.9369C14.4345 23.9368 14.4345 23.9368 14.4346 23.9367L19.435 18.9369L19.435 18.9369C19.5418 18.8301 19.6686 18.7454 19.8081 18.6876C19.9476 18.6298 20.0972 18.6 20.2482 18.6C20.3993 18.6 20.5488 18.6298 20.6883 18.6876C20.8279 18.7454 20.9546 18.8301 21.0614 18.9369L21.0614 18.9369L25.1782 23.0531L25.2489 23.1238L25.3196 23.0531L29.8026 18.5707L29.9733 18.4H29.7319H27.7492C27.4441 18.4 27.1516 18.2788 26.9359 18.0632C26.7202 17.8475 26.599 17.555 26.599 17.25C26.599 16.945 26.7202 16.6525 26.9359 16.4368C27.1516 16.2212 27.4441 16.1 27.7492 16.1L32.7498 16.1Z" fill="#808080" stroke="white" stroke-width="0.2"/>
<path opacity="0.6" d="M49.5581 24.7378C49.5581 25.4572 49.3783 26.0742 49.0186 26.5889C48.6644 27.098 48.1636 27.4881 47.5161 27.7593C46.8687 28.0304 46.0994 28.166 45.2085 28.166C44.7603 28.166 44.3314 28.1411 43.9219 28.0913C43.5179 28.047 43.1416 27.9806 42.793 27.8921C42.4443 27.8035 42.1289 27.6929 41.8467 27.5601V25.9497C42.306 26.1379 42.8372 26.3149 43.4404 26.481C44.0436 26.6414 44.6662 26.7217 45.3081 26.7217C45.867 26.7217 46.3346 26.647 46.7109 26.4976C47.0928 26.3426 47.3805 26.1268 47.5742 25.8501C47.7679 25.5734 47.8647 25.2414 47.8647 24.854C47.8647 24.4666 47.7707 24.1429 47.5825 23.8828C47.3944 23.6172 47.0955 23.3737 46.686 23.1523C46.2821 22.931 45.7508 22.6958 45.0923 22.4468C44.633 22.2808 44.2152 22.0926 43.8389 21.8823C43.4626 21.6665 43.1361 21.4202 42.8594 21.1436C42.5882 20.8669 42.3779 20.5431 42.2285 20.1724C42.0791 19.7961 42.0044 19.3644 42.0044 18.8774C42.0044 18.2078 42.1676 17.6351 42.4941 17.1592C42.8262 16.6833 43.2882 16.3208 43.8804 16.0718C44.4725 15.8172 45.1587 15.6899 45.939 15.6899C46.5809 15.6899 47.1785 15.7536 47.7319 15.8809C48.2909 16.0081 48.8221 16.1825 49.3257 16.4038L48.7861 17.8149C48.3158 17.6213 47.8426 17.4635 47.3667 17.3418C46.8908 17.2201 46.3983 17.1592 45.8892 17.1592C45.4188 17.1592 45.0203 17.2284 44.6938 17.3667C44.3729 17.505 44.1266 17.7015 43.9551 17.9561C43.7891 18.2106 43.7061 18.5122 43.7061 18.8608C43.7061 19.2537 43.7946 19.5802 43.9717 19.8403C44.1488 20.1004 44.4282 20.3356 44.8101 20.5459C45.1919 20.7562 45.6899 20.9803 46.3042 21.2183C46.9959 21.4839 47.5825 21.7661 48.064 22.0649C48.5509 22.3638 48.9217 22.7235 49.1763 23.144C49.4308 23.5646 49.5581 24.0959 49.5581 24.7378ZM54.937 26.813C55.175 26.813 55.4157 26.7936 55.6592 26.7549C55.9027 26.7106 56.113 26.6553 56.29 26.5889V27.8672C56.1019 27.9502 55.8501 28.0194 55.5347 28.0747C55.2248 28.1356 54.9066 28.166 54.5801 28.166C54.082 28.166 53.631 28.0802 53.2271 27.9087C52.8231 27.7371 52.4993 27.4438 52.2559 27.0288C52.0179 26.6138 51.8989 26.0382 51.8989 25.3022V20.1392H50.6289V19.3672L51.957 18.7529L52.5464 16.7773H53.5757V18.8525H56.2236V20.1392H53.5757V25.2773C53.5757 25.792 53.6974 26.1766 53.9409 26.4312C54.1899 26.6857 54.522 26.813 54.937 26.813ZM61.644 18.6948C62.7729 18.6948 63.6169 18.9466 64.1758 19.4502C64.7347 19.9482 65.0142 20.7368 65.0142 21.8159V28H63.8188L63.4951 26.6719H63.4287C63.1742 27.0039 62.9085 27.2806 62.6318 27.502C62.3551 27.7233 62.0342 27.8893 61.6689 28C61.3092 28.1107 60.8693 28.166 60.3491 28.166C59.7957 28.166 59.3032 28.0664 58.8716 27.8672C58.4399 27.668 58.0996 27.3691 57.8506 26.9707C57.6071 26.5667 57.4854 26.0549 57.4854 25.4351C57.4854 24.5054 57.8423 23.7998 58.5562 23.3184C59.27 22.8369 60.3519 22.5741 61.8018 22.5298L63.3789 22.4634V21.9487C63.3789 21.2349 63.2184 20.7313 62.8975 20.438C62.582 20.1447 62.1393 19.998 61.5693 19.998C61.099 19.998 60.6479 20.0672 60.2163 20.2056C59.7847 20.3384 59.3696 20.4989 58.9712 20.687L58.4399 19.4751C58.8716 19.2537 59.3613 19.0684 59.9092 18.9189C60.4626 18.7695 61.0409 18.6948 61.644 18.6948ZM63.3623 23.5591L62.084 23.6172C61.027 23.6559 60.2827 23.833 59.8511 24.1484C59.425 24.4583 59.2119 24.8927 59.2119 25.4517C59.2119 25.9386 59.3586 26.2956 59.6519 26.5225C59.9451 26.7493 60.3325 26.8628 60.814 26.8628C61.5555 26.8628 62.1642 26.6553 62.6401 26.2402C63.1216 25.8197 63.3623 25.1999 63.3623 24.3809V23.5591ZM70.9907 26.813C71.2287 26.813 71.4694 26.7936 71.7129 26.7549C71.9564 26.7106 72.1667 26.6553 72.3438 26.5889V27.8672C72.1556 27.9502 71.9038 28.0194 71.5884 28.0747C71.2785 28.1356 70.9603 28.166 70.6338 28.166C70.1357 28.166 69.6847 28.0802 69.2808 27.9087C68.8768 27.7371 68.5531 27.4438 68.3096 27.0288C68.0716 26.6138 67.9526 26.0382 67.9526 25.3022V20.1392H66.6826V19.3672L68.0107 18.7529L68.6001 16.7773H69.6294V18.8525H72.2773V20.1392H69.6294V25.2773C69.6294 25.792 69.7511 26.1766 69.9946 26.4312C70.2437 26.6857 70.5757 26.813 70.9907 26.813ZM80.2295 25.4434C80.2295 26.0355 80.0828 26.5363 79.7896 26.9458C79.5018 27.3498 79.0812 27.6541 78.5278 27.8589C77.9744 28.0636 77.3104 28.166 76.5356 28.166C75.8937 28.166 75.3403 28.1162 74.8755 28.0166C74.4106 27.9225 73.9901 27.7842 73.6138 27.6016V26.124C74.0177 26.3177 74.4854 26.4893 75.0166 26.6387C75.5479 26.7881 76.068 26.8628 76.5771 26.8628C77.291 26.8628 77.8057 26.7493 78.1211 26.5225C78.4421 26.2956 78.6025 25.9884 78.6025 25.6011C78.6025 25.3742 78.5389 25.175 78.4116 25.0034C78.2843 24.8263 78.0602 24.652 77.7393 24.4805C77.4238 24.3034 76.9701 24.1014 76.3779 23.8745C75.7969 23.6476 75.2988 23.4207 74.8838 23.1938C74.4743 22.967 74.1616 22.693 73.9458 22.3721C73.73 22.0511 73.6221 21.6361 73.6221 21.127C73.6221 20.3356 73.9375 19.7324 74.5684 19.3174C75.2048 18.8968 76.0431 18.6865 77.0835 18.6865C77.6369 18.6865 78.1571 18.7419 78.644 18.8525C79.1366 18.9632 79.6069 19.1182 80.0552 19.3174L79.5156 20.604C79.1172 20.4325 78.7077 20.2913 78.2871 20.1807C77.8665 20.0645 77.4377 20.0063 77.0005 20.0063C76.4305 20.0063 75.9933 20.0977 75.689 20.2803C75.3901 20.4629 75.2407 20.7147 75.2407 21.0356C75.2407 21.2847 75.3099 21.4922 75.4482 21.6582C75.5921 21.8242 75.8301 21.9875 76.1621 22.1479C76.4941 22.3029 76.9424 22.4883 77.5068 22.7041C78.0658 22.9144 78.5472 23.133 78.9512 23.3599C79.3607 23.5868 79.6761 23.8634 79.8975 24.1899C80.1188 24.5164 80.2295 24.9342 80.2295 25.4434Z" fill="black"/>
</g>
<defs>
<filter id="filter0_d_0_1" x="-172" y="-52" width="584" height="932" filterUnits="userSpaceOnUse" color-interpolation-filters="sRGB">
<feFlood flood-opacity="0" result="BackgroundImageFix"/>
<feColorMatrix in="SourceAlpha" type="matrix" values="0 0 0 0 0 0 0 0 0 0 0 0 0 0 0 0 0 0 127 0" result="hardAlpha"/>
<feOffset dy="8"/>
<feGaussianBlur stdDeviation="10"/>
<feColorMatrix type="matrix" values="0 0 0 0 0 0 0 0 0 0 0 0 0 0 0 0 0 0 0.15 0"/>
<feBlend mode="normal" in2="BackgroundImageFix" result="effect1_dropShadow_0_1"/>
<feBlend mode="normal" in="SourceGraphic" in2="effect1_dropShadow_0_1" result="shape"/>
</filter>
<clipPath id="clip0_0_1">
<rect width="1920" height="1024" fill="white" transform="translate(-1528 -172)"/>
</clipPath>
</defs>
</svg>
