<svg width="484" height="52" viewBox="0 0 484 52" fill="none" xmlns="http://www.w3.org/2000/svg">
<rect width="484" height="52" fill="#E5E5E5"/>
<g clip-path="url(#clip0_0_1)">
<rect width="1920" height="1024" transform="translate(-1406 -944)" fill="white"/>
<rect x="-1356" y="-28" width="1820" height="50" fill="white"/>
<rect x="-51" y="-28" width="260" height="50" fill="white"/>
<path d="M-12.1182 3H-20.2031V1.68848L-17.0073 -1.55713C-16.3986 -2.17139 -15.895 -2.70817 -15.4966 -3.16748C-15.0926 -3.63232 -14.7882 -4.08057 -14.5835 -4.51221C-14.3787 -4.94938 -14.2764 -5.42529 -14.2764 -5.93994C-14.2764 -6.5708 -14.4618 -7.05225 -14.8325 -7.38428C-15.2033 -7.71631 -15.6958 -7.88232 -16.3101 -7.88232C-16.8634 -7.88232 -17.3643 -7.77995 -17.8125 -7.5752C-18.2552 -7.37598 -18.7145 -7.08822 -19.1904 -6.71191L-20.0869 -7.82422C-19.7604 -8.10091 -19.4062 -8.34993 -19.0244 -8.57129C-18.6426 -8.79818 -18.2248 -8.97803 -17.771 -9.11084C-17.3172 -9.24365 -16.8136 -9.31006 -16.2603 -9.31006C-15.5021 -9.31006 -14.8491 -9.17725 -14.3013 -8.91162C-13.7479 -8.646 -13.3218 -8.26969 -13.0229 -7.78271C-12.7241 -7.29574 -12.5747 -6.72575 -12.5747 -6.07275C-12.5747 -5.42529 -12.7048 -4.82487 -12.9648 -4.27148C-13.2194 -3.72363 -13.5819 -3.17855 -14.0522 -2.63623C-14.5226 -2.09391 -15.0788 -1.51562 -15.7207 -0.901367L-18.0864 1.43945V1.51416H-12.1182V3ZM-2.38965 -3.96436C-2.38965 -3.23942 -2.44222 -2.52832 -2.54736 -1.83105C-2.64697 -1.13932 -2.82129 -0.489095 -3.07031 0.119629C-3.3138 0.722819 -3.65137 1.25407 -4.08301 1.71338C-4.51465 2.16715 -5.05697 2.52409 -5.70996 2.78418C-6.36296 3.04427 -7.14323 3.17432 -8.05078 3.17432C-8.28874 3.17432 -8.56266 3.16048 -8.87256 3.13281C-9.18245 3.10514 -9.43701 3.06364 -9.63623 3.0083V1.59717C-9.42594 1.66911 -9.18522 1.72445 -8.91406 1.76318C-8.6429 1.80192 -8.37728 1.82129 -8.11719 1.82129C-7.08789 1.82129 -6.28271 1.61377 -5.70166 1.19873C-5.12061 0.783691 -4.70557 0.219238 -4.45654 -0.494629C-4.20199 -1.21403 -4.05811 -2.02751 -4.0249 -2.93506H-4.12451C-4.29053 -2.66943 -4.50081 -2.42594 -4.75537 -2.20459C-5.00993 -1.98324 -5.32259 -1.80615 -5.69336 -1.67334C-6.06413 -1.54053 -6.50684 -1.47412 -7.02148 -1.47412C-7.71875 -1.47412 -8.32747 -1.618 -8.84766 -1.90576C-9.36784 -2.19906 -9.77181 -2.6224 -10.0596 -3.17578C-10.3473 -3.72917 -10.4912 -4.39876 -10.4912 -5.18457C-10.4912 -6.03125 -10.3307 -6.76172 -10.0098 -7.37598C-9.6888 -7.99577 -9.23503 -8.47168 -8.64844 -8.80371C-8.06185 -9.13574 -7.37012 -9.30176 -6.57324 -9.30176C-5.97005 -9.30176 -5.4139 -9.18831 -4.90479 -8.96143C-4.39567 -8.74007 -3.95296 -8.40527 -3.57666 -7.95703C-3.20036 -7.51432 -2.90983 -6.95817 -2.70508 -6.28857C-2.49479 -5.62451 -2.38965 -4.84977 -2.38965 -3.96436ZM-6.55664 -7.90723C-7.2373 -7.90723 -7.78792 -7.68311 -8.2085 -7.23486C-8.62907 -6.79215 -8.83936 -6.11702 -8.83936 -5.20947C-8.83936 -4.45687 -8.65951 -3.86198 -8.2998 -3.4248C-7.93457 -2.99316 -7.37565 -2.77734 -6.62305 -2.77734C-6.10286 -2.77734 -5.65462 -2.88249 -5.27832 -3.09277C-4.89648 -3.30859 -4.60319 -3.57975 -4.39844 -3.90625C-4.18815 -4.23275 -4.08301 -4.56755 -4.08301 -4.91064C-4.08301 -5.25374 -4.13281 -5.59961 -4.23242 -5.94824C-4.33203 -6.30241 -4.48421 -6.62614 -4.68896 -6.91943C-4.89372 -7.21826 -5.15104 -7.45622 -5.46094 -7.6333C-5.77083 -7.81592 -6.13607 -7.90723 -6.55664 -7.90723ZM7.6543 3L6.30957 -0.61084H1.55322L0.225098 3H-1.54297L3.08887 -9.18555H4.83203L9.43896 3H7.6543ZM5.83643 -2.08838L4.55811 -5.66602C4.51937 -5.78776 4.4585 -5.97038 4.37549 -6.21387C4.29801 -6.45736 4.21777 -6.70915 4.13477 -6.96924C4.05729 -7.22933 3.99365 -7.44515 3.94385 -7.6167C3.88851 -7.38981 3.82487 -7.14909 3.75293 -6.89453C3.68099 -6.64551 3.60905 -6.41032 3.53711 -6.18896C3.4707 -5.97314 3.41536 -5.79883 3.37109 -5.66602L2.07617 -2.08838H5.83643ZM18.6611 3L17.3164 -0.61084H12.5601L11.2319 3H9.46387L14.0957 -9.18555H15.8389L20.4458 3H18.6611ZM16.8433 -2.08838L15.5649 -5.66602C15.5262 -5.78776 15.4653 -5.97038 15.3823 -6.21387C15.3049 -6.45736 15.2246 -6.70915 15.1416 -6.96924C15.0641 -7.22933 15.0005 -7.44515 14.9507 -7.6167C14.8953 -7.38981 14.8317 -7.14909 14.7598 -6.89453C14.6878 -6.64551 14.6159 -6.41032 14.5439 -6.18896C14.4775 -5.97314 14.4222 -5.79883 14.3779 -5.66602L13.083 -2.08838H16.8433ZM22.0977 -9.13574H25.6172C27.1611 -9.13574 28.3232 -8.90885 29.1035 -8.45508C29.8838 -8.0013 30.2739 -7.2238 30.2739 -6.12256C30.2739 -5.65218 30.1882 -5.23161 30.0166 -4.86084C29.8451 -4.49007 29.596 -4.18294 29.2695 -3.93945C28.943 -3.69596 28.5418 -3.52995 28.0659 -3.44141V-3.3584C28.564 -3.27539 29.0067 -3.12598 29.394 -2.91016C29.7814 -2.69434 30.0858 -2.38721 30.3071 -1.98877C30.534 -1.59587 30.6475 -1.08952 30.6475 -0.469727C30.6475 0.27181 30.4731 0.902669 30.1245 1.42285C29.7759 1.9375 29.2806 2.3304 28.6387 2.60156C28.0023 2.86719 27.2441 3 26.3643 3H22.0977V-9.13574ZM23.7993 -4.03076H25.916C26.8955 -4.03076 27.5734 -4.19124 27.9497 -4.51221C28.326 -4.83317 28.5142 -5.30078 28.5142 -5.91504C28.5142 -6.55143 28.29 -7.00798 27.8418 -7.28467C27.3936 -7.56689 26.6825 -7.70801 25.7085 -7.70801H23.7993V-4.03076ZM23.7993 -2.62793V1.56396H26.1152C27.1169 1.56396 27.8224 1.36751 28.2319 0.974609C28.647 0.581706 28.8545 0.0532227 28.8545 -0.61084C28.8545 -1.03141 28.7604 -1.39111 28.5723 -1.68994C28.3896 -1.9943 28.0908 -2.22673 27.6758 -2.38721C27.2607 -2.54769 26.7018 -2.62793 25.999 -2.62793H23.7993ZM38.3672 -7.84082C37.7419 -7.84082 37.1802 -7.73014 36.6821 -7.50879C36.1896 -7.29297 35.7718 -6.97477 35.4287 -6.5542C35.0856 -6.13916 34.8228 -5.63835 34.6401 -5.05176C34.4575 -4.46517 34.3662 -3.80387 34.3662 -3.06787C34.3662 -2.08838 34.5101 -1.2417 34.7979 -0.527832C35.0911 0.186035 35.5311 0.736654 36.1177 1.12402C36.7043 1.51139 37.443 1.70508 38.334 1.70508C38.8652 1.70508 39.3716 1.65804 39.853 1.56396C40.34 1.46436 40.8242 1.33708 41.3057 1.18213V2.64307C40.8408 2.82015 40.3594 2.9502 39.8613 3.0332C39.3688 3.12174 38.7905 3.16602 38.1265 3.16602C36.8869 3.16602 35.8548 2.90869 35.0303 2.39404C34.2113 1.87939 33.5998 1.15723 33.1958 0.227539C32.7918 -0.707682 32.5898 -1.80892 32.5898 -3.07617C32.5898 -3.99479 32.7171 -4.83317 32.9717 -5.59131C33.2262 -6.35498 33.5998 -7.01351 34.0923 -7.56689C34.5848 -8.12581 35.188 -8.55469 35.9019 -8.85352C36.6213 -9.15788 37.4486 -9.31006 38.3838 -9.31006C38.9925 -9.31006 39.5846 -9.24365 40.1602 -9.11084C40.7412 -8.98356 41.2752 -8.80371 41.7622 -8.57129L41.1313 -7.15186C40.7274 -7.33447 40.293 -7.49495 39.8281 -7.6333C39.3688 -7.77165 38.8818 -7.84082 38.3672 -7.84082ZM43.9287 3V-9.13574H45.6304V3H43.9287ZM56.1641 3H48.0791V1.68848L51.2749 -1.55713C51.8836 -2.17139 52.3872 -2.70817 52.7856 -3.16748C53.1896 -3.63232 53.494 -4.08057 53.6987 -4.51221C53.9035 -4.94938 54.0059 -5.42529 54.0059 -5.93994C54.0059 -6.5708 53.8205 -7.05225 53.4497 -7.38428C53.0789 -7.71631 52.5864 -7.88232 51.9722 -7.88232C51.4188 -7.88232 50.918 -7.77995 50.4697 -7.5752C50.027 -7.37598 49.5677 -7.08822 49.0918 -6.71191L48.1953 -7.82422C48.5218 -8.10091 48.876 -8.34993 49.2578 -8.57129C49.6396 -8.79818 50.0575 -8.97803 50.5112 -9.11084C50.965 -9.24365 51.4686 -9.31006 52.022 -9.31006C52.7801 -9.31006 53.4331 -9.17725 53.981 -8.91162C54.5343 -8.646 54.9604 -8.26969 55.2593 -7.78271C55.5581 -7.29574 55.7075 -6.72575 55.7075 -6.07275C55.7075 -5.42529 55.5775 -4.82487 55.3174 -4.27148C55.0628 -3.72363 54.7004 -3.17855 54.23 -2.63623C53.7596 -2.09391 53.2035 -1.51562 52.5615 -0.901367L50.1958 1.43945V1.51416H56.1641V3ZM59.2852 3L64.166 -7.6499H57.708V-9.13574H65.9507V-7.94043L61.0947 3H59.2852ZM75.6211 3H67.5361V1.68848L70.7319 -1.55713C71.3407 -2.17139 71.8442 -2.70817 72.2427 -3.16748C72.6466 -3.63232 72.951 -4.08057 73.1558 -4.51221C73.3605 -4.94938 73.4629 -5.42529 73.4629 -5.93994C73.4629 -6.5708 73.2775 -7.05225 72.9067 -7.38428C72.536 -7.71631 72.0435 -7.88232 71.4292 -7.88232C70.8758 -7.88232 70.375 -7.77995 69.9268 -7.5752C69.484 -7.37598 69.0247 -7.08822 68.5488 -6.71191L67.6523 -7.82422C67.9788 -8.10091 68.333 -8.34993 68.7148 -8.57129C69.0967 -8.79818 69.5145 -8.97803 69.9683 -9.11084C70.422 -9.24365 70.9256 -9.31006 71.479 -9.31006C72.2371 -9.31006 72.8901 -9.17725 73.438 -8.91162C73.9914 -8.646 74.4175 -8.26969 74.7163 -7.78271C75.0151 -7.29574 75.1646 -6.72575 75.1646 -6.07275C75.1646 -5.42529 75.0345 -4.82487 74.7744 -4.27148C74.5199 -3.72363 74.1574 -3.17855 73.687 -2.63623C73.2166 -2.09391 72.6605 -1.51562 72.0186 -0.901367L69.6528 1.43945V1.51416H75.6211V3ZM77.3394 -2.17969C77.3394 -2.90462 77.3892 -3.61296 77.4888 -4.30469C77.5939 -4.99642 77.7682 -5.64388 78.0117 -6.24707C78.2607 -6.85026 78.6011 -7.37874 79.0327 -7.83252C79.4644 -8.29183 80.0039 -8.65153 80.6514 -8.91162C81.2988 -9.17171 82.0791 -9.30176 82.9922 -9.30176C83.2357 -9.30176 83.5041 -9.29069 83.7974 -9.26855C84.0962 -9.24642 84.3424 -9.20768 84.5361 -9.15234V-7.74951C84.3258 -7.81592 84.0907 -7.86572 83.8306 -7.89893C83.5705 -7.93213 83.3104 -7.94873 83.0503 -7.94873C82.0265 -7.94873 81.2241 -7.73844 80.6431 -7.31787C80.062 -6.90283 79.647 -6.33561 79.3979 -5.61621C79.1489 -4.90234 79.005 -4.0944 78.9663 -3.19238H79.0576C79.2236 -3.46354 79.4367 -3.7098 79.6968 -3.93115C79.9569 -4.15251 80.2695 -4.32682 80.6348 -4.4541C81.0055 -4.58691 81.4372 -4.65332 81.9297 -4.65332C82.638 -4.65332 83.255 -4.50667 83.7808 -4.21338C84.3065 -3.92562 84.7132 -3.50505 85.001 -2.95166C85.2887 -2.39827 85.4326 -1.72591 85.4326 -0.93457C85.4326 -0.0934245 85.2749 0.634277 84.9595 1.24854C84.644 1.86279 84.193 2.33594 83.6064 2.66797C83.0254 3 82.3309 3.16602 81.5229 3.16602C80.9253 3.16602 80.3719 3.05534 79.8628 2.83398C79.3537 2.6071 78.911 2.2723 78.5347 1.82959C78.1584 1.38135 77.8651 0.825195 77.6548 0.161133C77.4445 -0.508464 77.3394 -1.28874 77.3394 -2.17969ZM81.498 1.77979C82.1898 1.77979 82.7432 1.55843 83.1582 1.11572C83.5788 0.66748 83.7891 -0.0131836 83.7891 -0.92627C83.7891 -1.67334 83.6037 -2.2627 83.2329 -2.69434C82.8621 -3.13151 82.3032 -3.3501 81.5562 -3.3501C81.047 -3.3501 80.6016 -3.24219 80.2197 -3.02637C79.8434 -2.81055 79.5501 -2.53939 79.3398 -2.21289C79.1351 -1.89193 79.0327 -1.56266 79.0327 -1.2251C79.0327 -0.876465 79.0825 -0.525065 79.1821 -0.170898C79.2817 0.177734 79.4339 0.501465 79.6387 0.800293C79.8434 1.09359 80.1007 1.33154 80.4106 1.51416C80.7205 1.69124 81.083 1.77979 81.498 1.77979ZM87.8232 -9.13574H91.3428C92.8867 -9.13574 94.0488 -8.90885 94.8291 -8.45508C95.6094 -8.0013 95.9995 -7.2238 95.9995 -6.12256C95.9995 -5.65218 95.9137 -5.23161 95.7422 -4.86084C95.5706 -4.49007 95.3216 -4.18294 94.9951 -3.93945C94.6686 -3.69596 94.2674 -3.52995 93.7915 -3.44141V-3.3584C94.2896 -3.27539 94.7323 -3.12598 95.1196 -2.91016C95.507 -2.69434 95.8114 -2.38721 96.0327 -1.98877C96.2596 -1.59587 96.373 -1.08952 96.373 -0.469727C96.373 0.27181 96.1987 0.902669 95.8501 1.42285C95.5015 1.9375 95.0062 2.3304 94.3643 2.60156C93.7279 2.86719 92.9697 3 92.0898 3H87.8232V-9.13574ZM89.5249 -4.03076H91.6416C92.6211 -4.03076 93.299 -4.19124 93.6753 -4.51221C94.0516 -4.83317 94.2397 -5.30078 94.2397 -5.91504C94.2397 -6.55143 94.0156 -7.00798 93.5674 -7.28467C93.1191 -7.56689 92.408 -7.70801 91.4341 -7.70801H89.5249V-4.03076ZM89.5249 -2.62793V1.56396H91.8408C92.8424 1.56396 93.548 1.36751 93.9575 0.974609C94.3726 0.581706 94.5801 0.0532227 94.5801 -0.61084C94.5801 -1.03141 94.486 -1.39111 94.2979 -1.68994C94.1152 -1.9943 93.8164 -2.22673 93.4014 -2.38721C92.9863 -2.54769 92.4274 -2.62793 91.7246 -2.62793H89.5249ZM103.52 3H101.868V-5.20947C101.868 -5.50277 101.868 -5.77116 101.868 -6.01465C101.874 -6.26367 101.882 -6.49886 101.893 -6.72021C101.904 -6.9471 101.915 -7.16569 101.926 -7.37598C101.782 -7.22656 101.63 -7.08268 101.47 -6.94434C101.315 -6.81152 101.135 -6.65934 100.93 -6.48779L99.5439 -5.36719L98.689 -6.46289L102.134 -9.13574H103.52V3ZM116.179 3H107.604V1.78809L113.954 -7.6582H107.812V-9.13574H116.013V-7.92383L109.654 1.52246H116.179V3ZM121.674 -3.3252L124.729 -9.13574H126.555L122.521 -1.71484V3H120.819V-1.64014L116.776 -9.13574H118.636L121.674 -3.3252Z" fill="black"/>
<line x1="209.5" y1="-28" x2="209.5" y2="22" stroke="black" stroke-opacity="0.3"/>
<rect x="210" y="-28" width="260" height="50" fill="white"/>
<path d="M248.882 3H240.797V1.68848L243.993 -1.55713C244.601 -2.17139 245.105 -2.70817 245.503 -3.16748C245.907 -3.63232 246.212 -4.08057 246.417 -4.51221C246.621 -4.94938 246.724 -5.42529 246.724 -5.93994C246.724 -6.5708 246.538 -7.05225 246.167 -7.38428C245.797 -7.71631 245.304 -7.88232 244.69 -7.88232C244.137 -7.88232 243.636 -7.77995 243.188 -7.5752C242.745 -7.37598 242.285 -7.08822 241.81 -6.71191L240.913 -7.82422C241.24 -8.10091 241.594 -8.34993 241.976 -8.57129C242.357 -8.79818 242.775 -8.97803 243.229 -9.11084C243.683 -9.24365 244.186 -9.31006 244.74 -9.31006C245.498 -9.31006 246.151 -9.17725 246.699 -8.91162C247.252 -8.646 247.678 -8.26969 247.977 -7.78271C248.276 -7.29574 248.425 -6.72575 248.425 -6.07275C248.425 -5.42529 248.295 -4.82487 248.035 -4.27148C247.781 -3.72363 247.418 -3.17855 246.948 -2.63623C246.477 -2.09391 245.921 -1.51562 245.279 -0.901367L242.914 1.43945V1.51416H248.882V3ZM258.61 -3.96436C258.61 -3.23942 258.558 -2.52832 258.453 -1.83105C258.353 -1.13932 258.179 -0.489095 257.93 0.119629C257.686 0.722819 257.349 1.25407 256.917 1.71338C256.485 2.16715 255.943 2.52409 255.29 2.78418C254.637 3.04427 253.857 3.17432 252.949 3.17432C252.711 3.17432 252.437 3.16048 252.127 3.13281C251.818 3.10514 251.563 3.06364 251.364 3.0083V1.59717C251.574 1.66911 251.815 1.72445 252.086 1.76318C252.357 1.80192 252.623 1.82129 252.883 1.82129C253.912 1.82129 254.717 1.61377 255.298 1.19873C255.879 0.783691 256.294 0.219238 256.543 -0.494629C256.798 -1.21403 256.942 -2.02751 256.975 -2.93506H256.875C256.709 -2.66943 256.499 -2.42594 256.245 -2.20459C255.99 -1.98324 255.677 -1.80615 255.307 -1.67334C254.936 -1.54053 254.493 -1.47412 253.979 -1.47412C253.281 -1.47412 252.673 -1.618 252.152 -1.90576C251.632 -2.19906 251.228 -2.6224 250.94 -3.17578C250.653 -3.72917 250.509 -4.39876 250.509 -5.18457C250.509 -6.03125 250.669 -6.76172 250.99 -7.37598C251.311 -7.99577 251.765 -8.47168 252.352 -8.80371C252.938 -9.13574 253.63 -9.30176 254.427 -9.30176C255.03 -9.30176 255.586 -9.18831 256.095 -8.96143C256.604 -8.74007 257.047 -8.40527 257.423 -7.95703C257.8 -7.51432 258.09 -6.95817 258.295 -6.28857C258.505 -5.62451 258.61 -4.84977 258.61 -3.96436ZM254.443 -7.90723C253.763 -7.90723 253.212 -7.68311 252.792 -7.23486C252.371 -6.79215 252.161 -6.11702 252.161 -5.20947C252.161 -4.45687 252.34 -3.86198 252.7 -3.4248C253.065 -2.99316 253.624 -2.77734 254.377 -2.77734C254.897 -2.77734 255.345 -2.88249 255.722 -3.09277C256.104 -3.30859 256.397 -3.57975 256.602 -3.90625C256.812 -4.23275 256.917 -4.56755 256.917 -4.91064C256.917 -5.25374 256.867 -5.59961 256.768 -5.94824C256.668 -6.30241 256.516 -6.62614 256.311 -6.91943C256.106 -7.21826 255.849 -7.45622 255.539 -7.6333C255.229 -7.81592 254.864 -7.90723 254.443 -7.90723ZM268.654 3L267.31 -0.61084H262.553L261.225 3H259.457L264.089 -9.18555H265.832L270.439 3H268.654ZM266.836 -2.08838L265.558 -5.66602C265.519 -5.78776 265.458 -5.97038 265.375 -6.21387C265.298 -6.45736 265.218 -6.70915 265.135 -6.96924C265.057 -7.22933 264.994 -7.44515 264.944 -7.6167C264.889 -7.38981 264.825 -7.14909 264.753 -6.89453C264.681 -6.64551 264.609 -6.41032 264.537 -6.18896C264.471 -5.97314 264.415 -5.79883 264.371 -5.66602L263.076 -2.08838H266.836ZM279.661 3L278.316 -0.61084H273.56L272.232 3H270.464L275.096 -9.18555H276.839L281.446 3H279.661ZM277.843 -2.08838L276.565 -5.66602C276.526 -5.78776 276.465 -5.97038 276.382 -6.21387C276.305 -6.45736 276.225 -6.70915 276.142 -6.96924C276.064 -7.22933 276 -7.44515 275.951 -7.6167C275.895 -7.38981 275.832 -7.14909 275.76 -6.89453C275.688 -6.64551 275.616 -6.41032 275.544 -6.18896C275.478 -5.97314 275.422 -5.79883 275.378 -5.66602L274.083 -2.08838H277.843ZM283.098 -9.13574H286.617C288.161 -9.13574 289.323 -8.90885 290.104 -8.45508C290.884 -8.0013 291.274 -7.2238 291.274 -6.12256C291.274 -5.65218 291.188 -5.23161 291.017 -4.86084C290.845 -4.49007 290.596 -4.18294 290.27 -3.93945C289.943 -3.69596 289.542 -3.52995 289.066 -3.44141V-3.3584C289.564 -3.27539 290.007 -3.12598 290.394 -2.91016C290.781 -2.69434 291.086 -2.38721 291.307 -1.98877C291.534 -1.59587 291.647 -1.08952 291.647 -0.469727C291.647 0.27181 291.473 0.902669 291.125 1.42285C290.776 1.9375 290.281 2.3304 289.639 2.60156C289.002 2.86719 288.244 3 287.364 3H283.098V-9.13574ZM284.799 -4.03076H286.916C287.896 -4.03076 288.573 -4.19124 288.95 -4.51221C289.326 -4.83317 289.514 -5.30078 289.514 -5.91504C289.514 -6.55143 289.29 -7.00798 288.842 -7.28467C288.394 -7.56689 287.682 -7.70801 286.708 -7.70801H284.799V-4.03076ZM284.799 -2.62793V1.56396H287.115C288.117 1.56396 288.822 1.36751 289.232 0.974609C289.647 0.581706 289.854 0.0532227 289.854 -0.61084C289.854 -1.03141 289.76 -1.39111 289.572 -1.68994C289.39 -1.9943 289.091 -2.22673 288.676 -2.38721C288.261 -2.54769 287.702 -2.62793 286.999 -2.62793H284.799ZM299.367 -7.84082C298.742 -7.84082 298.18 -7.73014 297.682 -7.50879C297.19 -7.29297 296.772 -6.97477 296.429 -6.5542C296.086 -6.13916 295.823 -5.63835 295.64 -5.05176C295.458 -4.46517 295.366 -3.80387 295.366 -3.06787C295.366 -2.08838 295.51 -1.2417 295.798 -0.527832C296.091 0.186035 296.531 0.736654 297.118 1.12402C297.704 1.51139 298.443 1.70508 299.334 1.70508C299.865 1.70508 300.372 1.65804 300.853 1.56396C301.34 1.46436 301.824 1.33708 302.306 1.18213V2.64307C301.841 2.82015 301.359 2.9502 300.861 3.0332C300.369 3.12174 299.791 3.16602 299.126 3.16602C297.887 3.16602 296.855 2.90869 296.03 2.39404C295.211 1.87939 294.6 1.15723 294.196 0.227539C293.792 -0.707682 293.59 -1.80892 293.59 -3.07617C293.59 -3.99479 293.717 -4.83317 293.972 -5.59131C294.226 -6.35498 294.6 -7.01351 295.092 -7.56689C295.585 -8.12581 296.188 -8.55469 296.902 -8.85352C297.621 -9.15788 298.449 -9.31006 299.384 -9.31006C299.993 -9.31006 300.585 -9.24365 301.16 -9.11084C301.741 -8.98356 302.275 -8.80371 302.762 -8.57129L302.131 -7.15186C301.727 -7.33447 301.293 -7.49495 300.828 -7.6333C300.369 -7.77165 299.882 -7.84082 299.367 -7.84082ZM304.929 3V-9.13574H306.63V3H304.929ZM317.164 3H309.079V1.68848L312.275 -1.55713C312.884 -2.17139 313.387 -2.70817 313.786 -3.16748C314.19 -3.63232 314.494 -4.08057 314.699 -4.51221C314.903 -4.94938 315.006 -5.42529 315.006 -5.93994C315.006 -6.5708 314.82 -7.05225 314.45 -7.38428C314.079 -7.71631 313.586 -7.88232 312.972 -7.88232C312.419 -7.88232 311.918 -7.77995 311.47 -7.5752C311.027 -7.37598 310.568 -7.08822 310.092 -6.71191L309.195 -7.82422C309.522 -8.10091 309.876 -8.34993 310.258 -8.57129C310.64 -8.79818 311.057 -8.97803 311.511 -9.11084C311.965 -9.24365 312.469 -9.31006 313.022 -9.31006C313.78 -9.31006 314.433 -9.17725 314.981 -8.91162C315.534 -8.646 315.96 -8.26969 316.259 -7.78271C316.558 -7.29574 316.708 -6.72575 316.708 -6.07275C316.708 -5.42529 316.577 -4.82487 316.317 -4.27148C316.063 -3.72363 315.7 -3.17855 315.23 -2.63623C314.76 -2.09391 314.203 -1.51562 313.562 -0.901367L311.196 1.43945V1.51416H317.164V3ZM320.285 3L325.166 -7.6499H318.708V-9.13574H326.951V-7.94043L322.095 3H320.285ZM336.621 3H328.536V1.68848L331.732 -1.55713C332.341 -2.17139 332.844 -2.70817 333.243 -3.16748C333.647 -3.63232 333.951 -4.08057 334.156 -4.51221C334.361 -4.94938 334.463 -5.42529 334.463 -5.93994C334.463 -6.5708 334.278 -7.05225 333.907 -7.38428C333.536 -7.71631 333.043 -7.88232 332.429 -7.88232C331.876 -7.88232 331.375 -7.77995 330.927 -7.5752C330.484 -7.37598 330.025 -7.08822 329.549 -6.71191L328.652 -7.82422C328.979 -8.10091 329.333 -8.34993 329.715 -8.57129C330.097 -8.79818 330.514 -8.97803 330.968 -9.11084C331.422 -9.24365 331.926 -9.31006 332.479 -9.31006C333.237 -9.31006 333.89 -9.17725 334.438 -8.91162C334.991 -8.646 335.417 -8.26969 335.716 -7.78271C336.015 -7.29574 336.165 -6.72575 336.165 -6.07275C336.165 -5.42529 336.035 -4.82487 335.774 -4.27148C335.52 -3.72363 335.157 -3.17855 334.687 -2.63623C334.217 -2.09391 333.66 -1.51562 333.019 -0.901367L330.653 1.43945V1.51416H336.621V3ZM338.339 -2.17969C338.339 -2.90462 338.389 -3.61296 338.489 -4.30469C338.594 -4.99642 338.768 -5.64388 339.012 -6.24707C339.261 -6.85026 339.601 -7.37874 340.033 -7.83252C340.464 -8.29183 341.004 -8.65153 341.651 -8.91162C342.299 -9.17171 343.079 -9.30176 343.992 -9.30176C344.236 -9.30176 344.504 -9.29069 344.797 -9.26855C345.096 -9.24642 345.342 -9.20768 345.536 -9.15234V-7.74951C345.326 -7.81592 345.091 -7.86572 344.831 -7.89893C344.57 -7.93213 344.31 -7.94873 344.05 -7.94873C343.027 -7.94873 342.224 -7.73844 341.643 -7.31787C341.062 -6.90283 340.647 -6.33561 340.398 -5.61621C340.149 -4.90234 340.005 -4.0944 339.966 -3.19238H340.058C340.224 -3.46354 340.437 -3.7098 340.697 -3.93115C340.957 -4.15251 341.27 -4.32682 341.635 -4.4541C342.006 -4.58691 342.437 -4.65332 342.93 -4.65332C343.638 -4.65332 344.255 -4.50667 344.781 -4.21338C345.306 -3.92562 345.713 -3.50505 346.001 -2.95166C346.289 -2.39827 346.433 -1.72591 346.433 -0.93457C346.433 -0.0934245 346.275 0.634277 345.959 1.24854C345.644 1.86279 345.193 2.33594 344.606 2.66797C344.025 3 343.331 3.16602 342.523 3.16602C341.925 3.16602 341.372 3.05534 340.863 2.83398C340.354 2.6071 339.911 2.2723 339.535 1.82959C339.158 1.38135 338.865 0.825195 338.655 0.161133C338.444 -0.508464 338.339 -1.28874 338.339 -2.17969ZM342.498 1.77979C343.19 1.77979 343.743 1.55843 344.158 1.11572C344.579 0.66748 344.789 -0.0131836 344.789 -0.92627C344.789 -1.67334 344.604 -2.2627 344.233 -2.69434C343.862 -3.13151 343.303 -3.3501 342.556 -3.3501C342.047 -3.3501 341.602 -3.24219 341.22 -3.02637C340.843 -2.81055 340.55 -2.53939 340.34 -2.21289C340.135 -1.89193 340.033 -1.56266 340.033 -1.2251C340.033 -0.876465 340.083 -0.525065 340.182 -0.170898C340.282 0.177734 340.434 0.501465 340.639 0.800293C340.843 1.09359 341.101 1.33154 341.411 1.51416C341.721 1.69124 342.083 1.77979 342.498 1.77979ZM348.823 -9.13574H352.343C353.887 -9.13574 355.049 -8.90885 355.829 -8.45508C356.609 -8.0013 357 -7.2238 357 -6.12256C357 -5.65218 356.914 -5.23161 356.742 -4.86084C356.571 -4.49007 356.322 -4.18294 355.995 -3.93945C355.669 -3.69596 355.267 -3.52995 354.792 -3.44141V-3.3584C355.29 -3.27539 355.732 -3.12598 356.12 -2.91016C356.507 -2.69434 356.811 -2.38721 357.033 -1.98877C357.26 -1.59587 357.373 -1.08952 357.373 -0.469727C357.373 0.27181 357.199 0.902669 356.85 1.42285C356.501 1.9375 356.006 2.3304 355.364 2.60156C354.728 2.86719 353.97 3 353.09 3H348.823V-9.13574ZM350.525 -4.03076H352.642C353.621 -4.03076 354.299 -4.19124 354.675 -4.51221C355.052 -4.83317 355.24 -5.30078 355.24 -5.91504C355.24 -6.55143 355.016 -7.00798 354.567 -7.28467C354.119 -7.56689 353.408 -7.70801 352.434 -7.70801H350.525V-4.03076ZM350.525 -2.62793V1.56396H352.841C353.842 1.56396 354.548 1.36751 354.958 0.974609C355.373 0.581706 355.58 0.0532227 355.58 -0.61084C355.58 -1.03141 355.486 -1.39111 355.298 -1.68994C355.115 -1.9943 354.816 -2.22673 354.401 -2.38721C353.986 -2.54769 353.427 -2.62793 352.725 -2.62793H350.525ZM364.52 3H362.868V-5.20947C362.868 -5.50277 362.868 -5.77116 362.868 -6.01465C362.874 -6.26367 362.882 -6.49886 362.893 -6.72021C362.904 -6.9471 362.915 -7.16569 362.926 -7.37598C362.782 -7.22656 362.63 -7.08268 362.47 -6.94434C362.315 -6.81152 362.135 -6.65934 361.93 -6.48779L360.544 -5.36719L359.689 -6.46289L363.134 -9.13574H364.52V3ZM377.179 3H368.604V1.78809L374.954 -7.6582H368.812V-9.13574H377.013V-7.92383L370.654 1.52246H377.179V3ZM382.674 -3.3252L385.729 -9.13574H387.555L383.521 -1.71484V3H381.819V-1.64014L377.776 -9.13574H379.636L382.674 -3.3252Z" fill="black"/>
<line x1="470.5" y1="-28" x2="470.5" y2="22" stroke="black" stroke-opacity="0.3"/>
<rect x="-1356" y="21" width="1826" height="1" fill="black" fill-opacity="0.25"/>
<g filter="url(#filter0_d_0_1)">
<path d="M-30 -808C-30 -810.209 -28.2091 -812 -26 -812H514V80H-26C-28.2091 80 -30 78.2091 -30 76V-808Z" fill="#F8F8F8"/>
<path d="M-26 -811.5H513.5V79.5H-26C-27.933 79.5 -29.5 77.933 -29.5 76V-808C-29.5 -809.933 -27.933 -811.5 -26 -811.5Z" stroke="black" stroke-opacity="0.12"/>
</g>
<g filter="url(#filter1_d_0_1)">
<rect width="484" height="50" rx="25" fill="white"/>
<rect x="0.5" y="0.5" width="483" height="49" rx="24.5" stroke="black" stroke-opacity="0.14"/>
</g>
<path d="M24.7783 31H23.1309V22.4004H20.2051V21.0059H27.6973V22.4004H24.7783V31ZM27.9229 23.4326H29.6729L31.2246 27.7529C31.293 27.9489 31.3545 28.1426 31.4092 28.334C31.4684 28.5208 31.5186 28.7054 31.5596 28.8877C31.6051 29.07 31.6416 29.2523 31.6689 29.4346H31.71C31.7555 29.1976 31.8193 28.9333 31.9014 28.6416C31.988 28.3454 32.0837 28.0492 32.1885 27.7529L33.6787 23.4326H35.4082L32.1611 32.0391C31.9743 32.5312 31.7441 32.9505 31.4707 33.2969C31.2018 33.6478 30.8828 33.9121 30.5137 34.0898C30.1445 34.2721 29.723 34.3633 29.249 34.3633C29.0212 34.3633 28.8229 34.3496 28.6543 34.3223C28.4857 34.2995 28.3421 34.2744 28.2236 34.2471V32.9619C28.3193 32.9847 28.4401 33.0052 28.5859 33.0234C28.7318 33.0417 28.8822 33.0508 29.0371 33.0508C29.3242 33.0508 29.5726 32.9938 29.7822 32.8799C29.9919 32.766 30.1696 32.6042 30.3154 32.3945C30.4613 32.1895 30.582 31.9548 30.6777 31.6904L30.9443 30.9795L27.9229 23.4326ZM40.4395 23.2891C41.3372 23.2891 42.0573 23.6172 42.5996 24.2734C43.1465 24.9297 43.4199 25.9049 43.4199 27.1992C43.4199 28.056 43.2923 28.7783 43.0371 29.3662C42.7865 29.9495 42.4333 30.3916 41.9775 30.6924C41.5264 30.9886 41 31.1367 40.3984 31.1367C40.0156 31.1367 39.6829 31.0866 39.4004 30.9863C39.1178 30.8861 38.8763 30.7562 38.6758 30.5967C38.4753 30.4326 38.3066 30.2549 38.1699 30.0635H38.0742C38.097 30.2458 38.1175 30.4486 38.1357 30.6719C38.1585 30.8906 38.1699 31.0911 38.1699 31.2734V34.3564H36.5566V23.4326H37.8691L38.0947 24.4785H38.1699C38.3112 24.2643 38.4821 24.0661 38.6826 23.8838C38.8877 23.7015 39.1338 23.5579 39.4209 23.4531C39.7126 23.3438 40.0521 23.2891 40.4395 23.2891ZM40.0088 24.6016C39.5667 24.6016 39.2113 24.6904 38.9424 24.8682C38.6781 25.0413 38.4844 25.3034 38.3613 25.6543C38.2428 26.0052 38.179 26.445 38.1699 26.9736V27.1992C38.1699 27.7598 38.2269 28.236 38.3408 28.6279C38.4593 29.0153 38.653 29.3115 38.9219 29.5166C39.1953 29.7171 39.5645 29.8174 40.0293 29.8174C40.4212 29.8174 40.7448 29.7103 41 29.4961C41.2598 29.2819 41.4535 28.9766 41.5811 28.5801C41.7087 28.1836 41.7725 27.7165 41.7725 27.1787C41.7725 26.363 41.6266 25.7295 41.335 25.2783C41.0479 24.8271 40.6058 24.6016 40.0088 24.6016ZM48.2939 23.2891C48.9684 23.2891 49.5472 23.4281 50.0303 23.7061C50.5133 23.984 50.8848 24.3783 51.1445 24.8887C51.4043 25.3991 51.5342 26.0098 51.5342 26.7207V27.582H46.4824C46.5007 28.3158 46.6966 28.8809 47.0703 29.2773C47.4486 29.6738 47.9772 29.8721 48.6562 29.8721C49.1393 29.8721 49.5723 29.8265 49.9551 29.7354C50.3424 29.6396 50.7412 29.5007 51.1514 29.3184V30.624C50.7731 30.8018 50.388 30.9316 49.9961 31.0137C49.6042 31.0957 49.1348 31.1367 48.5879 31.1367C47.8451 31.1367 47.1911 30.9932 46.626 30.7061C46.0654 30.4144 45.6257 29.9814 45.3066 29.4072C44.9922 28.833 44.835 28.1198 44.835 27.2676C44.835 26.4199 44.9785 25.6999 45.2656 25.1074C45.5527 24.515 45.9561 24.0638 46.4756 23.7539C46.9951 23.444 47.6012 23.2891 48.2939 23.2891ZM48.2939 24.499C47.7881 24.499 47.3779 24.6631 47.0635 24.9912C46.7536 25.3193 46.5713 25.8001 46.5166 26.4336H49.9619C49.9574 26.0553 49.8936 25.7204 49.7705 25.4287C49.652 25.137 49.4697 24.9092 49.2236 24.7451C48.9821 24.5811 48.6722 24.499 48.2939 24.499ZM61.46 31L58.582 22.6533H58.5205C58.5342 22.8402 58.5501 23.0954 58.5684 23.4189C58.5866 23.7425 58.6025 24.0889 58.6162 24.458C58.6299 24.8271 58.6367 25.1803 58.6367 25.5176V31H57.1465V21.0059H59.4502L62.2188 28.9834H62.2598L65.124 21.0059H67.4209V31H65.8555V25.4355C65.8555 25.1302 65.86 24.7998 65.8691 24.4443C65.8828 24.0889 65.8965 23.7516 65.9102 23.4326C65.9284 23.1136 65.9421 22.8584 65.9512 22.667H65.8965L62.9092 31H61.46ZM72.9033 23.2891C73.5778 23.2891 74.1566 23.4281 74.6396 23.7061C75.1227 23.984 75.4941 24.3783 75.7539 24.8887C76.0137 25.3991 76.1436 26.0098 76.1436 26.7207V27.582H71.0918C71.11 28.3158 71.306 28.8809 71.6797 29.2773C72.0579 29.6738 72.5866 29.8721 73.2656 29.8721C73.7487 29.8721 74.1816 29.8265 74.5645 29.7354C74.9518 29.6396 75.3506 29.5007 75.7607 29.3184V30.624C75.3825 30.8018 74.9974 30.9316 74.6055 31.0137C74.2135 31.0957 73.7441 31.1367 73.1973 31.1367C72.4544 31.1367 71.8005 30.9932 71.2354 30.7061C70.6748 30.4144 70.235 29.9814 69.916 29.4072C69.6016 28.833 69.4443 28.1198 69.4443 27.2676C69.4443 26.4199 69.5879 25.6999 69.875 25.1074C70.1621 24.515 70.5654 24.0638 71.085 23.7539C71.6045 23.444 72.2106 23.2891 72.9033 23.2891ZM72.9033 24.499C72.3975 24.499 71.9873 24.6631 71.6729 24.9912C71.363 25.3193 71.1807 25.8001 71.126 26.4336H74.5713C74.5667 26.0553 74.5029 25.7204 74.3799 25.4287C74.2614 25.137 74.0791 24.9092 73.833 24.7451C73.5915 24.5811 73.2816 24.499 72.9033 24.499ZM83.041 28.8398C83.041 29.3366 82.9202 29.7559 82.6787 30.0977C82.4372 30.4395 82.084 30.6992 81.6191 30.877C81.1589 31.0501 80.5938 31.1367 79.9238 31.1367C79.3952 31.1367 78.9395 31.098 78.5566 31.0205C78.1784 30.9476 77.8206 30.8337 77.4834 30.6787V29.291C77.8434 29.4596 78.2467 29.6055 78.6934 29.7285C79.1445 29.8516 79.5706 29.9131 79.9717 29.9131C80.5003 29.9131 80.8809 29.8311 81.1133 29.667C81.3457 29.4984 81.4619 29.2751 81.4619 28.9971C81.4619 28.833 81.4141 28.6872 81.3184 28.5596C81.2272 28.4274 81.054 28.293 80.7988 28.1562C80.5482 28.015 80.179 27.8464 79.6914 27.6504C79.2129 27.459 78.8096 27.2676 78.4814 27.0762C78.1533 26.8848 77.9049 26.6546 77.7363 26.3857C77.5677 26.1123 77.4834 25.7637 77.4834 25.3398C77.4834 24.6699 77.7477 24.1618 78.2764 23.8154C78.8096 23.4645 79.5137 23.2891 80.3887 23.2891C80.8535 23.2891 81.291 23.3369 81.7012 23.4326C82.1159 23.5238 82.5215 23.6582 82.918 23.8359L82.4121 25.0459C82.0703 24.8955 81.7262 24.7725 81.3799 24.6768C81.0381 24.5765 80.6895 24.5264 80.334 24.5264C79.9193 24.5264 79.6025 24.5902 79.3838 24.7178C79.1696 24.8454 79.0625 25.0277 79.0625 25.2646C79.0625 25.4424 79.1149 25.5928 79.2197 25.7158C79.3245 25.8389 79.5046 25.9619 79.7598 26.085C80.0195 26.208 80.3796 26.3607 80.8398 26.543C81.291 26.7161 81.6807 26.8984 82.0088 27.0898C82.3415 27.2767 82.5967 27.5068 82.7744 27.7803C82.9521 28.0537 83.041 28.4069 83.041 28.8398ZM89.8633 28.8398C89.8633 29.3366 89.7425 29.7559 89.501 30.0977C89.2594 30.4395 88.9062 30.6992 88.4414 30.877C87.9811 31.0501 87.416 31.1367 86.7461 31.1367C86.2174 31.1367 85.7617 31.098 85.3789 31.0205C85.0007 30.9476 84.6429 30.8337 84.3057 30.6787V29.291C84.6657 29.4596 85.069 29.6055 85.5156 29.7285C85.9668 29.8516 86.3929 29.9131 86.7939 29.9131C87.3226 29.9131 87.7031 29.8311 87.9355 29.667C88.168 29.4984 88.2842 29.2751 88.2842 28.9971C88.2842 28.833 88.2363 28.6872 88.1406 28.5596C88.0495 28.4274 87.8763 28.293 87.6211 28.1562C87.3704 28.015 87.0013 27.8464 86.5137 27.6504C86.0352 27.459 85.6318 27.2676 85.3037 27.0762C84.9756 26.8848 84.7272 26.6546 84.5586 26.3857C84.39 26.1123 84.3057 25.7637 84.3057 25.3398C84.3057 24.6699 84.57 24.1618 85.0986 23.8154C85.6318 23.4645 86.3359 23.2891 87.2109 23.2891C87.6758 23.2891 88.1133 23.3369 88.5234 23.4326C88.9382 23.5238 89.3438 23.6582 89.7402 23.8359L89.2344 25.0459C88.8926 24.8955 88.5485 24.7725 88.2021 24.6768C87.8604 24.5765 87.5117 24.5264 87.1562 24.5264C86.7415 24.5264 86.4248 24.5902 86.2061 24.7178C85.9919 24.8454 85.8848 25.0277 85.8848 25.2646C85.8848 25.4424 85.9372 25.5928 86.042 25.7158C86.1468 25.8389 86.3268 25.9619 86.582 26.085C86.8418 26.208 87.2018 26.3607 87.6621 26.543C88.1133 26.7161 88.5029 26.8984 88.8311 27.0898C89.1637 27.2767 89.4189 27.5068 89.5967 27.7803C89.7744 28.0537 89.8633 28.4069 89.8633 28.8398ZM94.6143 23.2891C95.2887 23.2891 95.8675 23.4281 96.3506 23.7061C96.8337 23.984 97.2051 24.3783 97.4648 24.8887C97.7246 25.3991 97.8545 26.0098 97.8545 26.7207V27.582H92.8027C92.821 28.3158 93.0169 28.8809 93.3906 29.2773C93.7689 29.6738 94.2975 29.8721 94.9766 29.8721C95.4596 29.8721 95.8926 29.8265 96.2754 29.7354C96.6628 29.6396 97.0615 29.5007 97.4717 29.3184V30.624C97.0934 30.8018 96.7083 30.9316 96.3164 31.0137C95.9245 31.0957 95.4551 31.1367 94.9082 31.1367C94.1654 31.1367 93.5114 30.9932 92.9463 30.7061C92.3857 30.4144 91.946 29.9814 91.627 29.4072C91.3125 28.833 91.1553 28.1198 91.1553 27.2676C91.1553 26.4199 91.2988 25.6999 91.5859 25.1074C91.873 24.515 92.2764 24.0638 92.7959 23.7539C93.3154 23.444 93.9215 23.2891 94.6143 23.2891ZM94.6143 24.499C94.1084 24.499 93.6982 24.6631 93.3838 24.9912C93.0739 25.3193 92.8916 25.8001 92.8369 26.4336H96.2822C96.2777 26.0553 96.2139 25.7204 96.0908 25.4287C95.9723 25.137 95.79 24.9092 95.5439 24.7451C95.3024 24.5811 94.9925 24.499 94.6143 24.499ZM101.826 34.3633C100.801 34.3633 100.015 34.1787 99.4678 33.8096C98.9209 33.4404 98.6475 32.9232 98.6475 32.2578C98.6475 31.793 98.7933 31.3988 99.085 31.0752C99.3766 30.7562 99.7936 30.5352 100.336 30.4121C100.131 30.321 99.9531 30.1797 99.8027 29.9883C99.6569 29.7923 99.584 29.5758 99.584 29.3389C99.584 29.0563 99.6637 28.8148 99.8232 28.6143C99.9827 28.4137 100.222 28.2201 100.541 28.0332C100.145 27.8646 99.8255 27.5911 99.584 27.2129C99.347 26.8301 99.2285 26.3812 99.2285 25.8662C99.2285 25.3193 99.3447 24.8545 99.5771 24.4717C99.8096 24.0843 100.149 23.7904 100.596 23.5898C101.042 23.3848 101.582 23.2822 102.216 23.2822C102.353 23.2822 102.501 23.2913 102.66 23.3096C102.824 23.3232 102.975 23.3415 103.111 23.3643C103.253 23.3825 103.36 23.403 103.433 23.4258H106.051V24.3213L104.766 24.5605C104.889 24.7337 104.987 24.932 105.06 25.1553C105.132 25.374 105.169 25.6133 105.169 25.873C105.169 26.6569 104.898 27.2744 104.355 27.7256C103.818 28.1722 103.075 28.3955 102.127 28.3955C101.899 28.3864 101.678 28.3682 101.464 28.3408C101.3 28.4411 101.174 28.5527 101.088 28.6758C101.001 28.7943 100.958 28.9287 100.958 29.0791C100.958 29.2021 101.001 29.3024 101.088 29.3799C101.174 29.4528 101.302 29.5075 101.471 29.5439C101.644 29.5804 101.854 29.5986 102.1 29.5986H103.405C104.235 29.5986 104.868 29.7741 105.306 30.125C105.743 30.4759 105.962 30.9909 105.962 31.6699C105.962 32.5312 105.606 33.1943 104.896 33.6592C104.185 34.1286 103.161 34.3633 101.826 34.3633ZM101.888 33.2354C102.448 33.2354 102.92 33.1807 103.303 33.0713C103.686 32.9619 103.975 32.8047 104.171 32.5996C104.367 32.3991 104.465 32.1598 104.465 31.8818C104.465 31.6357 104.403 31.4466 104.28 31.3145C104.157 31.1823 103.973 31.0911 103.727 31.041C103.48 30.9909 103.175 30.9658 102.811 30.9658H101.621C101.325 30.9658 101.063 31.0114 100.835 31.1025C100.607 31.1982 100.429 31.335 100.302 31.5127C100.179 31.6904 100.117 31.9046 100.117 32.1553C100.117 32.5016 100.27 32.7682 100.575 32.9551C100.885 33.1419 101.323 33.2354 101.888 33.2354ZM102.202 27.3428C102.672 27.3428 103.02 27.2152 103.248 26.96C103.476 26.7002 103.59 26.3356 103.59 25.8662C103.59 25.3558 103.471 24.973 103.234 24.7178C103.002 24.4626 102.656 24.335 102.195 24.335C101.744 24.335 101.4 24.4648 101.163 24.7246C100.931 24.9844 100.814 25.3695 100.814 25.8799C100.814 26.3402 100.931 26.7002 101.163 26.96C101.4 27.2152 101.746 27.3428 102.202 27.3428ZM110.446 23.2891C111.121 23.2891 111.7 23.4281 112.183 23.7061C112.666 23.984 113.037 24.3783 113.297 24.8887C113.557 25.3991 113.687 26.0098 113.687 26.7207V27.582H108.635C108.653 28.3158 108.849 28.8809 109.223 29.2773C109.601 29.6738 110.13 29.8721 110.809 29.8721C111.292 29.8721 111.725 29.8265 112.107 29.7354C112.495 29.6396 112.894 29.5007 113.304 29.3184V30.624C112.925 30.8018 112.54 30.9316 112.148 31.0137C111.757 31.0957 111.287 31.1367 110.74 31.1367C109.997 31.1367 109.343 30.9932 108.778 30.7061C108.218 30.4144 107.778 29.9814 107.459 29.4072C107.145 28.833 106.987 28.1198 106.987 27.2676C106.987 26.4199 107.131 25.6999 107.418 25.1074C107.705 24.515 108.108 24.0638 108.628 23.7539C109.147 23.444 109.754 23.2891 110.446 23.2891ZM110.446 24.499C109.94 24.499 109.53 24.6631 109.216 24.9912C108.906 25.3193 108.724 25.8001 108.669 26.4336H112.114C112.11 26.0553 112.046 25.7204 111.923 25.4287C111.804 25.137 111.622 24.9092 111.376 24.7451C111.134 24.5811 110.825 24.499 110.446 24.499Z" fill="#7F8081"/>
<path d="M461.071 17.9289C459.182 16.0402 456.671 15 454 15C451.329 15 448.818 16.0402 446.929 17.9289C445.04 19.8177 444 22.3289 444 25C444 27.6711 445.04 30.1823 446.929 32.0711C448.818 33.9598 451.329 35 454 35C456.671 35 459.182 33.9598 461.071 32.0711C462.96 30.1823 464 27.6711 464 25C464 22.3289 462.96 19.8177 461.071 17.9289ZM454 33.4375C449.348 33.4375 445.562 29.6525 445.562 25C445.562 20.3475 449.348 16.5625 454 16.5625C458.652 16.5625 462.438 20.3475 462.438 25C462.438 29.6525 458.652 33.4375 454 33.4375Z" fill="#5C5F62"/>
<path d="M458.414 26.1631C458.411 26.1715 458.129 27.0079 457.437 27.8191C456.556 28.8515 455.431 29.375 454.094 29.375C452.747 29.375 451.586 28.8453 450.643 27.8007C449.904 26.9818 449.578 26.139 449.576 26.1331L448.112 26.6795C448.128 26.7234 448.523 27.7652 449.441 28.7996C450.681 30.1982 452.29 30.9375 454.094 30.9375C455.907 30.9375 457.489 30.1924 458.668 28.7826C459.54 27.7406 459.886 26.6908 459.9 26.6466L458.414 26.1631Z" fill="#5C5F62"/>
<path d="M450.562 23.2859C451.253 23.2859 451.812 22.7262 451.812 22.0359C451.812 21.3455 451.253 20.7859 450.562 20.7859C449.872 20.7859 449.312 21.3455 449.312 22.0359C449.312 22.7262 449.872 23.2859 450.562 23.2859Z" fill="#5C5F62"/>
<path d="M457.438 23.2859C458.128 23.2859 458.688 22.7262 458.688 22.0359C458.688 21.3455 458.128 20.7859 457.438 20.7859C456.747 20.7859 456.188 21.3455 456.188 22.0359C456.188 22.7262 456.747 23.2859 457.438 23.2859Z" fill="#5C5F62"/>
<path d="M424.759 22.5486L417.861 29.2652C417.033 30.0718 415.691 30.0718 414.862 29.2652C414.034 28.4586 414.034 27.1515 414.862 26.3449L421.76 19.6283C423.416 18.0156 426.102 18.0156 427.758 19.6283C429.414 21.2411 429.414 23.8562 427.758 25.4689L420.86 32.1855C418.376 34.6048 414.348 34.6048 411.863 32.1855C409.379 29.7662 409.379 25.8439 411.863 23.4246L418.461 17" stroke="#5C5F62" stroke-width="1.6" stroke-miterlimit="10"/>
</g>
<defs>
<filter id="filter0_d_0_1" x="-50" y="-824" width="584" height="932" filterUnits="userSpaceOnUse" color-interpolation-filters="sRGB">
<feFlood flood-opacity="0" result="BackgroundImageFix"/>
<feColorMatrix in="SourceAlpha" type="matrix" values="0 0 0 0 0 0 0 0 0 0 0 0 0 0 0 0 0 0 127 0" result="hardAlpha"/>
<feOffset dy="8"/>
<feGaussianBlur stdDeviation="10"/>
<feColorMatrix type="matrix" values="0 0 0 0 0 0 0 0 0 0 0 0 0 0 0 0 0 0 0.15 0"/>
<feBlend mode="normal" in2="BackgroundImageFix" result="effect1_dropShadow_0_1"/>
<feBlend mode="normal" in="SourceGraphic" in2="effect1_dropShadow_0_1" result="shape"/>
</filter>
<filter id="filter1_d_0_1" x="0" y="0" width="484" height="52" filterUnits="userSpaceOnUse" color-interpolation-filters="sRGB">
<feFlood flood-opacity="0" result="BackgroundImageFix"/>
<feColorMatrix in="SourceAlpha" type="matrix" values="0 0 0 0 0 0 0 0 0 0 0 0 0 0 0 0 0 0 127 0" result="hardAlpha"/>
<feOffset dy="2"/>
<feColorMatrix type="matrix" values="0 0 0 0 0 0 0 0 0 0 0 0 0 0 0 0 0 0 0.08 0"/>
<feBlend mode="normal" in2="BackgroundImageFix" result="effect1_dropShadow_0_1"/>
<feBlend mode="normal" in="SourceGraphic" in2="effect1_dropShadow_0_1" result="shape"/>
</filter>
<clipPath id="clip0_0_1">
<rect width="1920" height="1024" fill="white" transform="translate(-1406 -944)"/>
</clipPath>
</defs>
</svg>
